<svg width="132" height="156" viewBox="0 0 132 156" fill="none" xmlns="http://www.w3.org/2000/svg">
<path d="M57.2428 40.1948C57.1188 40.1948 56.9908 40.1708 56.8668 40.1175C56.3695 39.9095 56.1348 39.3375 56.3442 38.8402L62.8455 23.3295C63.0521 22.8322 63.6268 22.5975 64.1215 22.8068C64.6188 23.0148 64.8535 23.5868 64.6442 24.0842L58.1442 39.5948C57.9882 39.9695 57.6255 40.1948 57.2428 40.1948Z" fill="white"/>
<path d="M41.8974 76.8162C41.7707 76.8162 41.6427 76.7922 41.5214 76.7388C41.0227 76.5322 40.7894 75.9588 40.9974 75.4615L53.9107 44.6455C54.1187 44.1482 54.6921 43.9148 55.1881 44.1228C55.6854 44.3308 55.9187 44.9028 55.7107 45.4002L42.7974 76.2175C42.6401 76.5908 42.2787 76.8162 41.8974 76.8162Z" fill="white"/>
<path d="M38.044 50.4561C37.9173 50.4561 37.7906 50.4307 37.6666 50.3787C37.1693 50.1721 36.9346 49.6001 37.144 49.1027L47.9453 23.3294C48.1519 22.8321 48.7266 22.5974 49.2213 22.8067C49.7186 23.0147 49.9533 23.5867 49.744 24.0841L38.944 49.8574C38.788 50.2307 38.424 50.4561 38.044 50.4561Z" fill="white"/>
<path d="M26.9973 76.8162C26.8706 76.8162 26.7427 76.7922 26.6213 76.7388C26.124 76.5322 25.8893 75.9588 26.0973 75.4615L30.7119 64.4482C30.9199 63.9508 31.4946 63.7162 31.9893 63.9255C32.4866 64.1335 32.7213 64.7068 32.5133 65.2042L27.8973 76.2175C27.7426 76.5908 27.3786 76.8162 26.9973 76.8162Z" fill="white"/>
<path d="M45.184 45.2708C45.0587 45.2708 44.9307 45.2467 44.8067 45.1947C44.3094 44.9867 44.076 44.4147 44.284 43.9174L51.7907 26.0028C51.9974 25.5068 52.5721 25.2734 53.0667 25.4801C53.5641 25.6881 53.7987 26.2614 53.5894 26.7587L46.0827 44.6721C45.9281 45.0454 45.5654 45.2708 45.184 45.2708" fill="white"/>
<path d="M32.5135 75.5081C32.3869 75.5081 32.2588 75.4827 32.1348 75.4307C31.6375 75.2227 31.4042 74.6507 31.6122 74.1534L39.7455 54.7441C39.9535 54.2454 40.5268 54.0121 41.0228 54.2214C41.5215 54.4294 41.7548 55.0014 41.5455 55.4987L33.4122 74.9081C33.2562 75.2827 32.8935 75.5081 32.5135 75.5081Z" fill="white"/>
<path d="M38.8879 72.1467C38.7613 72.1467 38.6332 72.1227 38.5119 72.0707C38.0146 71.8627 37.7799 71.2907 37.9879 70.7921L55.0946 29.9721C55.3012 29.4747 55.8746 29.2374 56.3706 29.4494C56.8679 29.6574 57.1026 30.2281 56.8946 30.7254L39.7879 71.5481C39.6319 71.9214 39.2693 72.1467 38.8879 72.1467Z" fill="white"/>
<path d="M48.8454 24.6826H43.4441C42.9041 24.6826 42.4668 24.2453 42.4668 23.7066C42.4668 23.1666 42.9041 22.7306 43.4441 22.7306H48.8454C49.3841 22.7306 49.8201 23.1666 49.8201 23.7066C49.8201 24.2453 49.3841 24.6826 48.8454 24.6826Z" fill="white"/>
<path d="M38.4705 24.6826H13.5105C12.9705 24.6826 12.5332 24.2453 12.5332 23.7066C12.5332 23.1666 12.9705 22.7306 13.5105 22.7306H38.4705C39.0105 22.7306 39.4465 23.1666 39.4465 23.7066C39.4465 24.2453 39.0105 24.6826 38.4705 24.6826Z" fill="white"/>
<path d="M63.7441 10.9399H36.9307C36.3921 10.9399 35.9561 10.5039 35.9561 9.96395C35.9561 9.42528 36.3921 8.98796 36.9307 8.98796H63.7441C64.2841 8.98796 64.7201 9.42528 64.7201 9.96395C64.7201 10.5039 64.2841 10.9399 63.7441 10.9399Z" fill="white"/>
<path d="M30.1319 10.9399H13.5105C12.9705 10.9399 12.5332 10.5039 12.5332 9.96395C12.5332 9.42528 12.9705 8.98796 13.5105 8.98796H30.1319C30.6706 8.98796 31.1065 9.42528 31.1065 9.96395C31.1065 10.5039 30.6706 10.9399 30.1319 10.9399Z" fill="white"/>
<path d="M59.9039 15.52H21.8213C21.2826 15.52 20.8452 15.084 20.8452 14.5453C20.8452 14.0053 21.2826 13.5694 21.8213 13.5694H59.9039C60.4425 13.5694 60.8785 14.0053 60.8785 14.5453C60.8785 15.084 60.4425 15.52 59.9039 15.52Z" fill="white"/>
<path d="M53.8109 20.1013H31.9643C31.4243 20.1013 30.9883 19.664 30.9883 19.1253C30.9883 18.5853 31.4243 18.1493 31.9643 18.1493H53.8109C54.3509 18.1493 54.7869 18.5853 54.7869 19.1253C54.7869 19.664 54.3509 20.1013 53.8109 20.1013Z" fill="white"/>
<path d="M27.8549 20.1013H17.0776C16.5376 20.1013 16.1016 19.664 16.1016 19.1253C16.1016 18.5853 16.5376 18.1493 17.0776 18.1493H27.8549C28.3936 18.1493 28.8296 18.5853 28.8296 19.1253C28.8296 19.664 28.3936 20.1013 27.8549 20.1013Z" fill="white"/>
<path d="M113.64 46.1733C113.101 46.1733 112.665 45.7373 112.665 45.1973V33.0307C112.665 20.8973 102.793 11.0267 90.6586 11.0267C86.1106 11.0267 81.7439 12.4027 78.0345 15.0054C77.5932 15.3147 76.9853 15.2094 76.6746 14.7667C76.3653 14.3254 76.4719 13.7173 76.9119 13.4067C80.9532 10.5733 85.7066 9.07468 90.6586 9.07468C103.869 9.07468 114.617 19.8213 114.617 33.0307V45.1973C114.617 45.7373 114.18 46.1733 113.64 46.1733" fill="white"/>
<path d="M90.6588 76.8162C86.9215 76.8162 83.3415 75.9802 80.0188 74.3295C79.5335 74.0895 79.3375 73.5042 79.5761 73.0202C79.8175 72.5402 80.3988 72.3402 80.8855 72.5802C83.9375 74.0962 87.2255 74.8642 90.6588 74.8642C101.956 74.8642 111.363 66.4042 112.543 55.1855C112.599 54.6495 113.075 54.2615 113.615 54.3162C114.152 54.3735 114.54 54.8522 114.484 55.3895C113.201 67.6055 102.96 76.8162 90.6588 76.8162" fill="white"/>
<path d="M73.5533 69.1814C73.2853 69.1814 73.0187 69.0721 72.8267 68.8574C68.876 64.4587 66.7026 58.7774 66.7026 52.8587V33.0307C66.7026 29.4134 67.488 25.9361 69.0386 22.6961C69.2733 22.2107 69.8559 22.0054 70.3426 22.2374C70.8279 22.4694 71.032 23.0521 70.8 23.5387C69.376 26.5134 68.6547 29.7081 68.6547 33.0307V52.8587C68.6547 58.2947 70.652 63.5147 74.28 67.5547C74.6386 67.9561 74.6053 68.5721 74.2039 68.9321C74.0199 69.1001 73.7866 69.1814 73.5533 69.1814" fill="white"/>
<path d="M90.3669 63.748C88.6455 63.748 87.0002 63.3587 85.4722 62.5894C84.9922 62.3467 84.7988 61.7587 85.0402 61.2774C85.2828 60.796 85.8695 60.6014 86.3522 60.8454C87.6042 61.4774 88.9549 61.796 90.3669 61.796C95.2962 61.796 99.3042 57.788 99.3042 52.8587V33.0307C99.3042 28.1027 95.2962 24.0947 90.3669 24.0947C85.4389 24.0947 81.4296 28.1027 81.4296 33.0307V50.0427C81.4296 50.5814 80.9935 51.0187 80.4549 51.0187C79.9149 51.0187 79.4775 50.5814 79.4775 50.0427V33.0307C79.4775 27.0267 84.3629 22.1427 90.3669 22.1427C96.3722 22.1427 101.256 27.0267 101.256 33.0307V52.8587C101.256 58.864 96.3722 63.748 90.3669 63.748Z" fill="white"/>
<path d="M101.975 62.3C101.776 62.3 101.575 62.2374 101.4 62.112C100.965 61.7934 100.869 61.1827 101.188 60.7467C102.869 58.4467 103.759 55.7187 103.759 52.8587V33.0307C103.759 25.648 97.7507 19.6414 90.3667 19.6414C84.076 19.6414 78.5666 24.1027 77.268 30.248C77.156 30.776 76.6293 31.1147 76.1107 31.0014C75.5827 30.8894 75.2453 30.3707 75.356 29.844C76.8466 22.8014 83.1587 17.6894 90.3667 17.6894C98.828 17.6894 105.711 24.572 105.711 33.0307V52.8587C105.711 56.136 104.692 59.2614 102.764 61.9C102.573 62.1614 102.276 62.3 101.975 62.3" fill="white"/>
<path d="M90.3667 68.2014C81.9094 68.2014 75.0254 61.3187 75.0254 52.8587V37.9401C75.0254 37.4014 75.4627 36.9641 76.0027 36.9641C76.5414 36.9641 76.9774 37.4014 76.9774 37.9401V52.8587C76.9774 60.2427 82.9841 66.2494 90.3667 66.2494C93.0641 66.2494 95.6627 65.4507 97.884 63.9414C98.3307 63.6374 98.9361 63.7561 99.2414 64.2001C99.5427 64.6467 99.428 65.2534 98.9814 65.5561C96.436 67.2867 93.4574 68.2014 90.3667 68.2014" fill="white"/>
<path d="M90.3666 72.6533C82.1826 72.6533 74.952 67.736 71.948 60.124C71.7493 59.6213 71.9973 59.0546 72.4987 58.856C72.992 58.66 73.5653 58.904 73.764 59.4066C76.472 66.268 82.988 70.7027 90.3666 70.7027C100.205 70.7027 108.211 62.6973 108.211 52.8586V33.0307C108.211 32.0947 108.137 31.1547 107.993 30.2347C107.909 29.7013 108.275 29.2013 108.807 29.1187C109.337 29.0347 109.839 29.4 109.923 29.9307C110.081 30.952 110.163 31.9947 110.163 33.0307V52.8586C110.163 63.7746 101.283 72.6533 90.3666 72.6533Z" fill="white"/>
<path d="M71.5479 51.856C71.0092 51.856 70.5732 51.42 70.5732 50.88V33.0306C70.5732 22.116 79.4533 13.236 90.3666 13.236C94.0666 13.236 97.6719 14.2613 100.797 16.2026C101.255 16.488 101.396 17.0893 101.112 17.5466C100.827 18.0053 100.227 18.148 99.7666 17.8613C96.9519 16.1133 93.7013 15.188 90.3666 15.188C80.5279 15.188 72.524 23.192 72.524 33.0306V50.88C72.524 51.42 72.0866 51.856 71.5479 51.856" fill="white"/>
<path d="M31.1588 110.224C30.2561 110.224 29.4335 110.076 28.6908 109.781C27.9482 109.485 27.3108 109.037 26.7814 108.44C26.2508 107.841 25.8415 107.085 25.5535 106.172C25.2641 105.26 25.1201 104.189 25.1201 102.964V101.828C25.1201 100.544 25.2548 99.4148 25.5255 98.4414C25.7975 97.4668 26.1908 96.6521 26.7108 95.9961C27.2308 95.3401 27.8628 94.8468 28.6094 94.5148C29.3561 94.1815 30.2055 94.0148 31.1588 94.0148C31.7281 94.0148 32.2428 94.0708 32.7055 94.1788C33.1668 94.2868 33.5788 94.4188 33.9441 94.5721C34.3081 94.7295 34.6201 94.8988 34.8801 95.0815C35.1401 95.2655 35.3535 95.4335 35.5188 95.5855L34.5228 97.5321C34.3361 97.3881 34.1228 97.2495 33.8855 97.1161C33.6468 96.9828 33.3962 96.8655 33.1322 96.7641C32.8695 96.6641 32.5948 96.5841 32.3094 96.5254C32.0254 96.4681 31.7495 96.4401 31.4828 96.4401C31.0068 96.4401 30.5668 96.5321 30.1628 96.7161C29.7575 96.9015 29.4095 97.1881 29.1188 97.5828C28.8268 97.9761 28.5988 98.4775 28.4374 99.0881C28.2748 99.6975 28.1921 100.429 28.1921 101.281V102.537C28.1921 103.476 28.2748 104.279 28.4374 104.948C28.5988 105.615 28.8282 106.161 29.1242 106.588C29.4188 107.015 29.7748 107.327 30.1895 107.524C30.6041 107.724 31.0601 107.823 31.5588 107.823C31.8175 107.823 32.0841 107.792 32.3588 107.731C32.6321 107.669 32.9002 107.588 33.1602 107.487C33.4188 107.385 33.6668 107.272 33.9014 107.145C34.1348 107.02 34.3468 106.885 34.5335 106.74L35.5281 108.673C35.3855 108.824 35.1828 108.989 34.9228 109.169C34.6641 109.348 34.3508 109.517 33.9814 109.676C33.6148 109.833 33.1935 109.963 32.7215 110.068C32.2482 110.172 31.7281 110.224 31.1588 110.224" fill="white"/>
<path d="M47.3669 94.2426V96.6453H43.3416V109.997H40.2682V96.6453H36.2656V94.2426H47.3669Z" fill="white"/>
<path d="M49.3895 111.35H48.1455L54.2162 94.2428H55.4495L49.3895 111.35" fill="white"/>
<path d="M68.9416 94.2428V105.227C68.9416 106.033 68.815 106.747 68.563 107.368C68.3096 107.988 67.9563 108.511 67.4976 108.932C67.0389 109.353 66.4869 109.675 65.8416 109.895C65.1949 110.115 64.4842 110.224 63.7042 110.224C62.9616 110.224 62.2762 110.117 61.6482 109.9C61.0216 109.683 60.4803 109.364 60.0256 108.943C59.5723 108.52 59.2176 107.997 58.9656 107.373C58.7136 106.749 58.5869 106.033 58.5869 105.227V94.2428H59.9509V105.227C59.9509 105.867 60.0416 106.433 60.227 106.924C60.4096 107.415 60.6669 107.824 60.9949 108.152C61.3229 108.48 61.7176 108.728 62.1803 108.893C62.6403 109.06 63.1482 109.143 63.7042 109.143C64.2669 109.143 64.787 109.061 65.263 108.899C65.7403 108.737 66.1483 108.493 66.491 108.169C66.8336 107.844 67.1003 107.437 67.2923 106.947C67.4816 106.456 67.5776 105.883 67.5776 105.227V94.2428H68.9416" fill="white"/>
<path d="M81.1894 102.727H74.7961V109.997H73.4321V94.2426H82.2067V95.3027H74.7961V101.667H81.1894V102.727" fill="white"/>
<path d="M93.0373 102.315H86.3293V108.937H94.228V109.997H84.9653V94.2426H94.0866V95.3027H86.3293V101.255H93.0373V102.315" fill="white"/>
<path d="M101.109 102.619C100.295 102.315 99.6095 102.001 99.0535 101.677C98.4975 101.351 98.0495 101.005 97.7055 100.637C97.3628 100.271 97.1188 99.8747 96.9695 99.4534C96.8228 99.0307 96.7481 98.568 96.7481 98.0627C96.7481 97.4627 96.8561 96.916 97.0735 96.4174C97.2895 95.92 97.5908 95.4934 97.9761 95.1347C98.3615 94.7787 98.8255 94.5027 99.3668 94.308C99.9095 94.1134 100.503 94.0147 101.152 94.0147C101.687 94.0147 102.178 94.0614 102.624 94.1507C103.072 94.2414 103.484 94.3614 103.863 94.5147C104.243 94.6654 104.586 94.8414 104.896 95.0387C105.206 95.2374 105.487 95.4454 105.74 95.6614L105.264 96.6014C105.04 96.4067 104.777 96.2214 104.473 96.044C104.172 95.868 103.843 95.7107 103.489 95.5734C103.135 95.4374 102.763 95.3294 102.369 95.2494C101.976 95.1707 101.578 95.1294 101.175 95.1294C100.698 95.1294 100.268 95.1934 99.8868 95.3201C99.5041 95.4467 99.1815 95.632 98.9175 95.8774C98.6548 96.1227 98.4508 96.424 98.3068 96.7814C98.1628 97.1374 98.0909 97.544 98.0909 97.9974C98.0909 98.4027 98.1615 98.7587 98.3015 99.0694C98.4428 99.3801 98.6655 99.668 98.9722 99.9347C99.2788 100.201 99.6721 100.455 100.151 100.692C100.632 100.929 101.207 101.18 101.878 101.439C102.642 101.72 103.288 102.019 103.814 102.337C104.342 102.653 104.768 102.999 105.096 103.369C105.424 103.741 105.661 104.148 105.804 104.592C105.949 105.036 106.022 105.528 106.022 106.071C106.022 106.653 105.908 107.199 105.681 107.703C105.453 108.208 105.132 108.647 104.717 109.017C104.301 109.389 103.804 109.681 103.224 109.895C102.643 110.107 102 110.213 101.294 110.213C100.774 110.213 100.276 110.163 99.7989 110.063C99.3242 109.96 98.8801 109.828 98.4681 109.661C98.0575 109.496 97.6775 109.307 97.3282 109.093C96.9775 108.881 96.6695 108.663 96.4028 108.44L96.9108 107.487C97.0762 107.637 97.3068 107.805 97.6041 107.989C97.8988 108.175 98.2388 108.348 98.6201 108.511C99.0028 108.672 99.4188 108.807 99.8695 108.915C100.32 109.023 100.788 109.077 101.271 109.077C101.812 109.077 102.295 108.996 102.716 108.835C103.138 108.672 103.498 108.453 103.794 108.18C104.088 107.905 104.313 107.585 104.468 107.221C104.624 106.857 104.701 106.473 104.701 106.071C104.701 105.731 104.652 105.415 104.555 105.123C104.459 104.831 104.277 104.545 104.015 104.268C103.751 103.991 103.387 103.719 102.922 103.451C102.456 103.184 101.852 102.905 101.109 102.619" fill="white"/>
<path d="M23.8682 89.8108H105.679V90.7615H23.8682V89.8108Z" fill="white"/>
<path d="M23.8682 113.761H105.679V114.712H23.8682V113.761Z" fill="white"/>
<path d="M33.5585 125.866C33.1998 125.866 32.8731 125.807 32.5785 125.69C32.2838 125.571 32.0305 125.395 31.8198 125.156C31.6091 124.919 31.4478 124.619 31.3331 124.256C31.2185 123.895 31.1611 123.468 31.1611 122.981V122.531C31.1611 122.02 31.2145 121.572 31.3212 121.185C31.4292 120.799 31.5852 120.476 31.7932 120.215C31.9985 119.955 32.2492 119.757 32.5465 119.626C32.8438 119.495 33.1811 119.428 33.5585 119.428C33.7851 119.428 33.9891 119.451 34.1731 119.493C34.3558 119.536 34.5212 119.588 34.6652 119.65C34.8092 119.711 34.9331 119.779 35.0358 119.851C35.1398 119.924 35.2238 119.992 35.2905 120.052L34.8958 120.826C34.8198 120.768 34.7358 120.714 34.6411 120.66C34.5465 120.607 34.4478 120.56 34.3424 120.52C34.2384 120.48 34.1305 120.448 34.0158 120.426C33.9038 120.403 33.7945 120.391 33.6878 120.391C33.4985 120.391 33.3238 120.427 33.1638 120.502C33.0025 120.573 32.8638 120.688 32.7478 120.845C32.6318 121.002 32.5411 121.2 32.4771 121.443C32.4131 121.684 32.3811 121.975 32.3811 122.314V122.812C32.3811 123.184 32.4131 123.505 32.4771 123.769C32.5411 124.035 32.6318 124.252 32.7505 124.421C32.8678 124.591 33.0091 124.715 33.1745 124.793C33.3385 124.872 33.5198 124.911 33.7171 124.911C33.8198 124.911 33.9264 124.9 34.0344 124.875C34.1438 124.851 34.2492 124.819 34.3545 124.779C34.4572 124.738 34.5545 124.692 34.6478 124.643C34.7411 124.593 34.8251 124.539 34.8998 124.481L35.2945 125.25C35.2371 125.309 35.1572 125.375 35.0545 125.447C34.9505 125.517 34.8252 125.584 34.6798 125.647C34.5332 125.711 34.3665 125.763 34.1798 125.803C33.9918 125.845 33.7851 125.866 33.5585 125.866" fill="white"/>
<path d="M37.6664 121.864C37.5571 121.864 37.4611 121.891 37.3744 121.943C37.2891 121.995 37.2158 122.065 37.1571 122.157C37.0984 122.248 37.0518 122.357 37.0184 122.484C36.9824 122.609 36.9637 122.747 36.9584 122.896V122.908C36.9584 122.92 36.9584 122.928 36.9624 122.931L38.3144 122.914V122.763C38.3144 122.461 38.2598 122.238 38.1491 122.088C38.0384 121.94 37.8784 121.864 37.6664 121.864V121.864ZM37.7611 125.866C37.4451 125.866 37.1624 125.811 36.9117 125.703C36.6611 125.593 36.4477 125.441 36.2704 125.244C36.0917 125.048 35.9557 124.815 35.8611 124.541C35.7677 124.271 35.7197 123.971 35.7197 123.648V123.387C35.7197 123.031 35.7584 122.703 35.8384 122.4C35.9157 122.097 36.0371 121.836 36.1984 121.616C36.3598 121.396 36.565 121.223 36.809 121.097C37.0544 120.973 37.3437 120.911 37.6757 120.911C37.969 120.911 38.2318 120.959 38.4598 121.053C38.6878 121.147 38.8784 121.285 39.0331 121.466C39.1877 121.645 39.3038 121.866 39.3851 122.126C39.4651 122.384 39.5051 122.679 39.5051 123.008V123.747H37.3264H36.9491C36.9544 123.904 36.9784 124.055 37.0238 124.196C37.0691 124.339 37.1318 124.463 37.2158 124.572C37.2984 124.681 37.4011 124.767 37.5224 124.831C37.6437 124.893 37.7837 124.923 37.9411 124.92C38.0531 124.92 38.1571 124.914 38.2544 124.902C38.3531 124.888 38.4477 124.868 38.5411 124.841C38.6331 124.814 38.7277 124.779 38.8224 124.736C38.9157 124.692 39.0157 124.639 39.1197 124.576L39.4238 125.32C39.3264 125.404 39.2158 125.478 39.0931 125.543C38.9691 125.609 38.8371 125.667 38.6931 125.715C38.5504 125.764 38.3997 125.8 38.2424 125.827C38.0837 125.852 37.9237 125.866 37.7611 125.866" fill="white"/>
<path d="M41.5081 120.997L41.6361 121.656C41.7774 121.421 41.9521 121.239 42.1614 121.108C42.3694 120.976 42.6041 120.911 42.8614 120.911C43.0761 120.911 43.268 120.948 43.4374 121.02C43.6067 121.093 43.7494 121.205 43.8694 121.357C43.9881 121.511 44.0774 121.702 44.14 121.933C44.2014 122.167 44.2321 122.441 44.2321 122.759V125.776H43.012V122.76C43.012 122.599 42.9948 122.461 42.9628 122.348C42.9294 122.236 42.8841 122.143 42.8268 122.071C42.7694 122 42.7014 121.948 42.6227 121.914C42.5441 121.881 42.4587 121.864 42.3667 121.864C42.3067 121.864 42.2441 121.879 42.1801 121.905C42.1161 121.933 42.0521 121.969 41.9894 122.017C41.9254 122.065 41.8667 122.123 41.812 122.187C41.7574 122.253 41.7107 122.324 41.6721 122.399V125.776H40.4561V120.997H41.5081" fill="white"/>
<path d="M45.5387 119.973H46.7547V120.997H47.6347V121.864H46.7547V124.38C46.7547 124.473 46.7667 124.556 46.792 124.626C46.8147 124.692 46.8481 124.748 46.8881 124.792C46.9281 124.835 46.9734 124.867 47.0267 124.888C47.0801 124.908 47.1347 124.92 47.192 124.92C47.2734 124.92 47.3494 124.909 47.42 124.891C47.492 124.869 47.5481 124.852 47.5881 124.839L47.6881 125.659C47.6401 125.684 47.5827 125.709 47.5107 125.735C47.44 125.757 47.3627 125.78 47.284 125.799C47.2027 125.817 47.1214 125.833 47.0387 125.847C46.956 125.859 46.8787 125.866 46.8093 125.866C46.604 125.866 46.4214 125.84 46.2654 125.79C46.1067 125.738 45.9747 125.651 45.8667 125.532C45.76 125.414 45.6787 125.26 45.6227 125.071C45.5667 124.881 45.5387 124.65 45.5387 124.375V121.864H44.9507V120.997H45.5387V119.973" fill="white"/>
<path d="M50.9135 120.963L50.7855 122.084C50.7428 122.08 50.7054 122.078 50.6761 122.075C50.6454 122.072 50.6161 122.071 50.5868 122.069C50.5588 122.068 50.5294 122.067 50.5014 122.065C50.4721 122.064 50.4388 122.063 50.3988 122.063C50.2028 122.063 50.0468 122.1 49.9281 122.175C49.8095 122.248 49.7228 122.35 49.6681 122.479V125.776H48.4521V120.997H49.4921L49.6174 121.728C49.6614 121.614 49.7188 121.507 49.7841 121.407C49.8508 121.308 49.9228 121.223 50.0028 121.15C50.0828 121.076 50.1695 121.017 50.2628 120.975C50.3562 120.932 50.4548 120.911 50.5575 120.911C50.6175 120.911 50.6801 120.916 50.7441 120.926C50.8081 120.936 50.8655 120.948 50.9135 120.963" fill="white"/>
<path d="M52.4816 123.528C52.4816 123.739 52.4976 123.932 52.527 124.104C52.5576 124.276 52.6069 124.421 52.6749 124.541C52.7416 124.663 52.827 124.755 52.9323 124.821C53.0363 124.888 53.1616 124.92 53.3069 124.92C53.4509 124.92 53.5749 124.888 53.6776 124.821C53.7803 124.755 53.8643 124.661 53.9323 124.54C54.0003 124.417 54.0496 124.272 54.0803 124.102C54.1123 123.931 54.1283 123.739 54.1283 123.528V123.257C54.1283 123.088 54.1149 122.92 54.0896 122.755C54.0642 122.588 54.0202 122.44 53.9562 122.307C53.8936 122.176 53.8083 122.069 53.7029 121.987C53.5963 121.905 53.463 121.864 53.299 121.864C53.1323 121.864 52.9976 121.907 52.891 121.992C52.7843 122.076 52.7016 122.184 52.6416 122.317C52.5803 122.452 52.5389 122.602 52.5176 122.768C52.4936 122.933 52.4816 123.096 52.4816 123.257V123.528ZM51.2656 123.257C51.2696 122.907 51.3162 122.588 51.4096 122.3C51.5002 122.014 51.6323 121.766 51.8029 121.56C51.9749 121.353 52.1869 121.193 52.4376 121.08C52.6882 120.967 52.975 120.911 53.299 120.911C53.6283 120.911 53.9189 120.971 54.1736 121.09C54.4269 121.208 54.6403 121.372 54.8136 121.583C54.9869 121.793 55.1176 122.041 55.2069 122.327C55.2962 122.612 55.3402 122.921 55.3402 123.257V123.528C55.3402 123.88 55.2949 124.2 55.2029 124.487C55.1109 124.773 54.9776 125.017 54.8016 125.224C54.6282 125.428 54.4136 125.585 54.163 125.697C53.9096 125.809 53.6256 125.866 53.3069 125.866C52.9749 125.866 52.6829 125.807 52.4283 125.69C52.1749 125.571 51.963 125.408 51.791 125.202C51.619 124.995 51.4883 124.747 51.4003 124.461C51.3109 124.178 51.2656 123.866 51.2656 123.528V123.257Z" fill="white"/>
<path d="M62.2029 119.517V120.472H60.6042V125.776H59.3829V120.472H57.7949V119.517H62.2029" fill="white"/>
<path d="M63.8774 121.864C63.7694 121.864 63.6721 121.891 63.5854 121.943C63.5001 121.995 63.4268 122.065 63.3694 122.157C63.3094 122.248 63.2641 122.357 63.2295 122.484C63.1948 122.609 63.1748 122.747 63.1694 122.896V122.908C63.1694 122.92 63.1707 122.928 63.1734 122.931L64.5268 122.914V122.763C64.5268 122.461 64.4708 122.238 64.3614 122.088C64.2508 121.94 64.0894 121.864 63.8774 121.864V121.864ZM63.9721 125.866C63.6574 125.866 63.3748 125.811 63.1254 125.703C62.8734 125.593 62.6587 125.441 62.4814 125.244C62.3041 125.048 62.1681 124.815 62.0734 124.541C61.9787 124.271 61.9321 123.971 61.9321 123.648V123.387C61.9321 123.031 61.9708 122.703 62.0494 122.4C62.1294 122.097 62.2481 121.836 62.4108 121.616C62.5734 121.396 62.7761 121.223 63.0215 121.097C63.2655 120.973 63.5548 120.911 63.8868 120.911C64.1828 120.911 64.4428 120.959 64.6721 121.053C64.8988 121.147 65.0894 121.285 65.2441 121.466C65.4001 121.645 65.5175 121.866 65.5961 122.126C65.6775 122.384 65.7174 122.679 65.7174 123.008V123.747H63.5388H63.1614C63.1668 123.904 63.1908 124.055 63.2361 124.196C63.2801 124.339 63.3441 124.463 63.4268 124.572C63.5108 124.681 63.6121 124.767 63.7347 124.831C63.8561 124.893 63.9961 124.923 64.1534 124.92C64.2654 124.92 64.3694 124.914 64.4668 124.902C64.5654 124.888 64.6588 124.868 64.7521 124.841C64.8468 124.814 64.9401 124.779 65.0334 124.736C65.1294 124.692 65.2281 124.639 65.3308 124.576L65.6347 125.32C65.5387 125.404 65.4281 125.478 65.3041 125.543C65.1827 125.609 65.0481 125.667 64.9054 125.715C64.7614 125.764 64.6121 125.8 64.4548 125.827C64.2975 125.852 64.1348 125.866 63.9721 125.866" fill="white"/>
<path d="M68.6775 124.92C68.8668 124.92 69.0348 124.892 69.1828 124.836C69.3308 124.781 69.4788 124.692 69.6322 124.572L70.0014 125.297C69.9241 125.372 69.8375 125.445 69.7415 125.514C69.6455 125.581 69.5334 125.641 69.4068 125.693C69.2788 125.744 69.1348 125.787 68.9734 125.817C68.8134 125.85 68.6321 125.866 68.4281 125.866C68.1281 125.866 67.8548 125.809 67.6121 125.7C67.3681 125.59 67.1615 125.433 66.9895 125.229C66.8175 125.026 66.6855 124.779 66.5908 124.488C66.4988 124.197 66.4521 123.872 66.4521 123.511V123.261C66.4521 122.917 66.4988 122.602 66.5908 122.314C66.6855 122.026 66.8175 121.779 66.9895 121.571C67.1615 121.363 67.3681 121.2 67.6121 121.085C67.8548 120.968 68.1281 120.911 68.4281 120.911C68.6268 120.911 68.8028 120.926 68.9602 120.955C69.1148 120.981 69.2548 121.02 69.3801 121.069C69.5055 121.117 69.6188 121.178 69.7201 121.247C69.8215 121.316 69.9161 121.392 70.0055 121.471L69.6322 122.204C69.4788 122.084 69.3308 121.996 69.1828 121.94C69.0348 121.884 68.8668 121.856 68.6775 121.856C68.5308 121.856 68.3974 121.893 68.2734 121.968C68.1508 122.043 68.0441 122.145 67.9535 122.276C67.8628 122.405 67.7934 122.56 67.7428 122.738C67.6921 122.912 67.6681 123.102 67.6681 123.302V123.448C67.6681 123.683 67.6921 123.893 67.7428 124.076C67.7934 124.26 67.8615 124.414 67.9521 124.539C68.0401 124.664 68.1455 124.759 68.2695 124.823C68.3935 124.888 68.5281 124.92 68.6775 124.92" fill="white"/>
<path d="M71.763 120.997L71.8923 121.656C72.0323 121.421 72.2069 121.239 72.4163 121.108C72.6256 120.976 72.8589 120.911 73.1176 120.911C73.3322 120.911 73.5229 120.948 73.6923 121.02C73.8616 121.093 74.0056 121.205 74.1256 121.357C74.2429 121.511 74.3336 121.702 74.3963 121.933C74.4576 122.167 74.4869 122.441 74.4869 122.759V125.776H73.2669V122.76C73.2669 122.599 73.2496 122.461 73.2176 122.348C73.1856 122.236 73.1389 122.143 73.0816 122.071C73.0242 122 72.9576 121.948 72.8776 121.914C72.7989 121.881 72.7136 121.864 72.6229 121.864C72.5629 121.864 72.5002 121.879 72.4349 121.905C72.3709 121.933 72.3069 121.969 72.2443 122.017C72.1816 122.065 72.1229 122.123 72.0682 122.187C72.0136 122.253 71.9656 122.324 71.927 122.399V125.776H70.7109V120.997H71.763Z" fill="white"/>
<path d="M76.6574 123.528C76.6574 123.739 76.6721 123.932 76.7027 124.104C76.7334 124.276 76.7814 124.421 76.8494 124.541C76.9161 124.663 77.0027 124.755 77.1067 124.821C77.2107 124.888 77.3361 124.92 77.4827 124.92C77.6267 124.92 77.7481 124.888 77.8521 124.821C77.9561 124.755 78.0401 124.661 78.1081 124.54C78.1747 124.417 78.2241 124.272 78.2561 124.102C78.2881 123.931 78.3027 123.739 78.3027 123.528V123.257C78.3027 123.088 78.2907 122.92 78.2641 122.755C78.2401 122.588 78.1934 122.44 78.1321 122.307C78.0681 122.176 77.9841 122.069 77.8774 121.987C77.7721 121.905 77.6374 121.864 77.4734 121.864C77.3067 121.864 77.1721 121.907 77.0654 121.992C76.9601 122.076 76.8761 122.184 76.8161 122.317C76.7561 122.452 76.7147 122.602 76.6921 122.768C76.6694 122.933 76.6574 123.096 76.6574 123.257V123.528ZM75.4414 123.257C75.4441 122.907 75.4921 122.588 75.5827 122.3C75.6747 122.014 75.8067 121.766 75.9787 121.56C76.1507 121.353 76.3614 121.193 76.612 121.08C76.8627 120.967 77.1507 120.911 77.4734 120.911C77.8027 120.911 78.0947 120.971 78.3494 121.09C78.6014 121.208 78.8148 121.372 78.9881 121.583C79.1614 121.793 79.2934 122.041 79.3814 122.327C79.4707 122.612 79.5161 122.921 79.5161 123.257V123.528C79.5161 123.88 79.4681 124.2 79.3774 124.487C79.2867 124.773 79.1521 125.017 78.9774 125.224C78.8027 125.428 78.5894 125.585 78.3374 125.697C78.0854 125.809 77.8001 125.866 77.4827 125.866C77.1507 125.866 76.856 125.807 76.604 125.69C76.3507 125.571 76.1374 125.408 75.9654 125.202C75.7948 124.995 75.664 124.747 75.576 124.461C75.4854 124.178 75.4414 123.866 75.4414 123.528V123.257Z" fill="white"/>
<path d="M80.4561 119.071H81.6721V124.284C81.6721 124.499 81.6881 124.661 81.7187 124.769C81.7494 124.879 81.8241 124.933 81.9387 124.933C81.9921 124.933 82.0414 124.927 82.0854 124.914C82.1307 124.902 82.1734 124.888 82.2134 124.872L82.3521 125.684C82.3094 125.708 82.2574 125.731 82.1908 125.751C82.1268 125.773 82.0547 125.792 81.9787 125.809C81.904 125.827 81.8254 125.841 81.7441 125.85C81.6641 125.86 81.5894 125.866 81.5214 125.866C81.3494 125.866 81.1974 125.843 81.0641 125.796C80.9307 125.751 80.8188 125.668 80.7294 125.547C80.6374 125.427 80.5708 125.263 80.5241 125.053C80.4788 124.844 80.4561 124.576 80.4561 124.25V119.071" fill="white"/>
<path d="M84.0211 120.499L85.1184 119.071H86.6784L84.9798 120.499H84.0211ZM84.0051 123.528C84.0051 123.739 84.0211 123.932 84.0504 124.104C84.0797 124.276 84.1291 124.421 84.1958 124.541C84.2624 124.663 84.3491 124.755 84.4544 124.821C84.5584 124.888 84.6851 124.92 84.8304 124.92C84.9731 124.92 85.0957 124.888 85.1997 124.821C85.3024 124.755 85.3877 124.661 85.4557 124.54C85.5224 124.417 85.573 124.272 85.6037 124.102C85.6344 123.931 85.6504 123.739 85.6504 123.528V123.257C85.6504 123.088 85.6371 122.92 85.6117 122.755C85.5851 122.588 85.5411 122.44 85.4784 122.307C85.4157 122.176 85.3317 122.069 85.2251 121.987C85.1197 121.905 84.9838 121.864 84.8211 121.864C84.6558 121.864 84.5198 121.907 84.4131 121.992C84.3064 122.076 84.2237 122.184 84.1637 122.317C84.1037 122.452 84.0624 122.602 84.0384 122.768C84.0171 122.933 84.0051 123.096 84.0051 123.257V123.528ZM82.7891 123.257C82.7917 122.907 82.8384 122.588 82.9304 122.3C83.0224 122.014 83.1531 121.766 83.3251 121.56C83.4971 121.353 83.7091 121.193 83.9611 121.08C84.2104 120.967 84.4971 120.911 84.8211 120.911C85.1504 120.911 85.4424 120.971 85.6944 121.09C85.9491 121.208 86.1624 121.372 86.3357 121.583C86.5104 121.793 86.6398 122.041 86.7291 122.327C86.8171 122.612 86.8611 122.921 86.8611 123.257V123.528C86.8611 123.88 86.8171 124.2 86.7251 124.487C86.6317 124.773 86.4997 125.017 86.3251 125.224C86.1504 125.428 85.9371 125.585 85.6851 125.697C85.4331 125.809 85.1477 125.866 84.8304 125.866C84.4971 125.866 84.2051 125.807 83.9518 125.69C83.6971 125.571 83.4851 125.408 83.3131 125.202C83.1411 124.995 83.0104 124.747 82.9211 124.461C82.8331 124.178 82.7891 123.866 82.7891 123.528V123.257" fill="white"/>
<path d="M88.8172 122.625C88.8199 122.853 88.8825 123.033 89.0025 123.161C89.1225 123.288 89.2839 123.35 89.4839 123.35C89.6825 123.35 89.8399 123.286 89.9585 123.156C90.0772 123.025 90.1359 122.848 90.1359 122.625V122.531C90.1359 122.299 90.0759 122.121 89.9546 121.996C89.8332 121.871 89.6732 121.809 89.4745 121.809C89.2772 121.809 89.1186 121.872 88.9986 122C88.8772 122.127 88.8172 122.304 88.8172 122.531V122.625ZM89.1145 125.707C89.0479 125.707 88.9866 125.705 88.9319 125.703C88.8759 125.699 88.8199 125.691 88.7652 125.678C88.6999 125.725 88.6465 125.793 88.6052 125.883C88.5639 125.971 88.5425 126.073 88.5425 126.192C88.5425 126.357 88.6146 126.496 88.7546 126.607C88.8972 126.717 89.1052 126.772 89.3799 126.772C89.7012 126.772 89.9425 126.721 90.1025 126.617C90.2625 126.515 90.3439 126.364 90.3439 126.167C90.3439 126.025 90.3039 125.913 90.2292 125.831C90.1532 125.747 90.0292 125.707 89.8572 125.707H89.1145ZM91.5732 121.645H90.8465C90.9225 121.68 90.9919 121.729 91.0546 121.791C91.1159 121.85 91.1679 121.921 91.2105 122C91.2532 122.079 91.2865 122.166 91.3065 122.257C91.3292 122.35 91.3398 122.447 91.3398 122.544V122.625C91.3398 122.874 91.2945 123.099 91.1999 123.297C91.1065 123.497 90.9785 123.667 90.8132 123.807C90.6479 123.948 90.4532 124.055 90.2266 124.129C90.0012 124.204 89.7519 124.24 89.4839 124.24C89.3839 124.24 89.2919 124.237 89.2079 124.231C89.1265 124.224 89.0426 124.209 88.9599 124.189C88.9279 124.227 88.9039 124.271 88.8865 124.319C88.8692 124.367 88.8599 124.419 88.8599 124.473C88.8599 124.608 88.9012 124.697 88.9826 124.744C89.0652 124.791 89.1865 124.812 89.3465 124.812H90.0758C90.3118 124.812 90.5212 124.843 90.7012 124.901C90.8838 124.959 91.0372 125.044 91.1639 125.156C91.2905 125.268 91.3852 125.404 91.4519 125.568C91.5186 125.729 91.5505 125.912 91.5505 126.12C91.5505 126.378 91.4959 126.603 91.3879 126.795C91.2786 126.989 91.1278 127.149 90.9345 127.278C90.7412 127.404 90.5119 127.5 90.2465 127.562C89.9812 127.625 89.6919 127.657 89.3799 127.657C89.0625 127.657 88.7812 127.629 88.5332 127.572C88.2879 127.517 88.0812 127.437 87.9145 127.333C87.7492 127.229 87.6238 127.103 87.5372 126.957C87.4518 126.811 87.4092 126.648 87.4092 126.467C87.4092 126.227 87.4839 126.017 87.6332 125.84C87.7839 125.661 87.9799 125.523 88.2212 125.423C88.0719 125.289 87.9972 125.091 87.9972 124.831C87.9972 124.659 88.0385 124.504 88.1225 124.368C88.2039 124.232 88.3172 124.112 88.4612 124.009C88.1919 123.872 87.9839 123.688 87.8359 123.46C87.6879 123.235 87.6145 122.956 87.6145 122.625V122.531C87.6145 122.279 87.6599 122.052 87.7519 121.85C87.8439 121.65 87.9705 121.481 88.1359 121.341C88.3012 121.2 88.4972 121.093 88.7252 121.02C88.9532 120.948 89.2025 120.911 89.4745 120.911C89.5959 120.911 89.7105 120.919 89.8225 120.935C89.9345 120.95 90.0439 120.971 90.1492 120.997H91.5639L91.5732 121.645" fill="white"/>
<path d="M93.5402 120.997V125.776H92.3242V120.997H93.5402ZM93.5402 119.071V120H92.3242V119.071H93.5402Z" fill="white"/>
<path d="M96.7331 124.92C96.9211 124.92 97.0905 124.892 97.2385 124.836C97.3851 124.781 97.5345 124.692 97.6878 124.572L98.0572 125.297C97.9785 125.372 97.8931 125.445 97.7971 125.514C97.6998 125.581 97.5878 125.641 97.4611 125.693C97.3331 125.744 97.1892 125.787 97.0292 125.817C96.8692 125.85 96.6878 125.866 96.4838 125.866C96.1838 125.866 95.9104 125.809 95.6678 125.7C95.4238 125.59 95.2158 125.433 95.0438 125.229C94.8718 125.026 94.7398 124.779 94.6465 124.488C94.5532 124.197 94.5078 123.872 94.5078 123.511V123.261C94.5078 122.917 94.5532 122.602 94.6465 122.314C94.7398 122.026 94.8718 121.779 95.0438 121.571C95.2158 121.363 95.4238 121.2 95.6678 121.085C95.9104 120.968 96.1838 120.911 96.4838 120.911C96.6825 120.911 96.8571 120.926 97.0145 120.955C97.1705 120.981 97.3104 121.02 97.4344 121.069C97.5598 121.117 97.6731 121.178 97.7745 121.247C97.8771 121.316 97.9705 121.392 98.0611 121.471L97.6878 122.204C97.5345 122.084 97.3851 121.996 97.2385 121.94C97.0905 121.884 96.9211 121.856 96.7331 121.856C96.5865 121.856 96.4532 121.893 96.3292 121.968C96.2052 122.043 96.0984 122.145 96.0091 122.276C95.9184 122.405 95.8492 122.56 95.7985 122.738C95.7478 122.912 95.7238 123.102 95.7238 123.302V123.448C95.7238 123.683 95.7478 123.893 95.7985 124.076C95.8492 124.26 95.9171 124.414 96.0064 124.539C96.0958 124.664 96.2011 124.759 96.3251 124.823C96.4478 124.888 96.5838 124.92 96.7331 124.92" fill="white"/>
<path d="M99.6643 123.528C99.6643 123.739 99.6789 123.932 99.7083 124.104C99.7389 124.276 99.7883 124.421 99.8549 124.541C99.9216 124.663 100.008 124.755 100.112 124.821C100.218 124.888 100.343 124.92 100.488 124.92C100.632 124.92 100.755 124.888 100.858 124.821C100.962 124.755 101.047 124.661 101.114 124.54C101.182 124.417 101.231 124.272 101.262 124.102C101.294 123.931 101.31 123.739 101.31 123.528V123.257C101.31 123.088 101.298 122.92 101.271 122.755C101.244 122.588 101.2 122.44 101.138 122.307C101.075 122.176 100.99 122.069 100.884 121.987C100.778 121.905 100.643 121.864 100.479 121.864C100.314 121.864 100.178 121.907 100.072 121.992C99.9656 122.076 99.8829 122.184 99.8229 122.317C99.7629 122.452 99.7216 122.602 99.6976 122.768C99.6749 122.933 99.6643 123.096 99.6643 123.257V123.528ZM98.4482 123.257C98.4509 122.907 98.4976 122.588 98.5883 122.3C98.6816 122.014 98.8122 121.766 98.9842 121.56C99.1562 121.353 99.3669 121.193 99.6189 121.08C99.8683 120.967 100.156 120.911 100.479 120.911C100.81 120.911 101.102 120.971 101.355 121.09C101.608 121.208 101.822 121.372 101.995 121.583C102.168 121.793 102.299 122.041 102.388 122.327C102.476 122.612 102.522 122.921 102.522 123.257V123.528C102.522 123.88 102.475 124.2 102.383 124.487C102.292 124.773 102.159 125.017 101.984 125.224C101.808 125.428 101.596 125.585 101.344 125.697C101.091 125.809 100.806 125.866 100.488 125.866C100.156 125.866 99.8629 125.807 99.6096 125.69C99.3562 125.571 99.1429 125.408 98.9709 125.202C98.7989 124.995 98.6696 124.747 98.5803 124.461C98.4923 124.178 98.4482 123.866 98.4482 123.528V123.257Z" fill="white"/>
<path d="M31.8332 130.079V134.44C31.8332 134.761 31.7839 135.045 31.6825 135.292C31.5825 135.538 31.4412 135.744 31.2599 135.912C31.0772 136.08 30.8585 136.207 30.6025 136.293C30.3465 136.383 30.0625 136.426 29.7532 136.426C29.4585 136.426 29.1865 136.383 28.9371 136.296C28.6878 136.211 28.4732 136.084 28.2932 135.916C28.1119 135.748 27.9705 135.541 27.8718 135.293C27.7705 135.045 27.7212 134.761 27.7212 134.44V130.079H28.2625V134.44C28.2625 134.695 28.2985 134.92 28.3718 135.115C28.4452 135.309 28.5465 135.472 28.6772 135.603C28.8065 135.733 28.9652 135.831 29.1478 135.897C29.3305 135.962 29.5332 135.996 29.7532 135.996C29.9758 135.996 30.1838 135.962 30.3718 135.9C30.5612 135.835 30.7239 135.738 30.8599 135.609C30.9959 135.48 31.1011 135.319 31.1785 135.124C31.2531 134.929 31.2918 134.702 31.2918 134.44V130.079H31.8332" fill="white"/>
<path d="M33.9679 131.75L34.0333 132.495C34.1106 132.376 34.1986 132.267 34.2986 132.166C34.4 132.064 34.5106 131.974 34.632 131.898C34.7546 131.823 34.8866 131.762 35.0279 131.721C35.1693 131.678 35.3199 131.656 35.4812 131.656C35.7306 131.656 35.9426 131.695 36.1173 131.774C36.2919 131.852 36.4346 131.964 36.5452 132.109C36.6546 132.253 36.7373 132.426 36.788 132.626C36.84 132.824 36.8639 133.044 36.8639 133.285V136.336H36.324V133.29C36.324 133.105 36.3039 132.94 36.2679 132.792C36.2306 132.645 36.1733 132.519 36.096 132.416C36.0186 132.314 35.9186 132.235 35.7973 132.179C35.6759 132.123 35.5293 132.093 35.3613 132.093C35.2493 132.093 35.1346 132.112 35.0186 132.148C34.9 132.183 34.7853 132.238 34.6746 132.304C34.5626 132.373 34.456 132.459 34.3546 132.559C34.2546 132.659 34.1653 132.773 34.0839 132.903V136.336H33.5439V131.75H33.9679" fill="white"/>
<path d="M39.0614 136.336H38.52V131.75H39.0614V136.336ZM39.0614 130.235H38.52V129.636H39.0614V130.235Z" fill="white"/>
<path d="M41.8574 135.214L41.9733 135.652H41.996L42.1066 135.214C42.2973 134.632 42.4813 134.053 42.664 133.476C42.8467 132.898 43.0307 132.323 43.22 131.75H43.792L42.176 136.336H41.772L40.1387 131.75H40.7107L41.8574 135.214" fill="white"/>
<path d="M46.3016 132.072C46.1016 132.072 45.9242 132.119 45.7736 132.208C45.6216 132.297 45.4923 132.419 45.3883 132.571C45.2843 132.724 45.2016 132.898 45.1429 133.097C45.0842 133.296 45.0496 133.505 45.0376 133.723H47.4443V133.514C47.4443 133.317 47.4229 133.132 47.3803 132.959C47.3376 132.784 47.2696 132.629 47.1789 132.5C47.0856 132.369 46.9682 132.266 46.8229 132.188C46.6789 132.112 46.5056 132.072 46.3016 132.072V132.072ZM46.4056 136.426C46.0776 136.426 45.7949 136.362 45.5536 136.239C45.3122 136.115 45.1149 135.95 44.9562 135.741C44.7989 135.536 44.6816 135.3 44.6042 135.036C44.5256 134.771 44.4883 134.5 44.4883 134.221V133.891C44.4883 133.626 44.5243 133.357 44.5976 133.093C44.6709 132.828 44.783 132.59 44.9323 132.376C45.083 132.162 45.2736 131.99 45.5029 131.856C45.7323 131.723 46.0029 131.656 46.3136 131.656C46.6243 131.656 46.883 131.709 47.0936 131.817C47.3043 131.924 47.4763 132.071 47.6083 132.255C47.7403 132.44 47.8336 132.659 47.891 132.908C47.9483 133.159 47.9762 133.427 47.9762 133.711V134.127H45.0283C45.0283 134.393 45.0616 134.64 45.1243 134.868C45.1883 135.096 45.2829 135.293 45.4096 135.46C45.5362 135.628 45.699 135.76 45.8963 135.853C46.091 135.95 46.3229 135.995 46.5883 135.992C46.7989 135.985 47.0043 135.95 47.2056 135.883C47.4083 135.815 47.5869 135.721 47.7443 135.602L47.9042 135.95C47.7322 136.095 47.5163 136.211 47.2523 136.296C46.9909 136.383 46.7083 136.426 46.4056 136.426" fill="white"/>
<path d="M51.2174 132.202C51.1574 132.19 51.0948 132.18 51.0295 132.172C50.9655 132.162 50.8921 132.159 50.8081 132.159C50.7028 132.159 50.6014 132.18 50.5067 132.221C50.4094 132.262 50.3214 132.32 50.2427 132.393C50.1614 132.466 50.0881 132.555 50.0241 132.657C49.9615 132.76 49.9068 132.873 49.8628 132.997V136.336H49.3228V131.75H49.7521L49.8161 132.495C49.9401 132.239 50.0961 132.036 50.2854 131.884C50.4734 131.732 50.7108 131.656 50.9935 131.656C51.0455 131.656 51.1028 131.661 51.1655 131.672C51.2295 131.681 51.2774 131.692 51.3121 131.703L51.2174 132.202" fill="white"/>
<path d="M54.2028 135.227C54.2028 135.129 54.1895 135.039 54.1628 134.955C54.1348 134.869 54.0854 134.788 54.0134 134.709C53.9401 134.629 53.8361 134.552 53.7028 134.474C53.5708 134.398 53.3988 134.317 53.1894 134.235C52.9321 134.131 52.7174 134.032 52.5468 133.938C52.3761 133.844 52.2414 133.744 52.1388 133.64C52.0374 133.539 51.9655 133.424 51.9268 133.302C51.8855 133.179 51.8655 133.039 51.8655 132.88C51.8655 132.717 51.8948 132.561 51.9521 132.412C52.0094 132.262 52.0961 132.132 52.2121 132.02C52.3281 131.909 52.4748 131.82 52.6521 131.755C52.8308 131.688 53.0388 131.656 53.2801 131.656C53.4428 131.656 53.5921 131.671 53.7295 131.699C53.8641 131.728 53.9894 131.766 54.1001 131.811C54.2121 131.856 54.3121 131.905 54.4014 131.959C54.4894 132.012 54.5681 132.065 54.6321 132.116L54.5001 132.503C54.3801 132.426 54.2668 132.36 54.1614 132.307C54.0548 132.253 53.9535 132.212 53.8575 132.18C53.7615 132.148 53.6681 132.126 53.5761 132.112C53.4841 132.097 53.3934 132.09 53.3014 132.09C53.1347 132.09 52.9948 132.111 52.8801 132.15C52.7654 132.19 52.6721 132.244 52.6014 132.311C52.5281 132.379 52.4774 132.456 52.4468 132.544C52.4134 132.629 52.3988 132.721 52.3988 132.816C52.3988 132.94 52.4188 133.044 52.4601 133.129C52.5001 133.216 52.5627 133.293 52.6507 133.364C52.7374 133.435 52.8521 133.502 52.9948 133.567C53.1348 133.629 53.3081 133.704 53.5121 133.788C53.7547 133.885 53.9561 133.986 54.1134 134.095C54.2708 134.202 54.3961 134.312 54.4868 134.427C54.5788 134.541 54.6427 134.66 54.6787 134.78C54.7134 134.902 54.7321 135.023 54.7321 135.15C54.7321 135.339 54.7014 135.512 54.6401 135.669C54.5774 135.827 54.4868 135.961 54.3641 136.072C54.2428 136.184 54.0921 136.272 53.9134 136.333C53.7348 136.396 53.5281 136.426 53.2974 136.426C53.1174 136.426 52.9481 136.408 52.7908 136.374C52.6321 136.34 52.4868 136.295 52.3548 136.24C52.2215 136.186 52.1014 136.127 51.9948 136.065C51.8894 136.003 51.7988 135.941 51.7241 135.884L51.8748 135.497C52.0828 135.647 52.3067 135.766 52.5454 135.85C52.7827 135.94 53.0081 135.983 53.2201 135.983C53.4108 135.983 53.5708 135.96 53.6961 135.916C53.8228 135.872 53.9241 135.815 54.0001 135.744C54.0761 135.674 54.1294 135.593 54.1588 135.504C54.1881 135.414 54.2028 135.321 54.2028 135.227" fill="white"/>
<path d="M56.5975 136.336H56.0562V131.75H56.5975V136.336ZM56.5975 130.235H56.0562V129.636H56.5975V130.235Z" fill="white"/>
<path d="M58.5134 134.144C58.5134 134.748 58.6227 135.208 58.8427 135.526C59.0614 135.843 59.3801 136 59.7988 136C60.0681 136 60.2988 135.927 60.4948 135.779C60.6881 135.631 60.8454 135.421 60.9641 135.15V132.974C60.9254 132.867 60.8681 132.759 60.7935 132.653C60.7175 132.547 60.6281 132.453 60.5241 132.369C60.4215 132.286 60.3067 132.219 60.1814 132.168C60.0547 132.116 59.9254 132.09 59.7948 132.09C59.5988 132.09 59.4228 132.127 59.2655 132.204C59.1081 132.28 58.9734 132.393 58.8614 132.544C58.7494 132.693 58.6641 132.88 58.6041 133.102C58.5441 133.324 58.5134 133.58 58.5134 133.873V134.144ZM57.9761 133.873C57.9761 133.561 58.0135 133.271 58.0881 133.002C58.1628 132.732 58.2707 132.497 58.4121 132.297C58.5547 132.099 58.7294 131.943 58.9388 131.828C59.1481 131.714 59.3881 131.656 59.6614 131.656C59.9508 131.656 60.2054 131.721 60.4254 131.853C60.6454 131.985 60.8254 132.155 60.9641 132.36V129.64H61.5041V135.503C61.5041 135.541 61.5081 135.588 61.5174 135.641C61.5254 135.695 61.5388 135.748 61.5561 135.804C61.5734 135.86 61.5948 135.914 61.6228 135.962C61.6494 136.015 61.6841 136.057 61.7241 136.095L61.4534 136.416C61.4121 136.383 61.3694 136.344 61.3228 136.3C61.2774 136.257 61.2348 136.207 61.1921 136.148C61.1508 136.09 61.1148 136.023 61.0801 135.95C61.0481 135.874 61.0241 135.79 61.0108 135.691C60.8641 135.929 60.6815 136.111 60.4601 136.238C60.2401 136.362 59.9708 136.426 59.6561 136.426C59.3908 136.426 59.1534 136.373 58.9454 136.268C58.7374 136.164 58.5614 136.015 58.4161 135.817C58.2721 135.623 58.1628 135.383 58.0881 135.1C58.0135 134.817 57.9761 134.5 57.9761 134.144V133.873" fill="white"/>
<path d="M64.2496 135.966C64.3843 135.966 64.5216 135.944 64.6603 135.9C64.799 135.855 64.9296 135.793 65.0536 135.716C65.1776 135.639 65.2843 135.547 65.3776 135.438C65.4709 135.328 65.5389 135.209 65.5816 135.08V134.115H64.6069C64.3829 134.115 64.1896 134.14 64.0283 134.191C63.8669 134.241 63.7336 134.312 63.627 134.4C63.5216 134.486 63.443 134.591 63.3936 134.709C63.343 134.828 63.3176 134.955 63.3176 135.09C63.3176 135.219 63.3376 135.336 63.3776 135.444C63.4176 135.552 63.4762 135.643 63.5562 135.721C63.6336 135.797 63.7322 135.859 63.8482 135.902C63.9642 135.945 64.0976 135.966 64.2496 135.966V135.966ZM66.0723 136.416C65.9683 136.343 65.8736 136.244 65.7883 136.123C65.7016 136.002 65.6483 135.848 65.6256 135.666C65.5469 135.78 65.4563 135.884 65.3523 135.976C65.2469 136.071 65.1322 136.15 65.0042 136.217C64.8762 136.285 64.7403 136.336 64.5963 136.372C64.451 136.407 64.3016 136.426 64.1469 136.426C63.9496 136.426 63.7656 136.396 63.599 136.336C63.431 136.276 63.2869 136.186 63.1669 136.072C63.0469 135.959 62.9523 135.819 62.8829 135.655C62.8149 135.49 62.7803 135.302 62.7803 135.09C62.7803 134.868 62.8229 134.672 62.9069 134.5C62.9922 134.328 63.1122 134.184 63.2682 134.067C63.4242 133.95 63.6149 133.86 63.8416 133.8C64.0683 133.739 64.3229 133.711 64.6069 133.711H65.5816V133.178C65.5816 133.019 65.5629 132.873 65.5229 132.739C65.4842 132.604 65.4229 132.486 65.3389 132.388C65.2549 132.291 65.1456 132.214 65.0136 132.159C64.8789 132.104 64.7189 132.078 64.5283 132.081C64.4043 132.081 64.2803 132.095 64.1589 132.123C64.0389 132.15 63.9256 132.184 63.8176 132.229C63.7109 132.274 63.6109 132.323 63.5202 132.378C63.4269 132.432 63.3482 132.488 63.2789 132.545L63.0762 132.211C63.1336 132.161 63.2096 132.105 63.3016 132.04C63.3962 131.976 63.5082 131.916 63.6376 131.86C63.7682 131.804 63.9163 131.757 64.0856 131.719C64.2549 131.68 64.4456 131.66 64.6536 131.66C64.8802 131.66 65.0829 131.692 65.2643 131.759C65.4443 131.826 65.599 131.921 65.727 132.05C65.8536 132.178 65.9523 132.335 66.0216 132.523C66.0883 132.714 66.1243 132.931 66.1243 133.178V135.503C66.1243 135.536 66.1283 135.58 66.1336 135.632C66.1403 135.685 66.1536 135.74 66.1709 135.796C66.1882 135.85 66.2109 135.905 66.2402 135.959C66.2682 136.014 66.3016 136.057 66.3429 136.095L66.0723 136.416" fill="white"/>
<path d="M68.0345 134.144C68.0345 134.748 68.1452 135.208 68.3638 135.526C68.5825 135.843 68.9025 136 69.3198 136C69.5892 136 69.8212 135.927 70.0172 135.779C70.2105 135.631 70.3665 135.421 70.4838 135.15V132.974C70.4478 132.867 70.3905 132.759 70.3145 132.653C70.2398 132.547 70.1492 132.453 70.0465 132.369C69.9425 132.286 69.8278 132.219 69.7025 132.168C69.5758 132.116 69.4479 132.09 69.3159 132.09C69.1212 132.09 68.9452 132.127 68.7879 132.204C68.6305 132.28 68.4945 132.393 68.3838 132.544C68.2718 132.693 68.1865 132.88 68.1265 133.102C68.0652 133.324 68.0345 133.58 68.0345 133.873V134.144ZM67.4985 133.873C67.4985 133.561 67.5358 133.271 67.6091 133.002C67.6851 132.732 67.7931 132.497 67.9345 132.297C68.0758 132.099 68.2518 131.943 68.4612 131.828C68.6692 131.714 68.9105 131.656 69.1825 131.656C69.4719 131.656 69.7265 131.721 69.9478 131.853C70.1678 131.985 70.3478 132.155 70.4838 132.36V129.64H71.0252V135.503C71.0252 135.541 71.0305 135.588 71.0385 135.641C71.0478 135.695 71.0598 135.748 71.0772 135.804C71.0945 135.86 71.1172 135.914 71.1438 135.962C71.1718 136.015 71.2052 136.057 71.2438 136.095L70.9731 136.416C70.9345 136.383 70.8919 136.344 70.8465 136.3C70.7985 136.257 70.7558 136.207 70.7145 136.148C70.6732 136.09 70.6345 136.023 70.6025 135.95C70.5705 135.874 70.5465 135.79 70.5319 135.691C70.3852 135.929 70.2025 136.111 69.9812 136.238C69.7612 136.362 69.4931 136.426 69.1785 136.426C68.9105 136.426 68.6745 136.373 68.4665 136.268C68.2598 136.164 68.0825 136.015 67.9385 135.817C67.7945 135.623 67.6851 135.383 67.6091 135.1C67.5358 134.817 67.4985 134.5 67.4985 134.144V133.873" fill="white"/>
<path d="M74.252 132.072C74.052 132.072 73.876 132.119 73.724 132.208C73.5733 132.297 73.4453 132.419 73.3399 132.571C73.2359 132.724 73.1533 132.898 73.0946 133.097C73.036 133.296 73.0013 133.505 72.9893 133.723H75.396V133.514C75.396 133.317 75.3747 133.132 75.332 132.959C75.2893 132.784 75.2213 132.629 75.1306 132.5C75.0373 132.369 74.9186 132.266 74.7759 132.188C74.6306 132.112 74.4573 132.072 74.252 132.072V132.072ZM74.356 136.426C74.0293 136.426 73.7453 136.362 73.5053 136.239C73.2653 136.115 73.0653 135.95 72.9093 135.741C72.7493 135.536 72.632 135.3 72.556 135.036C72.4786 134.771 72.4399 134.5 72.4399 134.221V133.891C72.4399 133.626 72.476 133.357 72.5493 133.093C72.6226 132.828 72.7346 132.59 72.884 132.376C73.0346 132.162 73.224 131.99 73.4547 131.856C73.6827 131.723 73.9533 131.656 74.2653 131.656C74.576 131.656 74.8359 131.709 75.0453 131.817C75.2559 131.924 75.4267 132.071 75.56 132.255C75.6907 132.44 75.7866 132.659 75.844 132.908C75.9013 133.159 75.9293 133.427 75.9293 133.711V134.127H72.9813C72.9813 134.393 73.0133 134.64 73.0759 134.868C73.1373 135.096 73.2346 135.293 73.3613 135.46C73.4893 135.628 73.6506 135.76 73.8466 135.853C74.0426 135.95 74.2746 135.995 74.5413 135.992C74.7493 135.985 74.956 135.95 75.1573 135.883C75.3587 135.815 75.5387 135.721 75.696 135.602L75.856 135.95C75.6853 136.095 75.4666 136.211 75.2053 136.296C74.9426 136.383 74.66 136.426 74.356 136.426" fill="white"/>
<path d="M82.4734 133.448H79.9334V136.336H79.3921V130.079H82.8774V130.5H79.9334V133.027H82.4734V133.448" fill="white"/>
<path d="M85.3305 132.072C85.1305 132.072 84.9545 132.119 84.8012 132.208C84.6505 132.297 84.5212 132.419 84.4172 132.571C84.3119 132.724 84.2318 132.898 84.1732 133.097C84.1145 133.296 84.0785 133.505 84.0678 133.723H86.4732V133.514C86.4732 133.317 86.4532 133.132 86.4092 132.959C86.3665 132.784 86.2985 132.629 86.2079 132.5C86.1159 132.369 85.9972 132.266 85.8532 132.188C85.7079 132.112 85.5332 132.072 85.3305 132.072V132.072ZM85.4345 136.426C85.1065 136.426 84.8239 136.362 84.5826 136.239C84.3426 136.115 84.1426 135.95 83.9852 135.741C83.8279 135.536 83.7105 135.3 83.6332 135.036C83.5559 134.771 83.5186 134.5 83.5186 134.221V133.891C83.5186 133.626 83.5545 133.357 83.6279 133.093C83.6999 132.828 83.8119 132.59 83.9626 132.376C84.1132 132.162 84.3012 131.99 84.5305 131.856C84.7599 131.723 85.0305 131.656 85.3439 131.656C85.6532 131.656 85.9119 131.709 86.1239 131.817C86.3346 131.924 86.5052 132.071 86.6372 132.255C86.7678 132.44 86.8625 132.659 86.9199 132.908C86.9772 133.159 87.0065 133.427 87.0065 133.711V134.127H84.0585C84.0585 134.393 84.0905 134.64 84.1532 134.868C84.2159 135.096 84.3118 135.293 84.4398 135.46C84.5665 135.628 84.7292 135.76 84.9239 135.853C85.1212 135.95 85.3532 135.995 85.6186 135.992C85.8279 135.985 86.0332 135.95 86.2359 135.883C86.4372 135.815 86.6172 135.721 86.7745 135.602L86.9332 135.95C86.7612 136.095 86.5439 136.211 86.2826 136.296C86.0212 136.383 85.7372 136.426 85.4345 136.426" fill="white"/>
<path d="M88.592 134.144C88.592 134.748 88.7013 135.208 88.92 135.526C89.14 135.843 89.4587 136 89.8773 136C90.1453 136 90.3773 135.927 90.5733 135.779C90.768 135.631 90.924 135.421 91.0413 135.15V132.974C91.004 132.867 90.948 132.759 90.872 132.653C90.796 132.547 90.7053 132.453 90.6027 132.369C90.5 132.286 90.3853 132.219 90.2587 132.168C90.132 132.116 90.0053 132.09 89.872 132.09C89.6773 132.09 89.5013 132.127 89.344 132.204C89.1867 132.28 89.052 132.393 88.94 132.544C88.828 132.693 88.7427 132.88 88.6827 133.102C88.6227 133.324 88.592 133.58 88.592 133.873V134.144ZM88.0547 133.873C88.0547 133.561 88.092 133.271 88.1667 133.002C88.2413 132.732 88.3494 132.497 88.4907 132.297C88.632 132.099 88.808 131.943 89.0187 131.828C89.2267 131.714 89.4666 131.656 89.74 131.656C90.028 131.656 90.284 131.721 90.504 131.853C90.7253 131.985 90.904 132.155 91.0413 132.36V129.64H91.5827V135.503C91.5827 135.541 91.5867 135.588 91.596 135.641C91.604 135.695 91.6173 135.748 91.6333 135.804C91.6507 135.86 91.6747 135.914 91.7 135.962C91.728 136.015 91.7613 136.057 91.8013 136.095L91.5307 136.416C91.4907 136.383 91.448 136.344 91.4027 136.3C91.356 136.257 91.312 136.207 91.2706 136.148C91.2293 136.09 91.192 136.023 91.16 135.95C91.1267 135.874 91.1027 135.79 91.088 135.691C90.9427 135.929 90.7587 136.111 90.5387 136.238C90.3173 136.362 90.0507 136.426 89.736 136.426C89.468 136.426 89.232 136.373 89.0227 136.268C88.816 136.164 88.64 136.015 88.4947 135.817C88.352 135.623 88.2413 135.383 88.1667 135.1C88.092 134.817 88.0547 134.5 88.0547 134.144V133.873" fill="white"/>
<path d="M94.809 132.072C94.609 132.072 94.4331 132.119 94.2811 132.208C94.1304 132.297 94.0011 132.419 93.8971 132.571C93.7917 132.724 93.7104 132.898 93.6518 133.097C93.5931 133.296 93.5584 133.505 93.5464 133.723H95.9531V133.514C95.9531 133.317 95.9318 133.132 95.8878 132.959C95.8464 132.784 95.7784 132.629 95.6878 132.5C95.5944 132.369 95.4758 132.266 95.3318 132.188C95.1878 132.112 95.013 132.072 94.809 132.072V132.072ZM94.9131 136.426C94.5851 136.426 94.3024 136.362 94.0624 136.239C93.8211 136.115 93.6224 135.95 93.4651 135.741C93.3064 135.536 93.1891 135.3 93.1131 135.036C93.0344 134.771 92.9971 134.5 92.9971 134.221V133.891C92.9971 133.626 93.033 133.357 93.1064 133.093C93.1797 132.828 93.2917 132.59 93.4411 132.376C93.5917 132.162 93.7811 131.99 94.0104 131.856C94.2398 131.723 94.5104 131.656 94.8224 131.656C95.1317 131.656 95.3917 131.709 95.6024 131.817C95.8131 131.924 95.9837 132.071 96.1171 132.255C96.2464 132.44 96.3424 132.659 96.3997 132.908C96.4571 133.159 96.4851 133.427 96.4851 133.711V134.127H93.537C93.537 134.393 93.5704 134.64 93.6318 134.868C93.6944 135.096 93.7918 135.293 93.9184 135.46C94.0451 135.628 94.2077 135.76 94.4037 135.853C94.5997 135.95 94.8317 135.995 95.0971 135.992C95.3064 135.985 95.5131 135.95 95.7144 135.883C95.9157 135.815 96.0957 135.721 96.2531 135.602L96.4117 135.95C96.2411 136.095 96.0224 136.211 95.7611 136.296C95.4997 136.383 95.2158 136.426 94.9131 136.426" fill="white"/>
<path d="M99.7252 132.202C99.6652 132.19 99.6026 132.18 99.5386 132.172C99.4732 132.162 99.4012 132.159 99.3172 132.159C99.2106 132.159 99.1106 132.18 99.0146 132.221C98.9186 132.262 98.8306 132.32 98.7493 132.393C98.6693 132.466 98.5972 132.555 98.5332 132.657C98.4679 132.76 98.4146 132.873 98.3719 132.997V136.336H97.8306V131.75H98.2599L98.3252 132.495C98.4479 132.239 98.6039 132.036 98.7933 131.884C98.9813 131.732 99.2186 131.656 99.5026 131.656C99.5532 131.656 99.6106 131.661 99.6746 131.672C99.7372 131.681 99.7866 131.692 99.8199 131.703L99.7252 132.202" fill="white"/>
<path d="M101.754 135.966C101.888 135.966 102.026 135.944 102.164 135.9C102.303 135.855 102.435 135.793 102.558 135.716C102.682 135.639 102.79 135.547 102.882 135.438C102.975 135.328 103.043 135.209 103.086 135.08V134.115H102.111C101.888 134.115 101.695 134.14 101.532 134.191C101.371 134.241 101.238 134.312 101.131 134.4C101.024 134.486 100.947 134.591 100.898 134.709C100.847 134.828 100.822 134.955 100.822 135.09C100.822 135.219 100.842 135.336 100.882 135.444C100.922 135.552 100.982 135.643 101.06 135.721C101.138 135.797 101.238 135.859 101.352 135.902C101.468 135.945 101.602 135.966 101.754 135.966V135.966ZM103.576 136.416C103.472 136.343 103.378 136.244 103.292 136.123C103.206 136.002 103.152 135.848 103.13 135.666C103.052 135.78 102.962 135.884 102.856 135.976C102.751 136.071 102.635 136.15 102.508 136.217C102.38 136.285 102.244 136.336 102.1 136.372C101.956 136.407 101.806 136.426 101.651 136.426C101.454 136.426 101.271 136.396 101.103 136.336C100.935 136.276 100.792 136.186 100.672 136.072C100.551 135.959 100.456 135.819 100.388 135.655C100.319 135.49 100.284 135.302 100.284 135.09C100.284 134.868 100.327 134.672 100.411 134.5C100.496 134.328 100.616 134.184 100.772 134.067C100.928 133.95 101.12 133.86 101.347 133.8C101.572 133.739 101.827 133.711 102.111 133.711H103.086V133.178C103.086 133.019 103.067 132.873 103.028 132.739C102.99 132.604 102.927 132.486 102.844 132.388C102.759 132.291 102.65 132.214 102.518 132.159C102.383 132.104 102.223 132.078 102.034 132.081C101.908 132.081 101.784 132.095 101.664 132.123C101.544 132.15 101.43 132.184 101.323 132.229C101.215 132.274 101.115 132.323 101.023 132.378C100.932 132.432 100.852 132.488 100.783 132.545L100.58 132.211C100.638 132.161 100.714 132.105 100.807 132.04C100.9 131.976 101.012 131.916 101.142 131.86C101.272 131.804 101.422 131.757 101.591 131.719C101.76 131.68 101.95 131.66 102.158 131.66C102.384 131.66 102.587 131.692 102.768 131.759C102.948 131.826 103.103 131.921 103.231 132.05C103.356 132.178 103.456 132.335 103.524 132.523C103.594 132.714 103.628 132.931 103.628 133.178V135.503C103.628 135.536 103.632 135.58 103.637 135.632C103.645 135.685 103.658 135.74 103.675 135.796C103.692 135.85 103.715 135.905 103.743 135.959C103.772 136.014 103.807 136.057 103.847 136.095L103.576 136.416" fill="white"/>
<path d="M105.295 129.636H105.836V135.317C105.836 135.44 105.843 135.544 105.855 135.628C105.864 135.714 105.886 135.781 105.914 135.835C105.943 135.888 105.978 135.926 106.022 135.95C106.064 135.971 106.119 135.983 106.186 135.983C106.239 135.983 106.287 135.978 106.328 135.966C106.37 135.955 106.41 135.941 106.451 135.927L106.523 136.3C106.459 136.341 106.38 136.372 106.29 136.393C106.199 136.415 106.108 136.426 106.018 136.426C105.916 136.426 105.822 136.408 105.734 136.374C105.644 136.34 105.568 136.281 105.503 136.195C105.439 136.112 105.388 136 105.351 135.86C105.314 135.721 105.295 135.547 105.295 135.335V129.636" fill="white"/>
<path d="M35.6376 144.704C35.6376 145.31 35.7469 145.769 35.9669 146.085C36.1869 146.403 36.5056 146.561 36.9229 146.561C37.1923 146.561 37.4242 146.487 37.6202 146.34C37.8136 146.192 37.9696 145.981 38.0883 145.711V143.536C38.0509 143.427 37.9936 143.32 37.9176 143.214C37.8429 143.108 37.7523 143.014 37.6496 142.929C37.5469 142.847 37.4323 142.78 37.3056 142.728C37.1803 142.678 37.0509 142.651 36.9189 142.651C36.7243 142.651 36.5483 142.688 36.391 142.764C36.2336 142.841 36.0989 142.953 35.9869 143.104C35.8749 143.255 35.7896 143.44 35.7296 143.663C35.6696 143.885 35.6376 144.141 35.6376 144.434V144.704ZM35.1016 144.434C35.1016 144.123 35.1376 143.831 35.2136 143.563C35.2883 143.292 35.3962 143.059 35.5376 142.859C35.6802 142.66 35.8549 142.503 36.0643 142.388C36.2736 142.274 36.5136 142.216 36.7869 142.216C37.0762 142.216 37.3309 142.283 37.5509 142.414C37.7709 142.547 37.9509 142.715 38.0883 142.922V140.202H38.6296V146.063C38.6296 146.103 38.6323 146.148 38.6416 146.202C38.6509 146.255 38.6642 146.31 38.6816 146.366C38.6976 146.422 38.7203 146.473 38.7469 146.524C38.7749 146.573 38.8083 146.619 38.8496 146.656L38.5776 146.978C38.5376 146.943 38.4949 146.904 38.4482 146.861C38.4029 146.819 38.3589 146.768 38.3176 146.71C38.2762 146.651 38.2403 146.583 38.2056 146.51C38.1736 146.435 38.1496 146.348 38.1349 146.251C37.9896 146.49 37.8056 146.672 37.5842 146.796C37.3642 146.923 37.0962 146.987 36.7816 146.987C36.5162 146.987 36.2789 146.935 36.0709 146.829C35.8616 146.726 35.6869 146.574 35.5416 146.378C35.3976 146.181 35.2883 145.943 35.2136 145.661C35.1376 145.379 35.1016 145.06 35.1016 144.704V144.434" fill="white"/>
<path d="M40.5824 144.778C40.5824 145.015 40.6117 145.243 40.6677 145.46C40.7237 145.679 40.8064 145.869 40.9184 146.034C41.0304 146.199 41.1691 146.331 41.3331 146.427C41.4984 146.524 41.6904 146.574 41.9104 146.574C42.1304 146.574 42.3198 146.527 42.4851 146.435C42.6504 146.341 42.7878 146.215 42.8984 146.055C43.0078 145.893 43.0904 145.705 43.1464 145.491C43.2024 145.276 43.2318 145.047 43.2318 144.803V144.485C43.2318 144.216 43.1984 143.967 43.1357 143.739C43.0731 143.514 42.9837 143.316 42.8664 143.151C42.7517 142.987 42.6117 142.857 42.4491 142.767C42.2864 142.675 42.1037 142.628 41.9037 142.628C41.6904 142.628 41.5037 142.675 41.3411 142.767C41.1771 142.857 41.0384 142.986 40.9277 143.148C40.8157 143.312 40.7304 143.508 40.6717 143.736C40.6131 143.963 40.5824 144.214 40.5824 144.485V144.778ZM40.0464 144.485C40.0411 144.184 40.0771 143.897 40.1584 143.624C40.2397 143.35 40.3571 143.11 40.5157 142.9C40.6731 142.69 40.8677 142.524 41.101 142.402C41.3357 142.279 41.6024 142.216 41.9037 142.216C42.197 142.216 42.4611 142.276 42.6904 142.393C42.9211 142.511 43.117 142.672 43.2757 142.876C43.4344 143.08 43.5571 143.32 43.6411 143.596C43.7264 143.871 43.7677 144.168 43.7677 144.485V144.803C43.7677 145.114 43.7277 145.402 43.645 145.667C43.5637 145.934 43.4437 146.166 43.2864 146.361C43.1291 146.557 42.9344 146.711 42.7037 146.82C42.473 146.931 42.2091 146.987 41.9104 146.987C41.6144 146.987 41.3491 146.931 41.1197 146.82C40.8877 146.711 40.693 146.557 40.5344 146.361C40.3744 146.166 40.2544 145.932 40.1717 145.663C40.0877 145.393 40.0464 145.099 40.0464 144.778V144.485" fill="white"/>
<path d="M50.4709 143.845H47.8069V146.474H50.9443V146.896H47.2656V140.639H50.8883V141.061H47.8069V143.424H50.4709V143.845" fill="white"/>
<path d="M54.232 145.788C54.232 145.69 54.2173 145.599 54.1893 145.515C54.1639 145.429 54.1132 145.348 54.0399 145.269C53.9666 145.191 53.8639 145.114 53.7306 145.035C53.5973 144.959 53.4266 144.878 53.2173 144.793C52.9599 144.691 52.7439 144.593 52.5759 144.499C52.4039 144.404 52.2679 144.304 52.1666 144.202C52.0653 144.099 51.9946 143.985 51.9546 143.861C51.9133 143.739 51.8933 143.599 51.8933 143.441C51.8933 143.279 51.9212 143.123 51.9786 142.972C52.0359 142.824 52.1239 142.693 52.2399 142.581C52.3546 142.469 52.5026 142.381 52.6799 142.315C52.8573 142.25 53.0679 142.216 53.3066 142.216C53.4706 142.216 53.6199 142.232 53.7559 142.26C53.8933 142.29 54.0173 142.326 54.1279 142.371C54.2399 142.416 54.34 142.466 54.4293 142.519C54.5186 142.572 54.5946 142.626 54.6613 142.678L54.5279 143.063C54.4079 142.985 54.2946 142.92 54.188 142.867C54.0813 142.815 53.9813 142.772 53.8853 142.74C53.7893 142.71 53.6946 142.686 53.6039 142.672C53.5132 142.657 53.42 142.651 53.3293 142.651C53.1626 142.651 53.0213 142.671 52.9079 142.711C52.7933 142.751 52.7 142.804 52.6293 142.872C52.5573 142.94 52.5052 143.016 52.4732 143.104C52.4426 143.191 52.4266 143.283 52.4266 143.378C52.4266 143.5 52.4466 143.604 52.4866 143.69C52.5266 143.776 52.5906 143.853 52.6786 143.924C52.7652 143.995 52.88 144.063 53.0213 144.126C53.164 144.191 53.3359 144.266 53.5386 144.348C53.7826 144.445 53.9839 144.548 54.1399 144.655C54.2986 144.763 54.4226 144.874 54.516 144.988C54.6066 145.103 54.6706 145.22 54.7053 145.341C54.7426 145.46 54.76 145.584 54.76 145.711C54.76 145.9 54.7292 146.072 54.6679 146.231C54.6052 146.388 54.5146 146.522 54.3933 146.634C54.2706 146.745 54.1199 146.832 53.9413 146.893C53.7626 146.956 53.5573 146.987 53.3253 146.987C53.1439 146.987 52.9746 146.968 52.8173 146.935C52.6599 146.902 52.5146 146.856 52.3812 146.802C52.2479 146.747 52.1293 146.688 52.0226 146.626C51.9159 146.563 51.8266 146.503 51.752 146.445L51.9026 146.059C52.1119 146.207 52.3346 146.326 52.5732 146.412C52.8092 146.5 53.0346 146.544 53.2466 146.544C53.4386 146.544 53.5986 146.522 53.724 146.476C53.8506 146.432 53.952 146.375 54.0266 146.304C54.1026 146.235 54.1559 146.155 54.1866 146.065C54.2159 145.974 54.232 145.883 54.232 145.788" fill="white"/>
<path d="M59.0706 144.545C59.0706 144.247 59.0413 143.981 58.9853 143.745C58.9293 143.512 58.8466 143.312 58.7373 143.15C58.6266 142.989 58.492 142.866 58.3333 142.78C58.1746 142.693 57.9907 142.65 57.7853 142.65C57.516 142.65 57.2826 142.727 57.084 142.879C56.8866 143.029 56.732 143.24 56.62 143.511V145.672C56.6546 145.78 56.7093 145.888 56.7866 145.993C56.8613 146.1 56.952 146.195 57.0573 146.28C57.1613 146.364 57.276 146.432 57.4026 146.484C57.528 146.535 57.6586 146.561 57.7946 146.561C57.9786 146.561 58.1506 146.525 58.3066 146.459C58.4639 146.389 58.5973 146.285 58.7106 146.145C58.824 146.008 58.9106 145.833 58.9746 145.625C59.0386 145.419 59.0706 145.176 59.0706 144.898V144.545ZM59.6066 144.898C59.6066 145.192 59.5693 145.468 59.4933 145.723C59.416 145.978 59.3066 146.197 59.164 146.385C59.0213 146.571 58.8466 146.717 58.6373 146.825C58.4293 146.932 58.1946 146.986 57.9346 146.986C57.6399 146.986 57.3813 146.924 57.16 146.799C56.9373 146.674 56.7573 146.509 56.62 146.303V148.739H56.0786V142.311H56.5L56.5733 142.976C56.8799 142.469 57.3307 142.216 57.9267 142.216C58.192 142.216 58.4306 142.272 58.6399 142.383C58.8493 142.492 59.0253 142.649 59.1693 142.852C59.312 143.056 59.42 143.3 59.4946 143.586C59.5706 143.873 59.6066 144.192 59.6066 144.545V144.898" fill="white"/>
<path d="M61.5306 146.896H60.9946V142.311H61.5306V146.896ZM61.9653 140.219H62.7187L61.244 141.645H60.8267L61.9653 140.219" fill="white"/>
<path d="M65.1066 142.762C65.0466 142.75 64.9839 142.74 64.9199 142.732C64.8546 142.724 64.7826 142.719 64.6986 142.719C64.5933 142.719 64.492 142.739 64.396 142.781C64.2986 142.823 64.212 142.88 64.132 142.953C64.052 143.025 63.9786 143.115 63.9133 143.217C63.8506 143.32 63.7973 143.435 63.7533 143.557V146.896H63.2119V142.311H63.6413L63.7053 143.055C63.8293 142.799 63.9853 142.596 64.1746 142.444C64.3639 142.292 64.5999 142.216 64.8839 142.216C64.9346 142.216 64.9919 142.221 65.0559 142.232C65.1186 142.241 65.1666 142.252 65.2012 142.264L65.1066 142.762" fill="white"/>
<path d="M66.7014 146.896H66.1602V142.311H66.7014V146.896ZM66.7014 140.793H66.1602V140.197H66.7014V140.793Z" fill="white"/>
<path d="M68.9999 141.147V142.311H70.0398V142.715H68.9999V145.844C68.9999 145.984 69.0145 146.099 69.0412 146.19C69.0679 146.28 69.1039 146.351 69.1479 146.404C69.1919 146.457 69.2452 146.493 69.3065 146.514C69.3692 146.533 69.4345 146.544 69.5025 146.544C69.5852 146.544 69.6745 146.529 69.7665 146.503C69.8599 146.476 69.9399 146.445 70.0052 146.41L70.0865 146.784C70.0532 146.807 70.0092 146.831 69.9546 146.855C69.8999 146.88 69.8412 146.902 69.7758 146.919C69.7105 146.939 69.6425 146.955 69.5719 146.967C69.4999 146.979 69.4265 146.987 69.3532 146.987C69.1972 146.987 69.0639 146.959 68.9505 146.905C68.8385 146.853 68.7439 146.779 68.6719 146.68C68.5985 146.58 68.5439 146.46 68.5105 146.32C68.4759 146.18 68.4585 146.022 68.4585 145.848V142.715H67.7705V142.311H68.4585V141.147H68.9999" fill="white"/>
<path d="M71.3586 144.778C71.3586 145.015 71.3866 145.243 71.4426 145.46C71.4986 145.679 71.5826 145.869 71.6933 146.034C71.8053 146.199 71.9439 146.331 72.1092 146.427C72.2732 146.524 72.4653 146.574 72.688 146.574C72.9053 146.574 73.096 146.527 73.26 146.435C73.4253 146.341 73.5626 146.215 73.6732 146.055C73.7839 145.893 73.8666 145.705 73.9213 145.491C73.9773 145.276 74.0066 145.047 74.0066 144.803V144.485C74.0066 144.216 73.9733 143.967 73.9106 143.739C73.8493 143.514 73.7586 143.316 73.6426 143.151C73.5266 142.987 73.388 142.857 73.224 142.767C73.0613 142.675 72.8786 142.628 72.6786 142.628C72.4652 142.628 72.2786 142.675 72.1159 142.767C71.9519 142.857 71.8146 142.986 71.7026 143.148C71.5906 143.312 71.5052 143.508 71.4479 143.736C71.3879 143.963 71.3586 144.214 71.3586 144.485V144.778ZM70.8213 144.485C70.816 144.184 70.8546 143.897 70.9333 143.624C71.0146 143.35 71.132 143.11 71.2906 142.9C71.448 142.69 71.6426 142.524 71.8773 142.402C72.1106 142.279 72.3772 142.216 72.6786 142.216C72.9732 142.216 73.2373 142.276 73.4653 142.393C73.6973 142.511 73.892 142.672 74.052 142.876C74.2106 143.08 74.3319 143.32 74.4159 143.596C74.5013 143.871 74.5426 144.168 74.5426 144.485V144.803C74.5426 145.114 74.5026 145.402 74.4199 145.667C74.3386 145.934 74.2186 146.166 74.0626 146.361C73.904 146.557 73.7106 146.711 73.4786 146.82C73.2479 146.931 72.984 146.987 72.688 146.987C72.3893 146.987 72.1253 146.931 71.8946 146.82C71.6639 146.711 71.4679 146.557 71.3092 146.361C71.1506 146.166 71.0293 145.932 70.9466 145.663C70.8626 145.393 70.8213 145.099 70.8213 144.778V144.485" fill="white"/>
<path d="M79.5109 143.966C79.1883 143.845 78.9136 143.721 78.6936 143.591C78.4736 143.462 78.2963 143.325 78.1589 143.18C78.0229 143.033 77.9256 142.876 77.8669 142.708C77.8083 142.541 77.7789 142.356 77.7789 142.156C77.7789 141.919 77.8216 141.7 77.9083 141.504C77.9936 141.305 78.1136 141.135 78.2669 140.995C78.4189 140.852 78.6043 140.741 78.8189 140.666C79.0336 140.588 79.2709 140.549 79.5283 140.549C79.7403 140.549 79.9349 140.568 80.1122 140.603C80.2909 140.639 80.4536 140.686 80.6042 140.747C80.7549 140.807 80.8922 140.878 81.0149 140.956C81.1376 141.033 81.2496 141.117 81.3509 141.203L81.1616 141.576C81.0723 141.499 80.9669 141.425 80.8469 141.355C80.7269 141.285 80.5962 141.223 80.4562 141.168C80.3149 141.115 80.1669 141.071 80.0122 141.039C79.8549 141.008 79.6963 140.992 79.5363 140.992C79.3483 140.992 79.1776 141.016 79.0243 141.068C78.8736 141.117 78.7442 141.191 78.6402 141.289C78.5362 141.385 78.4563 141.505 78.399 141.647C78.3416 141.789 78.3122 141.95 78.3122 142.129C78.3122 142.292 78.3403 142.432 78.3963 142.556C78.4523 142.68 78.5403 142.793 78.6616 142.9C78.7843 143.005 78.9403 143.107 79.1309 143.2C79.3203 143.295 79.5496 143.395 79.8149 143.497C80.1202 143.609 80.3762 143.728 80.5842 143.853C80.7949 143.979 80.9643 144.117 81.0936 144.264C81.2243 144.411 81.3176 144.572 81.3749 144.749C81.4323 144.925 81.4616 145.121 81.4616 145.336C81.4616 145.568 81.4163 145.785 81.3256 145.985C81.2363 146.185 81.1083 146.359 80.9443 146.508C80.7789 146.655 80.5803 146.771 80.3523 146.855C80.1203 146.94 79.8643 146.981 79.5829 146.981C79.3776 146.981 79.1803 146.961 78.991 146.921C78.8016 146.881 78.6256 146.828 78.463 146.762C78.299 146.696 78.1482 146.623 78.0096 146.537C77.8696 146.453 77.7469 146.366 77.6416 146.278L77.8443 145.9C77.9096 145.959 78.0016 146.025 78.1189 146.099C78.2363 146.172 78.3696 146.24 78.5216 146.304C78.6749 146.369 78.8403 146.423 79.0189 146.466C79.1976 146.509 79.3829 146.531 79.5762 146.531C79.7909 146.531 79.9816 146.499 80.1482 146.435C80.3162 146.369 80.4589 146.284 80.5762 146.174C80.6936 146.065 80.7842 145.939 80.8456 145.793C80.9069 145.649 80.9376 145.497 80.9376 145.336C80.9376 145.201 80.9176 145.076 80.8789 144.96C80.8416 144.844 80.7683 144.732 80.6643 144.621C80.5603 144.511 80.4149 144.403 80.2309 144.296C80.0456 144.189 79.8056 144.08 79.5109 143.966" fill="white"/>
<path d="M83.8546 146.526C83.9893 146.526 84.1266 146.505 84.2653 146.459C84.4039 146.415 84.5346 146.353 84.6586 146.278C84.7812 146.2 84.8893 146.107 84.9826 145.998C85.0759 145.89 85.1426 145.771 85.1879 145.64V144.675H84.2106C83.9879 144.675 83.7959 144.7 83.6332 144.752C83.4706 144.803 83.3386 144.872 83.2319 144.96C83.1266 145.048 83.0479 145.151 82.9972 145.269C82.9479 145.388 82.9213 145.515 82.9213 145.65C82.9213 145.779 82.9426 145.898 82.9826 146.005C83.0226 146.112 83.0812 146.204 83.1612 146.281C83.2399 146.359 83.3372 146.419 83.4532 146.461C83.5692 146.505 83.7026 146.526 83.8546 146.526V146.526ZM85.6772 146.978C85.5746 146.904 85.4786 146.804 85.3933 146.683C85.3066 146.563 85.2519 146.408 85.2293 146.227C85.1519 146.341 85.0613 146.444 84.9573 146.538C84.8533 146.629 84.7372 146.711 84.6092 146.779C84.4812 146.845 84.3452 146.898 84.1999 146.932C84.0559 146.968 83.9066 146.987 83.7519 146.987C83.5546 146.987 83.3705 146.956 83.2039 146.896C83.0359 146.836 82.8919 146.748 82.7719 146.634C82.6506 146.519 82.5573 146.38 82.4879 146.215C82.4186 146.051 82.3853 145.862 82.3853 145.65C82.3853 145.429 82.4265 145.233 82.5119 145.061C82.5959 144.89 82.7159 144.744 82.8719 144.627C83.0279 144.511 83.2199 144.422 83.4466 144.36C83.6732 144.3 83.9279 144.271 84.2106 144.271H85.1879V143.738C85.1879 143.58 85.1679 143.435 85.1293 143.299C85.0893 143.166 85.0279 143.048 84.9439 142.95C84.8586 142.85 84.7506 142.773 84.6172 142.719C84.4839 142.666 84.3226 142.639 84.1332 142.641C84.0079 142.641 83.8852 142.656 83.7639 142.681C83.6439 142.711 83.5306 142.745 83.4226 142.791C83.3146 142.835 83.2159 142.884 83.1252 142.939C83.0319 142.993 82.9532 143.05 82.8839 143.107L82.6826 142.771C82.7399 142.723 82.8146 142.666 82.9079 142.602C82.9999 142.536 83.1119 142.476 83.2425 142.42C83.3719 142.364 83.5213 142.317 83.6906 142.279C83.8599 142.239 84.0492 142.222 84.2586 142.222C84.4839 142.222 84.6879 142.253 84.8692 142.32C85.0492 142.386 85.2026 142.481 85.3306 142.61C85.4586 142.738 85.5572 142.896 85.6252 143.084C85.6932 143.274 85.7293 143.492 85.7293 143.738V146.063C85.7293 146.096 85.7319 146.14 85.7399 146.193C85.7452 146.247 85.7572 146.3 85.7759 146.356C85.7932 146.412 85.8146 146.467 85.8439 146.52C85.8719 146.572 85.9079 146.619 85.9479 146.656L85.6772 146.978" fill="white"/>
<path d="M87.8252 142.311L87.8906 143.055C87.9666 142.937 88.0559 142.828 88.1559 142.727C88.2559 142.625 88.3666 142.535 88.4892 142.459C88.6106 142.384 88.7426 142.324 88.8853 142.281C89.0253 142.237 89.1772 142.216 89.3386 142.216C89.5866 142.216 89.7985 142.256 89.9732 142.335C90.1479 142.413 90.2919 142.525 90.4012 142.669C90.5119 142.815 90.5919 142.986 90.6439 143.184C90.6946 143.385 90.7213 143.604 90.7213 143.845V146.896H90.1799V143.848C90.1799 143.667 90.1612 143.501 90.1252 143.352C90.0866 143.205 90.0292 143.08 89.9532 142.976C89.8746 142.873 89.7759 142.793 89.6532 142.739C89.5319 142.681 89.3866 142.655 89.2172 142.655C89.1066 142.655 88.9919 142.673 88.8732 142.708C88.7559 142.744 88.6413 142.796 88.5293 142.866C88.4186 142.935 88.3119 143.017 88.2119 143.12C88.1119 143.219 88.0212 143.333 87.9412 143.462V146.896H87.3999V142.311H87.8252" fill="white"/>
<path d="M92.9949 141.147V142.311H94.0336V142.715H92.9949V145.844C92.9949 145.984 93.0082 146.099 93.0349 146.19C93.0629 146.28 93.0989 146.351 93.1429 146.404C93.1882 146.457 93.2402 146.493 93.3016 146.514C93.3629 146.533 93.4283 146.544 93.4976 146.544C93.5803 146.544 93.6683 146.529 93.7616 146.503C93.8549 146.476 93.9336 146.445 94.0003 146.41L94.0816 146.784C94.0469 146.807 94.0029 146.831 93.9482 146.855C93.8936 146.88 93.8349 146.902 93.7709 146.919C93.7056 146.939 93.6376 146.955 93.5669 146.967C93.4949 146.979 93.4216 146.987 93.3469 146.987C93.1923 146.987 93.0589 146.959 92.9456 146.905C92.8322 146.853 92.7403 146.779 92.6656 146.68C92.5923 146.58 92.5389 146.46 92.5056 146.32C92.4696 146.18 92.4536 146.022 92.4536 145.848V142.715H91.7656V142.311H92.4536V141.147H92.9949" fill="white"/>
<path d="M95.3546 144.778C95.3546 145.015 95.3812 145.243 95.4372 145.46C95.4932 145.679 95.5759 145.869 95.6879 146.034C95.7999 146.199 95.9386 146.331 96.1039 146.427C96.2679 146.524 96.4612 146.574 96.6812 146.574C96.8986 146.574 97.0906 146.527 97.2546 146.435C97.4186 146.341 97.5572 146.215 97.6679 146.055C97.7785 145.893 97.8599 145.705 97.9159 145.491C97.9719 145.276 97.9999 145.047 97.9999 144.803V144.485C97.9999 144.216 97.9679 143.967 97.9066 143.739C97.8439 143.514 97.7532 143.316 97.6372 143.151C97.5212 142.987 97.3813 142.857 97.2186 142.767C97.0546 142.675 96.8732 142.628 96.6732 142.628C96.4612 142.628 96.2732 142.675 96.1092 142.767C95.9466 142.857 95.8092 142.986 95.6972 143.148C95.5852 143.312 95.4999 143.508 95.4413 143.736C95.3826 143.963 95.3546 144.214 95.3546 144.485V144.778ZM94.8159 144.485C94.8106 144.184 94.8479 143.897 94.9279 143.624C95.0079 143.35 95.1279 143.11 95.2853 142.9C95.4426 142.69 95.6372 142.524 95.8706 142.402C96.1039 142.279 96.3719 142.216 96.6732 142.216C96.9666 142.216 97.2306 142.276 97.4612 142.393C97.6919 142.511 97.8866 142.672 98.0452 142.876C98.2039 143.08 98.3266 143.32 98.4106 143.596C98.4946 143.871 98.5372 144.168 98.5372 144.485V144.803C98.5372 145.114 98.4972 145.402 98.4146 145.667C98.3332 145.934 98.2133 146.166 98.0573 146.361C97.8986 146.557 97.7039 146.711 97.4732 146.82C97.2426 146.931 96.9786 146.987 96.6812 146.987C96.3826 146.987 96.1199 146.931 95.8879 146.82C95.6573 146.711 95.4639 146.557 95.3039 146.361C95.1452 146.166 95.0226 145.932 94.9413 145.663C94.8573 145.393 94.8159 145.099 94.8159 144.778V144.485" fill="white"/>
<path d="M88.8706 49.6201V49.6414L89.2053 49.7267L91.1213 50.3054V48.9574L89.2053 49.5374L88.8706 49.6201Z" fill="white"/>
<path d="M88.4893 40.4241C88.4893 40.7641 88.6333 41.0281 88.9199 41.2121C89.2066 41.3974 89.6386 41.4907 90.2173 41.4907H90.5173C91.1426 41.4907 91.6146 41.4054 91.9279 41.2361C92.2413 41.0681 92.3973 40.7961 92.3973 40.4201C92.3973 40.0707 92.2546 39.8001 91.9706 39.6081C91.6866 39.4147 91.2519 39.3187 90.6666 39.3187H90.1853C89.62 39.3187 89.1946 39.4174 88.9119 39.6134C88.6306 39.8094 88.4893 40.0787 88.4893 40.4241Z" fill="white"/>
<path d="M92.1815 34.7095C92.3495 34.7868 92.4935 34.8961 92.6188 35.0375C92.7428 35.1788 92.8388 35.3468 92.9082 35.5428C92.9775 35.7401 93.0135 35.9548 93.0135 36.1881C93.0135 36.3655 92.9988 36.5335 92.9681 36.6921C92.9388 36.8508 92.8988 37.0015 92.8468 37.1415C92.7962 37.2801 92.7335 37.4108 92.6629 37.5281C92.5909 37.6468 92.5161 37.7535 92.4348 37.8495L91.9162 37.5255C91.9895 37.4468 92.0548 37.3548 92.1121 37.2495C92.1695 37.1455 92.2189 37.0361 92.2575 36.9215C92.2989 36.8068 92.3295 36.6908 92.3522 36.5735C92.3722 36.4561 92.3841 36.3441 92.3841 36.2361C92.3841 36.0961 92.3655 35.9721 92.3282 35.8655C92.2935 35.7575 92.2415 35.6668 92.1761 35.5935C92.1108 35.5188 92.0321 35.4628 91.9428 35.4241C91.8548 35.3855 91.7561 35.3668 91.6508 35.3668C91.5455 35.3668 91.4521 35.3801 91.3708 35.4068C91.2895 35.4361 91.2148 35.4828 91.1468 35.5521C91.0788 35.6215 91.0175 35.7135 90.9602 35.8321C90.9029 35.9508 90.8468 36.1001 90.7922 36.2841C90.7015 36.5788 90.6015 36.8188 90.4935 37.0055C90.3842 37.1921 90.2655 37.3388 90.1348 37.4455C90.0068 37.5521 89.8668 37.6268 89.7175 37.6668C89.5695 37.7095 89.4095 37.7295 89.2375 37.7295C89.0361 37.7295 88.8535 37.6908 88.6841 37.6121C88.5161 37.5348 88.3695 37.4281 88.2481 37.2948C88.1281 37.1601 88.0322 37.0028 87.9655 36.8215C87.8975 36.6401 87.8642 36.4468 87.8642 36.2401C87.8642 36.0521 87.8802 35.8815 87.9108 35.7308C87.9442 35.5788 87.9868 35.4428 88.0415 35.3188C88.0948 35.1975 88.1562 35.0855 88.2255 34.9841C88.2935 34.8841 88.3655 34.7868 88.4415 34.6961L88.9615 35.0161C88.8855 35.1028 88.8175 35.1948 88.7602 35.2921C88.7015 35.3908 88.6522 35.4881 88.6135 35.5908C88.5748 35.6908 88.5455 35.7921 88.5255 35.8935C88.5068 35.9961 88.4975 36.0948 88.4975 36.1881C88.4975 36.3188 88.5148 36.4321 88.5481 36.5268C88.5828 36.6228 88.6322 36.7028 88.6948 36.7668C88.7602 36.8308 88.8375 36.8788 88.9242 36.9095C89.0135 36.9401 89.1135 36.9561 89.2228 36.9561C89.3202 36.9561 89.4095 36.9401 89.4868 36.9095C89.5655 36.8788 89.6361 36.8241 89.7041 36.7495C89.7708 36.6735 89.8322 36.5721 89.8922 36.4468C89.9508 36.3215 90.0082 36.1628 90.0655 35.9721C90.1522 35.6881 90.2509 35.4561 90.3602 35.2775C90.4709 35.0975 90.5935 34.9575 90.7269 34.8561C90.8589 34.7535 91.0015 34.6841 91.1535 34.6468C91.3068 34.6108 91.4668 34.5921 91.6375 34.5921C91.8321 34.5921 92.0135 34.6308 92.1815 34.7095V34.7095ZM90.6935 38.5348C91.0735 38.5348 91.4082 38.5801 91.6975 38.6721C91.9868 38.7641 92.2308 38.8921 92.4255 39.0575C92.6202 39.2228 92.7668 39.4201 92.8668 39.6521C92.9668 39.8841 93.0175 40.1401 93.0175 40.4201C93.0175 40.6975 92.9668 40.9495 92.8668 41.1775C92.7668 41.4041 92.6202 41.5975 92.4255 41.7588C92.2308 41.9215 91.9868 42.0468 91.6975 42.1361C91.4082 42.2255 91.0735 42.2695 90.6935 42.2695H90.3415C89.9388 42.2695 89.5842 42.2295 89.2775 42.1468C88.9695 42.0641 88.7108 41.9441 88.5015 41.7881C88.2921 41.6295 88.1322 41.4361 88.0255 41.2068C87.9162 40.9775 87.8642 40.7161 87.8642 40.4241C87.8642 40.1295 87.9148 39.8655 88.0188 39.6321C88.1215 39.3975 88.2721 39.2001 88.4681 39.0375C88.6668 38.8735 88.9095 38.7495 89.2002 38.6641C89.4895 38.5788 89.8202 38.5348 90.1922 38.5348H90.6935ZM92.9442 43.2855V44.0668L89.1815 46.1681L89.1882 46.1881L91.1175 46.1228H92.9442V46.9068H87.9362V46.1228L91.7028 44.0201L91.6948 44.0015L89.7108 44.0668H87.9362V43.2855H92.9442ZM92.9442 48.4001L91.7308 48.7748V50.4948L92.9442 50.8735V51.6881L87.9362 50.0028V49.2495L92.9442 47.5775V48.4001ZM87.1401 54.0881H93.7428V32.5841H87.1401V54.0881Z" fill="white"/>
</svg>
