<svg width="1080" height="1119" viewBox="0 0 1080 1119" fill="none" xmlns="http://www.w3.org/2000/svg">
<path d="M473.039 330.448C471.644 330.448 470.387 330.183 468.992 329.625C463.829 327.434 461.32 321.378 463.552 316.118L532.203 152.065C534.436 146.818 540.574 144.335 545.737 146.539C551.039 148.744 553.551 154.8 551.318 160.06L482.529 324.099C480.854 328.062 477.086 330.448 473.039 330.448" fill="white"/>
<path d="M310.766 717.753C309.371 717.753 308.115 717.488 306.719 716.93C301.417 714.739 299.045 708.683 301.138 703.423L437.744 377.508C439.977 372.247 446.115 369.777 451.278 371.982C456.581 374.187 459.092 380.229 456.86 385.489L320.253 711.404C318.579 715.367 314.813 717.753 310.766 717.753Z" fill="white"/>
<path d="M270.009 438.964C268.614 438.964 267.218 438.713 265.962 438.155C260.66 435.95 258.287 429.908 260.38 424.648L374.661 152.063C376.894 146.817 382.895 144.333 388.198 146.538C393.5 148.742 395.87 154.798 393.638 160.059L279.499 432.629C277.824 436.592 273.916 438.964 270.009 438.964" fill="white"/>
<path d="M153.083 717.753C151.828 717.753 150.431 717.488 149.175 716.93C143.873 714.739 141.361 708.683 143.594 703.423L192.431 586.952C194.664 581.691 200.663 579.207 205.965 581.426C211.128 583.617 213.64 589.673 211.408 594.933L162.709 711.404C161.035 715.353 157.13 717.753 153.083 717.753Z" fill="white"/>
<path d="M345.505 384.133C344.109 384.133 342.856 383.882 341.46 383.337C336.297 381.119 333.785 375.077 336.018 369.816L415.414 180.354C417.507 175.107 423.646 172.638 428.809 174.828C434.112 177.033 436.623 183.089 434.391 188.349L354.994 377.798C353.32 381.761 349.551 384.133 345.505 384.133" fill="white"/>
<path d="M211.406 703.905C210.15 703.905 208.757 703.654 207.501 703.096C202.199 700.905 199.687 694.85 201.919 689.589L288.012 484.317C290.105 479.057 296.244 476.573 301.407 478.791C306.71 480.996 309.221 487.038 306.989 492.299L221.035 697.57C219.36 701.533 215.453 703.905 211.406 703.905Z" fill="white"/>
<path d="M278.941 668.36C277.546 668.36 276.15 668.109 274.894 667.551C269.592 665.36 267.22 659.304 269.313 654.044L450.293 222.319C452.525 217.058 458.524 214.56 463.827 216.793C468.99 218.998 471.502 225.054 469.269 230.314L288.431 662.026C286.756 665.988 282.988 668.36 278.941 668.36" fill="white"/>
<path d="M384.16 166.387H327.089C321.368 166.387 316.763 161.782 316.763 156.061C316.763 150.368 321.368 145.749 327.089 145.749H384.16C389.881 145.749 394.486 150.368 394.486 156.061C394.486 161.782 389.881 166.387 384.16 166.387Z" fill="white"/>
<path d="M274.48 166.387H10.4756C4.75466 166.387 0.149414 161.782 0.149414 156.061C0.149414 150.368 4.75466 145.749 10.4756 145.749H274.48C280.201 145.749 284.803 150.368 284.803 156.061C284.803 161.782 280.201 166.387 274.48 166.387Z" fill="white"/>
<path d="M541.834 21.0596H258.155C252.434 21.0596 247.829 16.4411 247.829 10.734C247.829 5.02699 252.434 0.408302 258.155 0.408302H541.834C547.415 0.408302 552.16 5.02699 552.16 10.734C552.16 16.4411 547.415 21.0596 541.834 21.0596Z" fill="white"/>
<path d="M186.291 21.0596H10.4756C4.75466 21.0596 0.149414 16.4411 0.149414 10.734C0.149414 5.02699 4.75466 0.408302 10.4756 0.408302H186.291C192.012 0.408302 196.618 5.02699 196.618 10.734C196.618 16.4411 192.012 21.0596 186.291 21.0596Z" fill="white"/>
<path d="M501.089 69.5029H98.3878C92.6668 69.5029 88.0615 64.8842 88.0615 59.1772C88.0615 53.4702 92.6668 48.8515 98.3878 48.8515H501.089C506.81 48.8515 511.415 53.4702 511.415 59.1772C511.415 64.8842 506.81 69.5029 501.089 69.5029Z" fill="white"/>
<path d="M436.758 117.934H205.687C199.966 117.934 195.36 113.329 195.36 107.622C195.36 101.915 199.966 97.2961 205.687 97.2961H436.758C442.479 97.2961 447.084 101.915 447.084 107.622C447.084 113.329 442.479 117.934 436.758 117.934Z" fill="white"/>
<path d="M162.16 117.934H48.2966C42.5757 117.934 37.9731 113.329 37.9731 107.622C37.9731 101.915 42.5757 97.2961 48.2966 97.2961H162.16C167.881 97.2961 172.484 101.915 172.484 107.622C172.484 113.329 167.881 117.934 162.16 117.934Z" fill="white"/>
<path d="M1069.42 393.679C1063.84 393.679 1059.09 389.074 1059.09 383.353V254.687C1059.09 126.369 954.721 21.968 826.487 21.968C778.347 21.968 732.159 36.5217 692.949 64.0522C688.205 67.3313 681.788 66.2149 678.579 61.5265C675.23 56.866 676.345 50.4335 681.089 47.1544C723.787 17.182 774.022 1.33071 826.487 1.33071C966.163 1.33071 1079.75 114.983 1079.75 254.687V383.353C1079.75 389.074 1075.14 393.679 1069.42 393.679" fill="white"/>
<path d="M826.487 717.753C786.859 717.753 749.043 708.892 713.88 691.436C708.717 688.911 706.625 682.715 709.277 677.608C711.788 672.515 717.928 670.408 723.091 672.948C755.324 688.981 790.068 697.101 826.487 697.101C945.93 697.101 1045.42 607.631 1057.84 488.983C1058.39 483.304 1063.42 479.202 1069.14 479.788C1074.86 480.388 1079.05 485.453 1078.35 491.132C1064.81 620.329 956.535 717.753 826.487 717.753" fill="white"/>
<path d="M645.507 637.016C642.716 637.016 639.926 635.858 637.832 633.597C596.111 587.076 573.09 526.977 573.09 464.381V254.686C573.09 216.439 581.321 179.658 597.787 145.387C600.298 140.253 606.438 138.09 611.601 140.531C616.764 143.001 618.858 149.155 616.346 154.304C601.276 185.769 593.74 219.551 593.74 254.686V464.381C593.74 521.87 614.809 577.071 653.181 619.811C656.949 624.039 656.67 630.569 652.345 634.378C650.391 636.15 648.019 637.016 645.507 637.016" fill="white"/>
<path d="M823.274 579.55C805.134 579.55 787.692 575.42 771.506 567.285C766.483 564.717 764.391 558.508 767.042 553.429C769.554 548.322 775.691 546.256 780.854 548.852C794.11 555.522 808.343 558.913 823.274 558.913C875.46 558.913 917.88 516.507 917.88 464.377V254.682C917.88 202.565 875.46 160.174 823.274 160.174C771.227 160.174 728.809 202.565 728.809 254.682V434.6C728.809 440.307 724.203 444.925 718.482 444.925C712.761 444.925 708.156 440.307 708.156 434.6V254.682C708.156 191.193 759.785 139.522 823.274 139.522C886.902 139.522 938.53 191.193 938.53 254.682V464.377C938.53 527.894 886.902 579.55 823.274 579.55Z" fill="white"/>
<path d="M946.066 564.229C943.973 564.229 941.882 563.573 940.068 562.247C935.463 558.87 934.345 552.41 937.833 547.805C955.554 523.484 964.904 494.628 964.904 464.376V254.681C964.904 176.597 901.415 113.08 823.275 113.08C756.855 113.08 698.53 160.257 684.856 225.253C683.6 230.835 678.017 234.421 672.575 233.207C666.994 232.035 663.367 226.551 664.623 220.983C680.39 146.485 747.088 92.4284 823.275 92.4284C912.857 92.4284 985.556 165.211 985.556 254.681V464.376C985.556 499.037 974.811 532.093 954.439 559.987C952.346 562.764 949.276 564.229 946.066 564.229" fill="white"/>
<path d="M823.275 626.643C733.832 626.643 661.135 553.847 661.135 464.376V306.602C661.135 300.895 665.74 296.29 671.461 296.29C677.182 296.29 681.784 300.895 681.784 306.602V464.376C681.784 542.474 745.274 606.005 823.275 606.005C851.88 606.005 879.368 597.563 902.811 581.6C907.555 578.363 913.974 579.633 917.184 584.335C920.393 589.052 919.137 595.47 914.393 598.666C887.463 616.973 856.066 626.643 823.275 626.643" fill="white"/>
<path d="M823.275 673.735C736.763 673.735 660.297 621.716 628.483 541.204C626.39 535.901 629.04 529.901 634.343 527.808C639.505 525.729 645.647 528.325 647.74 533.627C676.345 606.2 745.274 653.098 823.275 653.098C927.369 653.098 1012.07 568.441 1012.07 464.375V254.68C1012.07 244.787 1011.23 234.838 1009.7 225.098C1008.86 219.475 1012.77 214.187 1018.35 213.308C1023.93 212.415 1029.23 216.28 1030.21 221.903C1031.88 232.689 1032.72 243.713 1032.72 254.68V464.375C1032.72 579.828 938.811 673.735 823.275 673.735" fill="white"/>
<path d="M624.295 453.782C618.574 453.782 613.969 449.15 613.969 443.457V254.678C613.969 139.24 707.877 45.3317 823.274 45.3317C862.483 45.3317 900.576 56.1876 933.646 76.7134C938.53 79.7134 939.926 86.0903 936.996 90.9322C933.926 95.7602 927.648 97.2811 922.764 94.2532C893.043 75.7507 858.576 65.9692 823.274 65.9692C719.319 65.9692 634.622 150.626 634.622 254.678V443.457C634.622 449.15 630.016 453.782 624.295 453.782" fill="white"/>
<path d="M197.173 1071.08C187.545 1071.08 178.892 1069.52 171.078 1066.39C163.124 1063.26 156.427 1058.52 150.845 1052.2C145.264 1045.86 140.94 1037.88 137.87 1028.23C134.8 1018.57 133.264 1007.27 133.264 994.306V982.292C133.264 968.701 134.659 956.757 137.589 946.459C140.38 936.175 144.566 927.552 150.148 920.603C155.589 913.668 162.288 908.435 170.241 904.933C178.055 901.417 187.126 899.659 197.173 899.659C203.173 899.659 208.614 900.231 213.498 901.375C218.381 902.519 222.707 903.914 226.614 905.561C230.521 907.194 233.73 908.994 236.521 910.933C239.312 912.873 241.545 914.659 243.22 916.25L232.755 936.859C230.801 935.324 228.568 933.859 225.917 932.45C223.405 931.04 220.755 929.798 217.964 928.738C215.174 927.664 212.381 926.826 209.311 926.212C206.381 925.598 203.453 925.305 200.522 925.305C195.499 925.305 190.894 926.282 186.569 928.222C182.383 930.161 178.615 933.217 175.545 937.389C172.475 941.547 170.103 946.85 168.429 953.296C166.615 959.743 165.777 967.487 165.777 976.501V989.785C165.777 999.72 166.615 1008.2 168.429 1015.26C170.103 1022.34 172.474 1028.12 175.684 1032.62C178.754 1037.12 182.521 1040.44 186.847 1042.53C191.312 1044.62 196.057 1045.68 201.359 1045.68C204.15 1045.68 206.94 1045.35 209.87 1044.71C212.8 1044.05 215.591 1043.2 218.242 1042.14C221.033 1041.05 223.683 1039.86 226.195 1038.53C228.567 1037.19 230.801 1035.76 232.894 1034.23L243.359 1054.67C241.824 1056.27 239.731 1058.02 236.941 1059.92C234.29 1061.81 230.941 1063.6 227.034 1065.27C223.127 1066.95 218.66 1068.33 213.637 1069.43C208.613 1070.54 203.173 1071.08 197.173 1071.08" fill="white"/>
<path d="M368.531 902.071V927.48H325.973V1068.68H293.462V927.48H251.182V902.071H368.531Z" fill="white"/>
<path d="M390.02 1082.98H376.764L440.951 902.075H454.068L390.02 1082.98Z" fill="white"/>
<path d="M596.667 902.073V1018.22C596.667 1026.76 595.413 1034.31 592.761 1040.87C590.11 1047.43 586.343 1052.94 581.459 1057.4C576.576 1061.87 570.715 1065.27 564.017 1067.59C557.18 1069.92 549.644 1071.08 541.411 1071.08C533.457 1071.08 526.202 1069.94 519.644 1067.65C512.946 1065.36 507.224 1061.98 502.48 1057.52C497.596 1053.06 493.829 1047.53 491.178 1040.94C488.527 1034.33 487.272 1026.76 487.272 1018.22V902.073H501.643V1018.22C501.643 1025 502.619 1030.99 504.573 1036.18C506.526 1041.37 509.179 1045.7 512.667 1049.17C516.155 1052.65 520.341 1055.26 525.225 1057C530.109 1058.76 535.411 1059.64 541.411 1059.64C547.271 1059.64 552.854 1058.79 557.877 1057.07C562.901 1055.35 567.225 1052.77 570.853 1049.34C574.48 1045.91 577.271 1041.61 579.225 1036.4C581.318 1031.21 582.296 1025.16 582.296 1018.22V902.073H596.667Z" fill="white"/>
<path d="M726.297 991.779H658.622V1068.68H644.251V902.071H737.043V913.276H658.622V980.56H726.297V991.779Z" fill="white"/>
<path d="M851.603 987.439H780.579V1057.46H864.162V1068.68H766.206V902.071H862.627V913.276H780.579V976.22H851.603V987.439" fill="white"/>
<path d="M937.002 990.633C928.351 987.438 921.096 984.103 915.235 980.67C909.375 977.237 904.632 973.582 901.004 969.689C897.376 965.809 894.722 961.623 893.187 957.158C891.652 952.693 890.816 947.795 890.816 942.451C890.816 936.13 891.933 930.325 894.305 925.065C896.537 919.79 899.748 915.283 903.794 911.502C907.841 907.72 912.864 904.804 918.585 902.739C924.306 900.688 930.585 899.655 937.422 899.655C943.003 899.655 948.305 900.13 952.91 901.078C957.654 902.041 962.12 903.311 966.027 904.93C970.074 906.52 973.702 908.376 977.051 910.469C980.26 912.562 983.188 914.767 985.979 917.055L980.817 927.018C978.585 924.939 975.793 922.986 972.584 921.116C969.375 919.246 965.886 917.586 962.119 916.134C958.351 914.683 954.444 913.539 950.258 912.702C946.072 911.865 941.886 911.432 937.7 911.432C932.537 911.432 928.074 912.102 924.027 913.441C919.981 914.781 916.491 916.748 913.84 919.344C911.049 921.939 908.818 925.121 907.283 928.888C905.748 932.67 905.048 936.953 905.048 941.767C905.048 946.051 905.748 949.819 907.283 953.098C908.818 956.377 911.05 959.432 914.399 962.251C917.608 965.07 921.795 967.749 926.818 970.26C931.841 972.786 937.98 975.409 945.097 978.158C953.19 981.144 960.026 984.298 965.607 987.647C971.189 991.024 975.656 994.651 979.144 998.586C982.632 1002.52 985.142 1006.82 986.677 1011.51C988.072 1016.21 988.911 1021.41 988.911 1027.14C988.911 1033.32 987.653 1039.08 985.281 1044.42C982.909 1049.75 979.562 1054.4 975.097 1058.32C970.771 1062.24 965.468 1065.34 959.328 1067.58C953.189 1069.84 946.352 1070.96 938.956 1070.96C933.375 1070.96 928.072 1070.44 923.049 1069.36C918.025 1068.3 913.421 1066.89 909.095 1065.13C904.63 1063.37 900.584 1061.38 896.957 1059.12C893.189 1056.87 889.98 1054.55 887.189 1052.2L892.49 1042.14C894.304 1043.73 896.677 1045.5 899.886 1047.44C902.956 1049.39 906.583 1051.22 910.629 1052.94C914.676 1054.65 919.141 1056.09 923.885 1057.23C928.63 1058.38 933.516 1058.95 938.678 1058.95C944.399 1058.95 949.421 1058.08 953.886 1056.37C958.351 1054.65 962.259 1052.35 965.329 1049.45C968.399 1046.55 970.91 1043.18 972.445 1039.32C974.12 1035.47 974.958 1031.41 974.958 1027.14C974.958 1023.56 974.398 1020.21 973.421 1017.13C972.304 1014.03 970.491 1011.02 967.7 1008.07C964.91 1005.14 961.004 1002.27 956.12 999.438C951.237 996.619 944.816 993.689 937.002 990.633" fill="white"/>
<path d="M120.019 855.191H985.283V865.237H120.019V855.191Z" fill="white"/>
<path d="M120.019 1108.48H985.283V1118.54H120.019V1108.48Z" fill="white"/>
<path d="M807.515 430.137V430.346L811.003 431.267L831.375 437.379V423.118L811.003 429.258L807.515 430.137" fill="white"/>
<path d="M803.467 332.858C803.467 336.472 805.001 339.249 808.07 341.217C811.14 343.156 815.606 344.133 821.746 344.133H824.956C831.515 344.133 836.537 343.254 839.886 341.454C843.095 339.682 844.769 336.807 844.769 332.816C844.769 329.133 843.375 326.272 840.305 324.235C837.236 322.198 832.63 321.179 826.491 321.179H821.468C815.468 321.179 811.001 322.212 807.931 324.291C805.001 326.356 803.467 329.216 803.467 332.858" fill="white"/>
<path d="M842.535 272.43C844.349 273.253 845.882 274.411 847.138 275.904C848.394 277.397 849.512 279.184 850.209 281.249C850.907 283.328 851.324 285.602 851.324 288.086C851.324 289.942 851.186 291.728 850.907 293.402C850.489 295.091 850.07 296.681 849.512 298.147C848.954 299.626 848.395 300.993 847.558 302.249C846.86 303.491 846.024 304.621 845.187 305.64L839.744 302.221C840.442 301.37 841.14 300.407 841.837 299.291C842.395 298.202 842.953 297.044 843.372 295.83C843.79 294.616 844.068 293.388 844.347 292.16C844.487 290.905 844.628 289.719 844.628 288.588C844.628 287.109 844.488 285.784 844.069 284.653C843.651 283.509 843.093 282.56 842.535 281.779C841.837 280.998 840.999 280.411 840.022 279.993C839.045 279.588 838.07 279.379 836.954 279.379C835.837 279.379 834.859 279.532 833.882 279.811C833.045 280.118 832.348 280.621 831.65 281.346C830.813 282.072 830.255 283.063 829.557 284.305C828.999 285.56 828.442 287.151 827.884 289.091C826.907 292.202 825.79 294.742 824.673 296.709C823.557 298.691 822.302 300.24 820.907 301.37C819.511 302.5 818.114 303.281 816.44 303.714C814.905 304.147 813.231 304.37 811.417 304.37C809.324 304.37 807.372 303.965 805.558 303.128C803.744 302.319 802.208 301.188 800.952 299.779C799.696 298.342 798.721 296.681 797.883 294.77C797.186 292.858 796.905 290.807 796.905 288.616C796.905 286.635 797.046 284.835 797.325 283.244C797.743 281.639 798.162 280.188 798.72 278.89C799.278 277.593 799.976 276.407 800.674 275.332C801.372 274.272 802.208 273.253 802.906 272.29L808.488 275.667C807.65 276.588 806.953 277.565 806.395 278.598C805.697 279.63 805.14 280.677 804.721 281.751C804.442 282.812 804.021 283.886 803.882 284.96C803.603 286.049 803.604 287.081 803.604 288.086C803.604 289.453 803.744 290.653 804.162 291.658C804.442 292.677 804.999 293.514 805.697 294.198C806.395 294.867 807.091 295.37 808.068 295.705C809.045 296.026 810.022 296.193 811.278 296.193C812.255 296.193 813.232 296.026 814.069 295.705C814.906 295.37 815.603 294.798 816.301 294.002C816.999 293.207 817.697 292.133 818.255 290.807C818.953 289.481 819.511 287.793 820.209 285.784C821.046 282.784 822.162 280.314 823.278 278.444C824.394 276.546 825.791 275.067 827.186 273.979C828.581 272.904 830.115 272.165 831.65 271.774C833.324 271.383 835.001 271.202 836.815 271.202C838.768 271.202 840.721 271.607 842.535 272.43V272.43ZM826.766 312.882C830.813 312.882 834.301 313.384 837.37 314.333C840.44 315.323 843.091 316.677 845.045 318.407C847.138 320.165 848.673 322.258 849.79 324.714C850.767 327.17 851.324 329.863 851.324 332.821C851.324 335.766 850.767 338.431 849.79 340.831C848.673 343.231 847.138 345.296 845.045 346.998C843.091 348.701 840.44 350.04 837.37 350.989C834.301 351.924 830.813 352.398 826.766 352.398H823C818.814 352.398 815.046 351.966 811.837 351.087C808.628 350.207 805.836 348.938 803.604 347.291C801.371 345.631 799.697 343.58 798.581 341.152C797.465 338.724 796.905 335.961 796.905 332.863C796.905 329.752 797.465 326.961 798.442 324.505C799.558 322.021 801.233 319.928 803.326 318.212C805.279 316.482 807.931 315.156 811 314.263C814.07 313.342 817.559 312.882 821.466 312.882H826.766ZM850.626 363.129V371.389L810.859 393.617V393.84L831.233 393.143H850.626V401.445H797.603V393.143L837.512 370.915L837.37 370.691L816.44 371.389H797.603V363.129H850.626ZM850.626 417.213L837.79 421.19V439.371L850.626 443.376V451.999L797.603 434.18V426.213L850.626 408.52V417.213ZM789.23 477.381H858.999V249.965H789.23V477.381Z" fill="white"/>
</svg>
