<?xml version="1.0" encoding="UTF-8"?>
<svg id="Camada_1" xmlns="http://www.w3.org/2000/svg" viewBox="0 0 1303.23 418.75">
  <defs>
    <style>
      .cls-1 {
        fill: #fff;
      }
    </style>
  </defs>
  <path class="cls-1" d="M955.32,0c7.67,3.09,15.96,2.47,23.91,3.99,12.19,2.33,24.33,4.77,36.11,8.65,11.19,3.68,15.62,11.83,12.6,23.01-2.21,8.17-4.55,16.32-7.05,24.4-3.36,10.88-12.26,15.37-23.2,11.7-18.56-6.21-37.35-11.32-57.06-11.98-8.06-.27-16.03.44-23.66,3.36-16.86,6.44-21.1,24.62-8.7,37.76,7.38,7.82,16.89,12.61,26.33,17.29,18.68,9.27,38.23,16.73,56.61,26.66,10.37,5.6,19.62,12.55,28.18,20.7,33.76,32.19,32.72,105.59-32.16,130.37-22.06,8.43-45.05,10.54-68.41,9.5-27.41-1.21-54.4-5.07-80.57-13.6-11.67-3.81-15.71-11.38-12.68-23.39,1.96-7.76,4.02-15.51,6.16-23.23,3.45-12.42,12.77-17.15,24.9-12.47,25.64,9.9,52.08,14.52,79.6,12.43,5.8-.44,11.34-1.9,16.52-4.46,15.13-7.48,18.49-25.58,7.09-38.1-5.64-6.19-12.7-10.46-20.15-14.16-20.52-10.2-41.96-18.49-61.95-29.81-10.87-6.16-20.67-13.49-29.6-22.26-32.64-32.06-29.54-94.11,18.74-120.12,15.19-8.18,31.41-12.66,48.4-14.84,1.44-.18,3.34.72,4.15-1.4h8.28c5.98,2.31,11.96,2.31,17.95,0h9.66Z"/>
  <path class="cls-1" d="M0,132.18c1.93-2.74,3.7-5.6,5.81-8.19,5.62-6.87,13.1-9.72,21.85-9.71,41.17.02,82.33-.09,123.5.05,17.16.06,27.9,11.02,28.07,28.04.05,4.36.06,8.72,0,13.07-.24,16.64-11.08,27.55-27.73,27.65-18.4.12-36.8,0-55.19.03-16.95.02-27.48,10.51-27.5,27.39-.03,19.04.03,38.07-.02,57.11-.05,18.5-10.58,28.99-29.05,29.04-2.76,0-5.53-.18-8.28.03C15.95,297.88,5.37,291.43,0,276.74,0,228.55,0,180.37,0,132.18Z"/>
  <path class="cls-1" d="M0,22.03C6.48,8.63,17.33,3.61,31.85,5.21c3.85.43,7.79.04,11.69.07,13.64.11,23.42,8.12,24.84,21.57.88,8.36.86,16.97-.04,25.33-1.35,12.48-10.48,20.7-22.99,21.43-7.54.44-15.14.3-22.7-.03C11.28,73.08,4.82,65.76,0,56.45V22.03Z"/>
  <path class="cls-1" d="M945.66,0c-5.98,2.31-11.96,2.31-17.95,0h17.95Z"/>
  <path class="cls-1" d="M601.16,152.85c0-41.98,0-83.96,0-125.94,0-14.89,5.9-20.75,20.98-20.76,48.76-.02,97.53-.02,146.29,0,14.66,0,20.98,6.33,21,20.9.01,6.42.05,12.85,0,19.27-.12,12.7-6.86,19.49-19.68,19.53-25.53.08-51.06.02-76.59.03-13.06,0-19.29,6.19-19.44,19.36-.08,6.65-.19,13.31.06,19.95.41,10.85,7.21,17.29,18.09,17.32,20.24.05,40.48-.01,60.72.03,13.24.03,19.34,6.16,19.36,19.32.01,7.11.02,14.22,0,21.33-.04,11.81-6.23,18.37-18.16,18.49-20.24.2-40.48.05-60.72.07-12.73,0-19.15,6.21-19.34,18.82-.11,7.11-.16,14.23.02,21.33.29,11.72,6.83,18.22,18.62,18.26,26.22.11,52.44.02,78.66.04,15.44,0,21.18,5.76,21.18,21.16,0,7.11.11,14.22-.03,21.33-.18,9.73-6.69,16.72-16.37,16.75-52.67.14-105.35.15-158.02,0-10.55-.03-16.6-7.13-16.61-18.59-.04-42.67-.02-85.34-.02-128Z"/>
  <path class="cls-1" d="M381.66,163.16c0-38.54,0-77.08,0-115.62,0-24.71,16.06-41.23,40.74-41.34,41.63-.19,83.27-.09,124.9-.03,13.53.02,19.83,6.41,19.86,19.79.02,6.88.03,13.76,0,20.65-.06,12.43-6.59,19.16-19.13,19.23-24.61.13-49.23.03-73.84.04-13.89,0-19.96,6.12-20,20.19-.03,8.49-.06,16.98,0,25.46.1,12.54,6.65,19.19,19.12,19.25,20.93.09,41.86,0,62.8.03,12.69.01,18.97,6.25,19.06,18.98.06,7.34.11,14.68-.01,22.02-.18,11.17-6.88,17.88-18.2,17.95-20.7.13-41.4.03-62.11.04-14.87,0-20.67,5.87-20.68,20.94-.01,23.4.02,46.8-.01,70.2-.01,12.34-6.22,18.52-18.67,18.58-11.73.05-23.46.04-35.19,0-12.31-.04-18.62-6.29-18.64-18.66-.05-39.23-.02-78.46-.02-117.69Z"/>
  <path class="cls-1" d="M1151.99,183.84c0-32.11,0-64.22,0-96.33,0-6-.07-12.01-4.75-16.68-3.41-3.41-7.47-5.04-12.39-5-14.03.11-28.06.1-42.08.02-13.18-.07-19.78-6.78-19.88-20.05-.05-7.11-.15-14.22.03-21.33.28-11.22,6.9-18.23,18.07-18.26,64.62-.14,129.25-.14,193.87,0,12.31.02,18.34,6.64,18.36,19,.01,7.34.02,14.68,0,22.02-.03,11.61-6.48,18.4-18.21,18.59-13.79.22-27.6.03-41.39.06-12.66.02-19.06,6.31-19.07,18.96-.03,64.91-.01,129.82-.02,194.73,0,14.15-5.82,19.93-20.1,19.95-11.5.02-23,.06-34.5-.01-11.41-.08-17.9-6.53-17.92-17.95-.06-32.57-.02-65.14-.02-97.71Z"/>
  <path class="cls-1" d="M200.78,296.76c-20.93,0-41.85.04-62.78-.01-18.03-.05-28.71-10.68-28.68-28.71.01-6.39-.72-12.82.74-19.19,2.83-12.31,12.43-20.39,25.03-20.49,18.63-.14,37.25,0,55.88-.05,18.23-.05,28.72-10.49,28.74-28.55.02-18.81-.02-37.61.01-56.42.03-18.27,10.71-28.91,29.16-29.06,5.75-.05,11.5-.16,17.24.07,13.89.54,23.81,9.44,25.8,23.06.4,2.71.5,5.48.5,8.22.03,39.9.03,79.81.02,119.71-.01,21.66-9.86,31.41-31.65,31.41-20.01,0-40.01,0-60.02,0Z"/>
  <path class="cls-1" d="M200.91,74.57c-21.37,0-42.74.06-64.11-.01-18.12-.06-27.51-9.56-27.52-27.63,0-5.04-.04-10.08,0-15.12.13-15.07,9.52-25.8,24.46-25.92,44.57-.38,89.15-.33,133.73-.03,13.97.1,23.3,9.09,24.6,22.93.7,7.49.71,15.15.04,22.64-1.3,14.6-10.75,22.98-25.71,23.1-21.83.18-43.66.05-65.49.05Z"/>
  <path class="cls-1" d="M1225.91,394.47c4.11,3.16,8.82,1.68,12.91,2.97,5.14,1.62,9.51,3.6,9.44,10.01-.06,6.17-3.91,8.93-9.26,10.26-5.91,1.47-11.88,1.46-17.65-.52-7.68-2.63-8.85-9.66-3.47-15.65,3.51-3.91,5.2-9,1.73-14.09-5.14-7.54-1.5-16.16,7.34-18.78,6.68-1.98,12.81,3.24,19.46.48,1.61-.67,2.24,2.97,1.43,3.32-4.4,1.9-2.3,5.42-2.49,8.29-.45,6.79-4.7,10.92-12.05,11.68-2.34.24-5.09-1.1-7.39,2.02ZM1231.52,412.59c3.67-.43,8.81.44,9.42-4.55.63-5.18-4.87-4.22-8.02-5.45-.21-.08-.44-.11-.67-.15-3.63-.56-7.35-1.37-10.35,1.65-1.16,1.17-1.83,2.78-.81,4.38,2.43,3.84,6.46,3.8,10.43,4.12ZM1224.31,380.18c.17,3.81,2.22,6.61,7.01,6.69,4.74.08,7.07-2.47,7.23-7.08.16-4.75-2.36-7.3-6.93-7.36-4.5-.06-7.25,2.26-7.3,7.75Z"/>
  <path class="cls-1" d="M342.05,403.41q-15.32,0-15.32-15.16c0-10.31.17-20.63-.09-30.93-.1-3.98,1.24-5.08,5.07-4.93,6.88.27,13.78.13,20.68.05,2.54-.03,4.34.07,4.33,3.52-.01,3.53-2,3.46-4.43,3.41-3.22-.06-6.49.38-9.64-.1-6.17-.94-7.35,1.49-7.56,7.39-.25,6.94,2.05,8.87,8.43,7.89,2.47-.38,5.05,0,7.57-.06,2.23-.06,2.65,1.23,2.56,3.07-.09,1.77.41,3.85-2.49,3.81-2.76-.03-5.57.38-8.26-.06-6.56-1.07-7.77,1.83-7.77,7.82,0,5.79,1.09,8.45,7.44,7.49,3.59-.54,7.34-.02,11.01-.12,2.44-.07,3.81.5,3.79,3.38-.01,2.71-.99,3.65-3.62,3.56-3.9-.13-7.81-.03-11.72-.03Z"/>
  <path class="cls-1" d="M144.94,371.3c0-6.17.09-11.85-.04-17.53-.06-2.66.3-4.19,3.63-4.17,3.35.02,3.62,1.62,3.61,4.23-.07,15.33-.13,30.66.03,45.98.04,3.96-3.36,4.84-4.55,3.24-2.87-3.87-4.63-1.2-7.08-.15-8.54,3.69-16.91-.6-19.1-9.69-.92-3.81-1.14-7.66-.47-11.57,1.99-11.66,9.96-16.03,21.1-11.48.79.32,1.59.63,2.86,1.13ZM144.95,386.32c0-9.42-1.67-11.86-8.1-11.82-5.67.04-8.66,4.02-8.71,11.61-.05,7.53,2.89,11.62,8.5,11.79,6.44.2,8.31-2.4,8.31-11.58Z"/>
  <path class="cls-1" d="M905.61,371.02c0-6.36.09-12.08-.04-17.79-.06-2.6.73-3.67,3.48-3.59,2.45.06,3.79.46,3.77,3.35-.1,15.78-.1,31.57-.01,47.36.02,3.77-3.61,3.94-4.41,2.79-2.95-4.2-5.15-.95-7.66.01-8.38,3.21-16.4-1.01-18.59-9.79-.28-1.11-.45-2.24-.6-3.38-2.33-17.35,7.39-25.25,24.07-18.97ZM905.62,386.2c0-9.27-1.79-11.81-8.22-11.7-5.63.1-8.57,4.12-8.59,11.72-.02,7.53,2.96,11.56,8.62,11.67,6.55.13,8.19-2.21,8.19-11.7Z"/>
  <path class="cls-1" d="M405.99,400.63c0,5.32-.11,9.87.04,14.42.09,2.62-.79,3.63-3.52,3.59-2.51-.04-3.73-.56-3.7-3.4.11-14.42.12-28.84,0-43.26-.03-3.22,2.89-3.96,3.8-2.81,3.53,4.4,6.34.45,9.34-.24,2.52-.58,4.98-.9,7.46-.26,6.34,1.63,9.44,6.26,10.54,12.26,1.36,7.47,1.09,14.92-5.17,20.26-4.84,4.13-10.54,3.83-16.05.7-.57-.32-1.19-.55-2.74-1.26ZM405.97,386.36c0,9.21,1.76,11.68,8.27,11.55,5.55-.11,8.9-4.41,8.92-11.48.03-7.54-3.4-12.01-9.14-11.93-6.4.09-8.05,2.52-8.05,11.87Z"/>
  <path class="cls-1" d="M987.76,381.4c0-5.72-.24-11.45.08-17.16.22-3.99-1.25-5.32-5.08-4.91-2.27.24-4.59-.06-6.88.07-2.4.13-3.3-.91-3.17-3.23.11-1.85-.16-3.73,2.65-3.72,11.01.05,22.02.05,33.03,0,2.69-.01,2.8,1.6,2.84,3.59.04,2.17-.54,3.6-3.07,3.35-.23-.02-.46-.01-.69,0q-11.17.97-11.17,12.39c0,9.15-.12,18.31.06,27.45.07,3.34-1.11,4.29-4.35,4.31-3.27.02-4.45-.98-4.33-4.29.21-5.94.06-11.9.06-17.84Z"/>
  <path class="cls-1" d="M7.83,378.09c0-6.87.19-13.75-.08-20.6-.15-3.76.79-5.3,4.88-5.11,6.87.32,13.77.12,20.66.07,2.24-.01,3.91.05,3.97,3.15.06,3.16-1.2,3.98-4.05,3.79-2.51-.17-5.08-.29-7.57.03-3.01.38-7.66-1.91-8.72,1.34-1.35,4.14-.57,9.06-.25,13.61.16,2.23,2.5,1.42,3.94,1.46,3.67.11,7.35.17,11.02,0,2.9-.14,3.38,1.3,3.36,3.75-.01,2.34-.87,3.36-3.21,3.18-.91-.07-1.84-.01-2.75,0-12.56.14-12.47.14-12.65,13.01-.03,2.49,1.54,5.69-1.45,7.42-3.45,2.01-7.05-.36-7.09-4.51-.08-6.87-.02-13.74-.02-20.61Z"/>
  <path class="cls-1" d="M737.06,386.91c-1.84,0-3.7-.2-5.5.06-1.83.26-4.46-1.32-5.33,1.36-.74,2.27.29,4.63,1.89,6.34,4.54,4.83,9.88,3.59,15.29,1.77,1.24-.42,2.61-2.78,3.92-.22,1.08,2.12.46,3.82-1.59,5.27-5.49,3.87-17.11,3.39-22.06-1.06-5.59-5.03-7.09-16.75-3.12-24.32,3.46-6.59,10.99-9.42,18.96-7.12,6.08,1.75,10.62,9.69,9.31,15.74-.5,2.31-1.9,2.18-3.5,2.18-2.76.01-5.51,0-8.27,0ZM734.01,383.18c2.23-1.82,6.71,2.24,7.04-2.66.25-3.71-2.6-5.96-6.72-6.03-4.3-.07-7.85,2.15-7.7,5.96.19,4.89,5.08.75,7.38,2.73Z"/>
  <path class="cls-1" d="M1027.79,404.14c-7.21-.13-12.52-2.46-14.96-8.78-2.96-7.67-3.02-15.44,2.4-22.09,4.38-5.38,10.57-5.78,17.01-4.29,3.11.72,5.39,2.53,6.95,5.19,2.03,3.48,3.31,7.66,1.89,11.18-1.44,3.56-5.69,1.1-8.65,1.49-2.93.38-5.96.04-8.94.09-5.02.1-6.25,2.3-3.4,6.63,3.99,6.07,9.67,4.71,15.4,3.16,1.42-.38,2.95-3.34,4.52-.44,1.35,2.5.15,4.35-2.26,5.55-3.36,1.67-6.95,2.22-9.95,2.33ZM1026.12,383.17c2.41-1.87,7.12,2.1,7.56-2.79.33-3.66-2.69-5.89-6.8-5.9-4.31-.01-7.69,2.22-7.63,6.09.08,4.89,4.74.71,6.87,2.6Z"/>
  <path class="cls-1" d="M846.25,386.91c-1.61,0-3.27-.27-4.81.07-2.13.47-5.52-1.84-6.19,1.89-.56,3.09,1.08,5.89,3.84,7.54,4.07,2.44,8.3,1.64,12.62.39,1.45-.42,3.32-3.87,4.86-.07,1.15,2.84-.64,4.35-2.91,5.28-6.17,2.55-12.48,3.35-18.59.05-6.98-3.77-9.81-15.65-6.14-24.62,2.94-7.19,10.48-10.65,18.85-8.68,6.57,1.55,11.34,9.28,10.1,15.83-.43,2.3-1.72,2.32-3.37,2.32-2.76,0-5.51,0-8.27,0ZM842.9,383.1c2.29-1.65,6.75,2.15,7.19-2.39.4-4.06-2.77-6.34-7.18-6.22-4.32.12-7.65,2.6-7.29,6.4.41,4.24,4.9.6,7.27,2.21Z"/>
  <path class="cls-1" d="M937.63,368.3c8.77.05,13.77,5.22,14.11,14.26.12,3.13-.56,4.62-4.09,4.42-4.81-.27-9.66.18-14.46-.14-4.82-.32-4.83,2.08-3.59,5.4,2.11,5.64,8.34,7.14,16.65,4.24,1.23-.43,2.59-2.82,3.95-.33,1.13,2.07.59,3.81-1.47,5.29-4.92,3.51-16.01,3.57-21.02-.06-5.72-4.14-8.08-14.14-5.36-22.68,2.12-6.66,7.66-10.43,15.27-10.39ZM936.72,383.18c2.15-2.09,7.08,2.4,7.24-3.01.11-3.71-2.95-5.79-7.04-5.69-4.32.1-7.67,2.47-7.41,6.31.31,4.47,4.85.64,7.22,2.39Z"/>
  <path class="cls-1" d="M1152.86,386.14c.01,11.46-5.71,17.85-16.09,17.96-10.64.11-16.91-6.7-16.75-18.18.16-11.22,6.27-17.68,16.65-17.62,10.43.06,16.17,6.39,16.19,17.84ZM1145.72,386.44c.08-7.73-3.1-11.9-9.08-11.94-6.07-.04-9.23,4.02-9.18,11.81.04,7.48,2.98,11.39,8.7,11.59,6.14.21,9.49-3.81,9.57-11.46Z"/>
  <path class="cls-1" d="M188.92,389.63c0,3.44.04,6.88-.02,10.31-.02,1.28.4,2.95-1.48,3.33-1.56.31-4.17.69-4.46-.56-1.15-4.89-3.11-1.86-4.96-.85-4.47,2.44-9.07,3.56-13.64.45-3.38-2.3-4.36-5.87-3.76-9.71.85-5.41,4.7-8.21,9.59-9.71,2.4-.73,4.93-1.09,7.41-1.5,1.68-.28,3.94.51,3.82-2.48-.1-2.45-1.53-3.84-3.78-4.18-3.44-.53-6.83-.16-10.19.93-1.49.48-3.48,1.92-4.52-.95-1.07-2.93,1.02-3.51,2.94-4.28,3.66-1.47,7.46-2.31,11.41-2.1,7.51.39,11.28,4.17,11.63,11.68.15,3.2.02,6.42.03,9.63ZM174.26,397.95c3.01-.79,7.59-1.05,7.34-6.84-.09-2.11,1.57-5.84-2.78-5.48-4.49.37-9.62.76-10.64,6.59-.61,3.46,1.26,5.66,6.09,5.74Z"/>
  <path class="cls-1" d="M259.33,389.46c0,3.44.05,6.88-.02,10.31-.03,1.26.52,3.08-1.33,3.39-1.5.25-4.37.13-4.49-.36-1.36-5.38-3.71-1.6-5.54-.68-7.02,3.54-13.52,2.24-16.08-3.35-2.92-6.38.35-13.01,7.92-15.62,2.58-.89,5.36-1.23,8.05-1.77,1.61-.32,3.97.69,3.98-2.32,0-2.44-1.37-3.91-3.62-4.31-3.68-.67-7.3-.13-10.85,1.05-1.41.47-3.03,1.43-3.97-.94-.91-2.3.15-3.38,2.09-4.15,3.65-1.46,7.41-2.44,11.36-2.4,8.2.08,12.2,4,12.49,12.23.1,2.98.02,5.96.02,8.94ZM252.07,389.96c.07-2.35.3-5.04-3.29-4.39-4.42.8-9.64,1-10.22,7.08-.35,3.64,1.87,5.52,5.55,5.23,4.83-.39,8.55-2.06,7.97-7.92Z"/>
  <path class="cls-1" d="M299.7,386.48c-.07,11.34-5.97,17.68-16.42,17.62-10.35-.05-16.38-6.59-16.42-17.83-.04-11.47,6.32-18.2,16.99-17.97,10.35.23,15.92,6.61,15.85,18.17ZM292.56,385.9c-.09-7.63-3.48-11.65-9.63-11.39-5.69.23-8.63,4.2-8.64,11.67-.01,7.8,3.15,11.81,9.25,11.73,5.97-.08,9.12-4.26,9.02-12Z"/>
  <path class="cls-1" d="M1298.87,389.88c0,3.21.06,6.42-.03,9.63-.04,1.46.65,3.51-1.72,3.82-1.5.19-3.96.8-4.34-.85-1.02-4.41-2.68-1.89-4.48-.85-4.62,2.66-9.45,3.95-14.21.52-3.29-2.37-4.25-5.98-3.51-9.8,1.09-5.66,5.24-8.36,10.46-9.7,2.22-.57,4.5-.89,6.75-1.29,1.45-.25,3.46.53,3.57-2.03.1-2.41-1.1-4.06-3.36-4.52-3.66-.74-7.29-.27-10.85.92-1.61.54-3.48,1.6-4.38-1.27-.82-2.62.95-3.21,2.63-3.89,3.64-1.49,7.43-2.39,11.38-2.27,7.85.24,11.75,4.1,12.07,11.95.13,3.2.02,6.42.02,9.63ZM1291.57,389.64c.24-2.18.17-4.69-3.3-4.06-4.42.8-9.64,1.01-10.19,7.11-.33,3.65,1.92,5.5,5.58,5.19,4.84-.4,8.53-2.1,7.9-8.24Z"/>
  <path class="cls-1" d="M555.1,385.92c.07,11.52-5.55,17.96-15.87,18.18-10.68.23-17.01-6.47-16.97-17.96.04-11.21,6.1-17.79,16.43-17.84,10.46-.05,16.34,6.26,16.41,17.62ZM547.96,386.36c.05-7.72-3.15-11.86-9.17-11.86-5.87,0-8.93,3.78-9.1,11.21-.17,7.84,2.84,12.03,8.78,12.19,6.12.17,9.44-3.87,9.48-11.54Z"/>
  <path class="cls-1" d="M650.02,389.63c0,3.44.04,6.88-.02,10.31-.02,1.28.4,2.95-1.48,3.33-1.56.31-4.17.69-4.46-.56-1.15-4.89-3.11-1.86-4.96-.85-4.47,2.44-9.07,3.56-13.64.45-3.38-2.3-4.36-5.87-3.76-9.71.85-5.41,4.7-8.21,9.59-9.71,2.4-.73,4.93-1.09,7.41-1.5,1.68-.28,3.94.51,3.82-2.48-.1-2.45-1.53-3.84-3.78-4.18-3.44-.53-6.83-.16-10.19.93-1.49.48-3.48,1.92-4.52-.95-1.07-2.93,1.02-3.51,2.94-4.28,3.66-1.47,7.46-2.31,11.41-2.1,7.51.39,11.28,4.17,11.63,11.68.15,3.2.02,6.42.03,9.63ZM642.76,389.98c.06-2.34.32-5.05-3.28-4.41-4.42.79-9.63.99-10.24,7.06-.36,3.63,1.85,5.53,5.53,5.24,4.83-.38,8.55-2.04,7.99-7.9Z"/>
  <path class="cls-1" d="M1210.85,385.91c.07,11.53-5.54,17.96-15.86,18.19-10.68.23-17.01-6.46-16.98-17.95.03-11.21,6.09-17.8,16.42-17.85,10.47-.05,16.35,6.26,16.42,17.61ZM1185.44,385.95c-.09,7.82,3,11.91,9.02,11.95,5.85.04,9.06-3.82,9.24-11.09.19-7.77-2.86-12.07-8.72-12.3-6.16-.24-9.46,3.71-9.55,11.44Z"/>
  <path class="cls-1" d="M84.07,386.11c0-4.58.08-9.16-.02-13.73-.11-4.81,4.35-4.31,5.22-2.74,2.11,3.8,3.58,1.81,5.77.71,10.54-5.26,17.72-.96,17.77,10.57.03,6.18-.09,12.36.05,18.54.06,2.85-.77,4.07-3.87,4.08-3.25.01-3.77-1.52-3.72-4.22.12-5.95,0-11.9.04-17.85.02-3.85-.92-7.17-5.57-6.82-4.26.32-8.25,1.81-8.43,7.07-.19,5.72-.12,11.44-.02,17.16.05,2.76.05,4.8-3.83,4.69-3.53-.09-3.44-1.99-3.41-4.41.06-4.35.02-8.7.02-13.04Z"/>
  <path class="cls-1" d="M1083.56,385.73c0-4.35.08-8.7-.02-13.04-.12-5.07,3.83-4.89,5.41-2.68,2.27,3.18,3.35,1.45,5.3.47,10.99-5.49,18.01-1.25,18.05,10.82.02,5.95-.05,11.9.02,17.85.03,2.52-.12,4.32-3.54,4.4-3.67.08-4.1-1.68-4.03-4.61.13-5.72,0-11.44.04-17.16.02-3.73-.56-7.31-5.27-7.12-4.56.19-8.7,1.7-8.77,7.44-.07,5.72-.07,11.44,0,17.16.04,2.52-.07,4.31-3.52,4.3-3.22,0-3.84-1.31-3.75-4.1.16-4.57.04-9.15.04-13.73Z"/>
  <path class="cls-1" d="M757.76,386.2c0-4.58.12-9.16-.03-13.73-.16-4.77,4.37-4.45,5.16-2.91,2.36,4.56,4.25,1.45,6.35.47,10.2-4.79,17.21-.44,17.27,10.78.03,6.18-.08,12.36.04,18.54.05,2.75-.57,4.18-3.76,4.18-3.14,0-3.88-1.32-3.82-4.12.13-5.95.01-11.9.05-17.85.02-3.81-.8-7.21-5.48-6.92-4.27.26-8.3,1.74-8.52,6.97-.24,5.94-.16,11.9-.02,17.85.07,2.78-.53,4.09-3.75,4.1-3.44,0-3.57-1.78-3.52-4.3.09-4.35.03-8.7.03-13.04Z"/>
  <path class="cls-1" d="M659.75,385.88c0-4.58.08-9.16-.02-13.73-.1-4.3,4.16-4.02,4.84-2.73,2.46,4.65,4.58,1.56,6.94.47,9.92-4.57,16.9-.25,16.98,10.56.05,6.41-.11,12.82.06,19.22.08,3.11-1.24,3.86-4.1,3.84-2.79-.02-3.53-1.21-3.49-3.74.1-6.18.01-12.36.03-18.54.01-3.55-.87-6.68-5.11-6.61-4.33.07-8.47,1.51-8.83,6.62-.42,5.92-.13,11.89-.1,17.84.01,2.35.26,4.38-3.34,4.47-3.79.09-3.99-1.79-3.9-4.63.14-4.34.04-8.7.04-13.04Z"/>
  <path class="cls-1" d="M72.33,386.57c0,4.58-.05,9.17,0,13.75.05,4.37-4.51,3.74-4.95,2.67-2.3-5.57-4.85-1.33-6.92-.42-9.79,4.27-16.49.24-16.56-10.23-.05-6.42.06-12.84-.04-19.25-.04-2.64.29-4.23,3.64-4.22,3.44.02,3.56,1.82,3.52,4.35-.08,5.73.01,11.46-.03,17.19-.03,4.06.75,7.71,5.81,7.37,4.66-.31,8.48-2.04,8.33-7.86-.14-5.5.09-11-.07-16.5-.09-3,.45-4.63,4.07-4.55,3.76.08,3.18,2.41,3.2,4.63.03,4.35,0,8.71,0,13.07Z"/>
  <path class="cls-1" d="M212.84,406.84c3.74,1.15,6.97,2.99,5.11,7.51-1.55,3.75-4.89,4.54-8.58,4.17-1.05-.11-2.59.05-2.69-1.47-.11-1.75,1.1-2.22,2.72-2.04,1.67.18,3.6-.03,3.97-1.85.51-2.51-1.98-1.77-3.27-2.31-.41-.17-1.18-.5-1.16-.58,2.02-7.31-5.42-7.36-8.37-10.82-4.68-5.48-5.5-17.37-1.5-24.1,3.58-6.01,10.77-8.5,18.77-6.42,1.53.4,3.04,1.01,4.43,1.75,2.19,1.16,1.54,3.06.93,4.81-.92,2.64-2.38,1.01-3.73.41-4.77-2.1-9.73-2.73-13.12,1.86-3.7,5.01-3.57,10.99-.51,16.24,2.96,5.08,7.85,4.46,12.81,2.85,1.54-.5,3.44-4.43,5.25.03,1.36,3.35-.76,4.45-3,5.82-2.44,1.49-6.14.29-8.07,4.12Z"/>
  <path class="cls-1" d="M818.06,376.81c-3.92-1.17-7.55-2.8-11.58-2.27-2.16.29-4.14,1-4.35,3.54-.19,2.25,1.57,3.17,3.33,3.83,3.43,1.28,6.96,2.31,10.34,3.72,3.49,1.46,5.45,4.22,5.3,8.08-.15,3.96-1.9,7.06-5.68,8.71-6.29,2.75-12.53,1.88-18.76-.3-2.73-.96-2.45-3.06-1.96-5.09.84-3.49,2.95-.85,4.25-.54,3.59.85,7.12,1.75,10.85,1.36,2.29-.24,4.02-1.31,4.38-3.63.33-2.14-1.26-3.43-2.99-4.14-3.59-1.49-7.32-2.62-10.91-4.12-4.06-1.69-5.93-4.73-5.41-9.26.49-4.28,3.2-6.45,6.9-7.64,4.29-1.38,8.6-.64,12.91.27,4.15.88,5.15,3.21,3.38,7.5Z"/>
  <path class="cls-1" d="M612.3,376.75c-3.53-.85-6.87-2.57-10.69-2.25-2.44.21-4.77.65-5.17,3.45-.36,2.59,1.87,3.45,3.81,4.18,3.21,1.2,6.55,2.12,9.71,3.44,3.77,1.57,5.75,4.53,5.41,8.68-.33,3.99-2.37,6.95-6.14,8.42-6.09,2.38-12.13,1.61-18.15-.49-2.7-.94-2.56-2.92-2.14-5.01.71-3.55,2.79-1.01,4.17-.74,3.14.63,6.16,1.66,9.46,1.51,2.75-.12,5.33-.61,5.86-3.59.49-2.74-1.83-3.92-4.08-4.75-3.22-1.19-6.49-2.25-9.65-3.57-4.02-1.68-6.06-4.63-5.54-9.19.52-4.56,3.39-6.7,7.44-7.9,3.9-1.16,7.75-.52,11.59.17,4.5.8,6.51,3.06,4.12,7.65Z"/>
  <path class="cls-1" d="M388.69,376.69c-3.34-.57-6.39-2.39-9.94-2.2-2.64.14-5.4.24-5.92,3.38-.48,2.94,2.21,3.67,4.35,4.47,3,1.12,6.11,1.97,9.07,3.19,3.76,1.56,5.8,4.48,5.49,8.63-.3,3.99-2.29,6.97-6.07,8.47-6.08,2.42-12.12,1.64-18.15-.42-2.69-.92-2.63-2.83-2.25-4.96.63-3.54,2.71-1.19,4.11-.86,3.35.79,6.62,1.74,10.15,1.53,2.55-.15,4.78-.92,5.26-3.48.51-2.75-1.74-3.97-4-4.81-3.22-1.2-6.49-2.24-9.66-3.56-4-1.67-6.12-4.56-5.63-9.15.48-4.57,3.32-6.74,7.37-7.98,3.89-1.19,7.75-.57,11.59.13,4.38.8,6.66,2.91,4.24,7.62Z"/>
  <path class="cls-1" d="M709.24,403.42c-6.63.14-10.16-2.95-10.55-9.03-.26-4.11.1-8.25-.13-12.36-.15-2.77,1.71-6.45-3.64-7.21-2.46-.35-.62-4.23-.13-4.43,5.15-2.05,3.75-6.34,3.79-10.09.03-2.43-.11-4.43,3.43-4.47,3.67-.04,3.96,1.78,4.04,4.69.1,3.78-2.25,9.31,5.44,8.7,1.72-.13,1.31,2.04,1.33,3.33.02,1.6-.74,2.72-2.44,2.59-4.55-.34-4.52,2.59-4.43,5.79.11,3.66.05,7.33.02,10.99-.02,2.74.38,5.19,3.87,5.24,2.4.04,4.32.86,4.05,3.45-.33,3.17-3.35,2.28-4.67,2.81Z"/>
  <path class="cls-1" d="M512.85,403.42c-6.34.1-9.84-3-10.19-9.11-.26-4.57.01-9.16-.11-13.74-.06-2.26,1.06-4.97-3.08-5.56-3.62-.51-.93-4.61-.69-4.69,5.46-1.91,3.64-6.42,3.75-10.11.08-2.5.05-4.36,3.51-4.4,3.74-.04,3.9,1.93,3.96,4.76.08,3.85-2.04,9.29,5.52,8.62,1.38-.12,1.27,1.62,1.29,2.73.03,1.41-.12,3.2-1.84,3.09-6.06-.38-5,3.81-5.02,7.35-.02,3.21.03,6.41,0,9.62-.04,2.78.49,5.15,3.94,5.18,2.45.02,4.32.99,3.98,3.51-.41,3.03-3.31,2.41-5.02,2.75Z"/>
  <path class="cls-1" d="M1055.7,386.53c.15,10.03,6.14,13.78,15.7,9.83,1.45-.6,2.92-2.97,4.23.26.94,2.32.36,3.78-1.7,5.18-9.23,6.25-22.56.92-24.96-10.07-3.47-15.88,6.53-26.73,21-22.77,1.09.3,2.13.81,3.19,1.22,2.5.96,2.69,2.73,1.94,5.01-1.07,3.23-2.7,1.08-4.2.53-9.48-3.45-15.37.73-15.21,10.8Z"/>
  <path class="cls-1" d="M1169.41,377.19c0,7.34-.05,14.68.03,22.03.03,2.52-.05,4.31-3.52,4.31-3.32,0-3.67-1.5-3.66-4.18.08-15.14.06-30.29.01-45.43,0-2.52.05-4.31,3.52-4.31,3.32,0,3.7,1.5,3.66,4.18-.11,7.8-.04,15.6-.04,23.4Z"/>
  <path class="cls-1" d="M456.84,386.19c0-4.58.1-9.17-.03-13.75-.13-4.8,4.45-4.37,5.16-2.78,2.54,5.63,4.56.63,6.72.27,2.08-.35,4.51-3.58,6.06.44,1.29,3.33-.96,4.01-3.75,4.71-4.92,1.22-7.81,4.04-7.16,9.83.54,4.75.02,9.61.14,14.42.07,2.66-.31,4.19-3.64,4.19-3.43,0-3.6-1.72-3.54-4.28.1-4.35.03-8.71.03-13.06Z"/>
  <path class="cls-1" d="M438.9,385.58c0-4.36.11-8.72-.04-13.08-.09-2.64.81-3.61,3.53-3.58,2.57.03,3.71.66,3.67,3.45-.13,9.17-.12,18.35,0,27.53.03,2.64-.81,3.61-3.53,3.58-2.57-.03-3.76-.65-3.66-3.46.17-4.81.05-9.63.05-14.45Z"/>
  <path class="cls-1" d="M490.19,386.43c0,4.36-.14,8.72.05,13.07.13,2.91-.72,4.06-3.84,4-2.9-.05-3.38-1.32-3.36-3.77.08-8.95.13-17.9-.02-26.84-.05-2.9.72-4.06,3.84-4,2.9.06,3.42,1.32,3.36,3.77-.11,4.59-.03,9.18-.03,13.76Z"/>
  <path class="cls-1" d="M1254.79,386.2c0-4.59.12-9.18-.04-13.76-.1-2.72.95-3.52,3.6-3.52,2.64,0,3.64.8,3.6,3.52-.12,9.18-.12,18.35,0,27.53.04,2.72-.96,3.52-3.6,3.52-2.64,0-3.69-.8-3.6-3.52.16-4.58.04-9.18.04-13.76Z"/>
  <path class="cls-1" d="M239.67,355.9c6.55.8,10.8,4.8,15.49.3,1.03-.99,1.9,1.16,1.78,2.63-.36,4.42-4.23,6.86-8.89,5.44-3.52-1.07-6.85-3.67-10.37.38-.84.96-3.28.45-2.9-2.06.6-3.99,2.35-6.86,4.89-6.69Z"/>
  <path class="cls-1" d="M571.43,385.51c-2.1-2.01-8.35,3.69-8.25-3.48.1-6.82,5.88-2.29,8.92-3.29,1.85-.61,4.08.01,6.13-.14,2.65-.19,3.6.83,3.6,3.51,0,2.77-1.15,3.58-3.69,3.42-2.05-.13-4.11-.03-6.72-.03Z"/>
  <path class="cls-1" d="M451.45,355.75c-7.09,8.9-7.29,9.04-12.98,8.5q5.4-11.23,12.98-8.5Z"/>
  <path class="cls-1" d="M1257.13,356.62c3.73-.17,5.41,1.26,5.63,3.83.23,2.64-1.32,4.21-4.03,4.41-2.71.2-4.49-1.04-4.57-3.78-.07-2.5,1.12-4.34,2.97-4.47Z"/>
  <path class="cls-1" d="M491.16,360.69c-.29,2.6-1.63,4.11-4.36,4.19-2.76.08-4.4-1.29-4.34-4.01.05-2.51,1.29-4.29,4.18-4.3,2.78,0,4.05,1.58,4.52,4.12Z"/>
</svg>