<?xml version="1.0" encoding="UTF-8"?>
<svg id="Camada_1" xmlns="http://www.w3.org/2000/svg" viewBox="0 0 1055.45 204.66">
  <defs>
    <style>
      .cls-1 {
        fill: #fff;
      }
    </style>
  </defs>
  <path class="cls-1" d="M332.71,62.87c-3.25,12.5-6.53,24.99-9.73,37.51-7.9,30.86-15.7,61.74-23.71,92.57-1.29,4.97-4,8.23-10.32,7.91-11.06-.57-22.18-.29-33.27-.12-6.43.1-8.13-3.26-6.71-8.72,13.15-50.55,26.4-101.08,39.58-151.62,2.41-9.25,5.01-18.46,6.9-27.82,1.4-6.95,5.2-9.71,12-9.67,19.57.11,39.16-.35,58.71.41,3.32.13,8.63,4.72,9.31,8.01,4.64,22.52,8.11,45.27,12.29,67.89,3.76,20.36,7.94,40.65,12.4,63.32,5.96-21.96,11.48-41.69,16.64-61.51,6.09-23.43,11.61-47.01,18.08-70.33.88-3.17,5.73-7.11,9.03-7.4,10.68-.94,21.5-.45,32.27-.32,6.74.08,9.58,2.48,7.57,10.17-14.28,54.54-28.04,109.21-42.23,163.77-6.2,23.85-6.48,23.78-31.15,23.78-14.03,0-28.1-.65-42.07.25-7.96.51-10.63-3.49-11.69-9.55-5.5-31.48-10.65-63.02-16.08-94.51-1.94-11.26-4.3-22.45-6.46-33.67-.45-.11-.9-.23-1.35-.34Z"/>
  <path class="cls-1" d="M468.74,200.69c3.37-14.39,6.18-27.44,9.51-40.36,9.47-36.69,19.19-73.31,28.73-109.98,3.45-13.25,6.17-26.72,10.3-39.74,1.03-3.24,6.24-7.25,9.6-7.33,26.4-.6,52.9-1.48,79.22.08,16.68.99,33.37,5.12,49.61,9.51,16.04,4.33,25.71,15.94,29.52,32.29,11.18,48.04-1.44,89.99-35.32,124.54-19.72,20.12-45.34,30.86-74.33,30.96-34.86.11-69.72.03-106.85.03ZM555.22,161.94c5.47-.45,10.98-.65,16.41-1.4,32.7-4.5,62.09-44.56,56.91-80.61-2.21-15.36-12.49-28.78-28.22-31.95-9.06-1.82-18.58-1.27-27.87-2.02-5.42-.44-7.95,1.43-9.35,7.07-7.37,29.67-15.32,59.2-22.89,88.82-5.02,19.65-4.88,19.68,15.01,20.08Z"/>
  <path class="cls-1" d="M871.93,136.57h53.07c.42,1.05.89,1.64.84,2.18-.99,11.1,1.02,20.69,13.28,24.39,11.74,3.54,32.93-3.03,39.06-11.75,6.48-9.22,1.34-20.44-12.12-25-14.14-4.79-28.47-9.02-42.78-13.27-33.08-9.84-34.77-35.12-24.99-61.9,9.28-25.41,29.63-38.91,54.24-45.6,26.74-7.27,54-8.06,80.78,1.12,14.11,4.84,21.2,14.4,21.91,29.29.22,4.6.4,9.25-.02,13.83-1.24,13.79-1.36,13.78-14.81,13.78-11.42,0-22.84-.13-34.26.06-5.24.09-8.05-1.63-7.7-7.29.47-7.48-3.86-10.7-10.57-12.7-12.08-3.6-25.65.8-32.09,11.15-5.38,8.64-.44,17.67,10.97,20.56,15.09,3.82,30.48,6.84,45.07,12.1,13.34,4.81,26.71,12.26,29.33,27.81,3.22,19.08-2.22,37.2-13.37,52.9-17.98,25.3-44.59,34.46-74.05,36.14-14.55.83-29.36-.13-43.88-1.79-35.84-4.11-46.78-33.41-37.93-66Z"/>
  <path class="cls-1" d="M685.87,200.69c3.44-14.4,6.37-27.39,9.66-40.29,12.18-47.82,24.5-95.61,36.73-143.42,3.15-12.33,5.34-14.05,18.68-14.05,39.79,0,79.57-.02,119.36,0,10.59,0,12.72,2.71,10.12,12.91-1.49,5.85-4.28,11.57-4.68,17.47-.77,11.39-6.85,13.19-16.83,12.9-22.81-.66-45.66.09-68.47-.38-7.16-.15-9.91,3.07-11.22,9.12-1.35,6.23-1.89,12.8-4.29,18.6-3.41,8.25.06,9.74,7.16,9.7,21.2-.1,42.4.13,63.59-.12,8-.09,11.77,1.32,8.17,10.59-3.77,9.72-3.26,23.14-9.88,29.07-5.51,4.93-18.64,1.46-28.4,1.52-14.67.09-29.36.39-44.02-.13-7.6-.27-11.39,2.74-12.9,9.82-1.85,8.68-3.9,17.33-6.22,27.54,9.37,0,17.09,0,24.81,0,18.91,0,37.83,0,56.74,0,5.13,0,9.07.02,6.25,7.63-3.64,9.81-2.86,23.43-9.44,29.32-5.73,5.13-19.03,2.11-28.99,2.15-37.79.14-75.58.06-115.92.06Z"/>
  <path class="cls-1" d="M84.48,89.09c22.79,0,42.64-.05,62.49.02,9.54.03,11.32,2.61,8.45,11.93-.75,2.43-1.96,4.73-2.62,7.18q-5.39,20.02-25.32,20.03c-14.67,0-29.34.18-44.01-.08-6.49-.11-9.91,1.99-11.57,8.76-4.67,19.15-9.93,38.17-15.41,57.12-.75,2.59-3.98,6.27-6.16,6.35-15.87.54-31.77.29-50.34.29,3.46-14.65,6.35-27.88,9.72-40.98,12.28-47.78,24.95-95.45,36.89-143.31,2.57-10.3,7.12-13.92,17.93-13.71,36.17.69,72.37.25,108.56.27,11.82,0,13.55,2.15,10.72,13.47-1.77,7.09-4.34,14.03-5.58,21.2-1.13,6.57-4.62,8.48-10.68,8.44-21.52-.13-43.03.07-64.55-.13-5.7-.05-8.45,1.08-9.55,7.73-1.89,11.47-5.63,22.63-8.98,35.43Z"/>
  <path class="cls-1" d="M160.96,200.69c4.15-17.75,7.59-33.93,11.74-49.94,12.07-46.55,24.58-92.99,36.51-139.57,1.65-6.46,4.83-8.39,10.83-8.3,11.09.17,22.18.03,33.28.05,12.1.03,13.83,1.89,10.86,13.43-14.88,57.67-30.17,115.23-44.69,172.99-2.42,9.64-6.89,12.03-16.03,11.52-13.28-.74-26.64-.19-42.49-.19Z"/>
</svg>