<svg width="400" height="93" viewBox="0 0 400 93" fill="none" xmlns="http://www.w3.org/2000/svg">
<path d="M0 41.3474C1.2334 41.3474 2.19272 40.9891 2.87794 40.2724C3.56317 39.5557 3.87152 38.5783 3.87152 37.2752V14.7643C3.87152 10.1383 5.24197 6.55474 8.01713 4.01371C10.7923 1.47267 14.6638 0.202148 19.666 0.202148V10.7898C18.1927 10.7898 17.0621 11.1807 16.2398 11.9952C15.4176 12.8096 15.0064 13.9172 15.0064 15.3506V38.0571C15.0064 41.9664 13.7045 45.0287 11.1006 47.1788C8.49679 49.3289 4.79657 50.4039 0.0342607 50.4039V41.3474H0ZM8.05139 89.1059C5.27623 86.5649 3.90578 82.9488 3.90578 78.3228V55.8444C3.90578 54.5738 3.56317 53.5639 2.91221 52.8472C2.22698 52.1305 1.26767 51.7722 0.0342607 51.7722V42.7808C4.79657 42.7808 8.49679 43.8885 11.1006 46.1363C13.7045 48.3516 15.0064 51.5441 15.0064 55.6815V77.769C15.0064 79.2349 15.4176 80.3426 16.2398 81.157C17.0621 81.9714 18.227 82.3624 19.666 82.3624V92.95C14.6981 92.9175 10.7923 91.6469 8.05139 89.1059Z" fill="white"/>
<path d="M32.9936 75.4234H26.2441V10.6595H32.9936V75.4234Z" fill="white"/>
<path d="M43.3408 10.6595H49.6792L71.2637 63.8258L70.1331 64.9986V10.6595H76.7798V75.3908H70.3729L48.8569 22.1919L49.9875 21.0191V75.3582H43.3408V10.6595Z" fill="white"/>
<path d="M81.4731 10.6595H114.535V16.6211H81.4731V10.6595ZM94.6295 15.9696H101.379V75.4234H94.6295V15.9696Z" fill="white"/>
<path d="M119.229 10.627H125.978V75.4235H119.229V10.627ZM123.375 42.0642H135.983C138.004 42.0642 139.751 41.7059 141.19 40.9892C142.629 40.2725 143.76 39.23 144.514 37.8617C145.268 36.4935 145.644 34.832 145.644 32.91V26.2316C145.644 24.2118 145.268 22.4852 144.514 21.0518C143.76 19.6184 142.629 18.5107 141.19 17.7615C139.751 17.0122 138.004 16.6213 135.983 16.6213H123.375V10.627H135.503C139.066 10.627 142.116 11.2134 144.651 12.3536C147.186 13.4938 149.105 15.1879 150.441 17.3705C151.777 19.5858 152.428 22.2246 152.428 25.3194V32.8774C152.428 36.07 151.777 38.7739 150.441 41.0543C149.105 43.3347 147.186 45.0613 144.651 46.2341C142.116 47.4069 139.066 48.0259 135.503 48.0259H123.375V42.0642ZM137.49 46.0387L143.486 43.9863L154.347 75.4235H146.535L137.49 46.0387Z" fill="white"/>
<path d="M170.312 74.1855C167.777 72.9149 165.858 71.058 164.522 68.6147C163.186 66.1714 162.535 63.2395 162.535 59.7863V26.2967C162.535 22.8435 163.186 19.9115 164.522 17.4682C165.858 15.0249 167.777 13.168 170.312 11.8975C172.848 10.627 175.897 9.9754 179.46 9.9754C183.023 9.9754 186.073 10.627 188.608 11.8975C191.143 13.168 193.062 15.0249 194.398 17.4682C195.734 19.9115 196.385 22.8435 196.385 26.2967V59.7863C196.385 63.2395 195.734 66.1714 194.398 68.6147C193.062 71.058 191.143 72.9149 188.608 74.1855C186.073 75.456 183.023 76.1075 179.46 76.1075C175.897 76.1075 172.848 75.456 170.312 74.1855ZM184.976 68.6799C186.484 67.9306 187.649 66.823 188.437 65.357C189.225 63.891 189.636 62.1644 189.636 60.112V26.0035C189.636 23.9511 189.225 22.1919 188.437 20.7585C187.649 19.2925 186.484 18.1849 184.976 17.4356C183.469 16.6863 181.619 16.2954 179.46 16.2954C177.302 16.2954 175.486 16.6863 173.944 17.4356C172.437 18.1849 171.272 19.2925 170.484 20.7585C169.696 22.2245 169.285 23.9511 169.285 26.0035V60.112C169.285 62.1644 169.696 63.9236 170.484 65.357C171.272 66.823 172.437 67.9306 173.944 68.6799C175.452 69.4292 177.302 69.8201 179.46 69.8201C181.619 69.8201 183.435 69.4292 184.976 68.6799Z" fill="white"/>
<path d="M212.762 74.1529C210.33 72.8498 208.445 70.9929 207.178 68.517C205.876 66.0411 205.225 63.0765 205.225 59.6233V26.4921C205.225 23.0063 205.876 20.0418 207.178 17.5985C208.479 15.1226 210.33 13.2657 212.762 11.9626C215.195 10.6595 218.141 10.0405 221.567 10.0405C224.993 10.0405 227.94 10.6921 230.407 11.9626C232.873 13.2657 234.724 15.1552 235.991 17.6311C237.259 20.1069 237.91 23.0715 237.91 26.5573V31.7697H226.158V26.5573C226.158 25.4496 225.987 24.5049 225.644 23.6905C225.302 22.876 224.788 22.2571 224.068 21.8335C223.349 21.41 222.527 21.182 221.567 21.182C220.642 21.182 219.82 21.3775 219.135 21.801C218.449 22.2245 217.936 22.8109 217.559 23.6253C217.216 24.4397 217.01 25.3845 217.01 26.4921V59.6233C217.01 60.731 217.182 61.6757 217.559 62.4576C217.901 63.2394 218.449 63.8584 219.135 64.2493C219.82 64.6728 220.642 64.8683 221.567 64.8683C222.561 64.8683 223.417 64.6728 224.103 64.2493C224.788 63.8258 225.302 63.2394 225.644 62.4576C225.987 61.6757 226.158 60.6984 226.158 59.5908V54.3784H237.91V59.5908C237.91 63.0765 237.259 66.0411 235.991 68.517C234.724 70.9929 232.839 72.8823 230.407 74.1854C227.94 75.4885 225.028 76.1075 221.567 76.1075C218.141 76.1075 215.195 75.456 212.762 74.1529Z" fill="white"/>
<path d="M253.362 74.2832C250.758 73.0778 248.771 71.3512 247.4 69.0708C246.03 66.7904 245.345 64.0539 245.345 60.8613V25.2216C245.345 22.029 246.03 19.26 247.4 16.9795C248.771 14.6991 250.758 12.9725 253.362 11.7672C255.966 10.5944 259.083 9.9754 262.749 9.9754C266.415 9.9754 269.533 10.5618 272.137 11.7672C274.741 12.9399 276.728 14.6991 278.098 16.9795C279.469 19.26 280.154 21.9965 280.154 25.2216V60.8613C280.154 64.0539 279.469 66.823 278.098 69.0708C276.728 71.3512 274.741 73.0778 272.137 74.2832C269.533 75.4886 266.415 76.075 262.749 76.075C259.083 76.075 255.966 75.4886 253.362 74.2832ZM265.799 64.3797C266.655 63.9236 267.306 63.3046 267.752 62.4576C268.197 61.6106 268.403 60.6007 268.403 59.4279V26.5573C268.403 25.3845 268.197 24.4072 267.752 23.5602C267.306 22.7132 266.655 22.0942 265.799 21.6381C264.942 21.182 263.914 20.954 262.715 20.954C261.516 20.954 260.522 21.182 259.666 21.6381C258.809 22.0942 258.193 22.7132 257.747 23.5602C257.302 24.4072 257.096 25.3845 257.096 26.5573V59.4279C257.096 60.6007 257.302 61.6106 257.747 62.4576C258.193 63.3046 258.809 63.9236 259.666 64.3797C260.522 64.8358 261.516 65.0638 262.715 65.0638C263.914 65.0638 264.942 64.8358 265.799 64.3797Z" fill="white"/>
<path d="M322.501 10.6595H333.362V75.4234H323.015V30.2059L323.734 33.0727L313.867 63.9887H308.043L298.175 33.9849L299.1 30.2385V75.4559H288.514V10.6595H299.649L310.921 45.8431L322.501 10.6595Z" fill="white"/>
<path d="M341.722 10.6595H353.336V75.4234H341.722V10.6595ZM347.135 39.7185H359.161C360.086 39.7185 360.908 39.5231 361.593 39.0996C362.278 38.6761 362.827 38.0897 363.169 37.2752C363.512 36.4608 363.717 35.516 363.717 34.4084V26.7853C363.717 25.6125 363.546 24.6352 363.169 23.7882C362.827 22.9412 362.278 22.3222 361.593 21.8987C360.908 21.4752 360.086 21.2471 359.126 21.2471H347.101V10.6595H359.469C362.827 10.6595 365.739 11.2133 368.137 12.3535C370.535 13.4937 372.351 15.1226 373.619 17.3053C374.852 19.488 375.503 22.0942 375.503 25.1564V36.0699C375.503 39.067 374.887 41.6406 373.619 43.7581C372.351 45.8757 370.535 47.5045 368.103 48.6122C365.705 49.7198 362.827 50.2736 359.469 50.2736H347.101V39.7185H347.135Z" fill="white"/>
<path d="M388.968 47.1136C386.33 44.9634 385.028 41.9338 385.028 38.057V15.3506C385.028 13.8846 384.617 12.777 383.794 11.9951C382.972 11.2133 381.807 10.8223 380.368 10.8223V0.202087C385.405 0.202087 389.276 1.47261 392.017 4.01364C394.758 6.55468 396.128 10.1382 396.128 14.7642V37.2426C396.128 38.5131 396.471 39.523 397.156 40.2397C397.841 40.9564 398.801 41.3148 400 41.3148V50.3061C395.272 50.3387 391.606 49.2637 388.968 47.1136ZM380.368 82.3297C381.841 82.3297 382.972 81.9388 383.794 81.1244C384.617 80.3099 385.028 79.2023 385.028 77.7363V55.6488C385.028 51.5441 386.33 48.3841 388.933 46.1688C391.537 43.9535 395.238 42.8133 400 42.8133V51.8047C398.766 51.8047 397.841 52.1631 397.156 52.8798C396.471 53.5965 396.128 54.5738 396.128 55.8769V78.3227C396.128 82.9813 394.758 86.5974 392.017 89.1384C389.276 91.6795 385.37 92.95 380.368 92.95V82.3297Z" fill="white"/>
</svg>
