<svg width="1970" height="888" viewBox="0 0 1970 888" fill="none" xmlns="http://www.w3.org/2000/svg">
<circle cx="1486.51" cy="243.245" r="59.1677" fill="#FEFEFE"/>
<path d="M1525.95 269.542L1726.47 371.442V637.697" stroke="#FEFEFE" stroke-width="19.7226"/>
<mask id="mask0_276_36" style="mask-type:alpha" maskUnits="userSpaceOnUse" x="958" y="0" width="1012" height="503">
<path fill-rule="evenodd" clip-rule="evenodd" d="M1464 0.264648L958 254.897L1464 503L1970 254.897L1464 0.264648Z" fill="white"/>
</mask>
<g mask="url(#mask0_276_36)">
<path fill-rule="evenodd" clip-rule="evenodd" d="M1464 0.264648L958 254.897L1464 503L1970 254.897L1464 0.264648ZM1561.6 260.461C1563.05 254.575 1563.81 248.422 1563.81 242.092C1563.81 199.584 1529.35 165.124 1486.84 165.124C1444.33 165.124 1409.87 199.584 1409.87 242.092C1409.87 284.6 1444.33 319.059 1486.84 319.059C1504.35 319.059 1520.5 313.211 1533.43 303.362L1752.48 414.251L1775.52 368.749L1561.6 260.461Z" fill="#FEFEFE"/>
</g>
<path d="M1134 542.733V357L1464 519L1702.5 404.053V588.631L1464 710.5L1134 542.733Z" fill="white"/>
<path d="M1750.5 568.582V382.505L1794.71 360.442V546.02L1750.5 568.582Z" fill="white"/>
<circle cx="1729.75" cy="644.271" r="26.2968" fill="#F9FAFC"/>
<path d="M1729.75 611.4L1775.3 818.487H1684.21L1729.75 611.4Z" fill="#FFFDFA"/>
<path d="M22.9006 282C18.5087 282 16.3127 279.804 16.3127 275.412V182.241C16.3127 177.849 18.5087 175.653 22.9006 175.653C25.7762 175.653 28.1813 177.065 30.1158 179.888L67.1332 235.571L64.3099 236.042L101.641 179.888C103.419 177.065 106.085 175.653 109.64 175.653C113.196 175.653 114.973 177.849 114.973 182.241V275.412C114.973 279.804 112.778 282 108.386 282C103.994 282 101.798 279.804 101.798 275.412V195.417L105.876 196.829L72.9368 245.296C71.0023 248.12 68.3358 249.531 64.9373 249.531C62.5845 249.531 60.4408 248.12 58.5063 245.296L25.5671 196.829L29.4884 197.927V275.412C29.4884 279.804 27.2925 282 22.9006 282ZM178.956 282C166.983 282 158.121 279.15 152.37 273.451C146.671 267.7 143.821 258.838 143.821 246.865V210.632C143.821 198.554 146.697 189.692 152.448 184.045C158.199 178.346 167.035 175.549 178.956 175.653H197.779C209.804 175.653 218.666 178.503 224.365 184.202C230.064 189.901 232.914 198.763 232.914 210.789V246.865C232.914 258.838 230.064 267.7 224.365 273.451C218.666 279.15 209.804 282 197.779 282H178.956ZM178.956 268.824H197.779C203.373 268.824 207.765 268.171 210.954 266.864C214.144 265.504 216.392 263.23 217.699 260.041C219.058 256.851 219.738 252.459 219.738 246.865V210.789C219.738 205.246 219.058 200.881 217.699 197.691C216.392 194.502 214.144 192.228 210.954 190.868C207.765 189.509 203.373 188.829 197.779 188.829H178.956C173.414 188.777 169.048 189.404 165.859 190.711C162.67 192.018 160.395 194.267 159.036 197.456C157.676 200.645 156.997 205.037 156.997 210.632V246.865C156.997 252.459 157.65 256.851 158.957 260.041C160.317 263.23 162.591 265.504 165.781 266.864C168.97 268.171 173.362 268.824 178.956 268.824ZM288.289 282C279.348 282 272.368 280.196 267.349 276.589C262.382 272.981 259.271 267.413 258.016 259.884C257.807 257.583 258.278 255.858 259.428 254.708C260.578 253.557 262.251 252.982 264.447 252.982C266.643 252.982 268.238 253.505 269.231 254.551C270.277 255.596 270.983 257.217 271.349 259.413C272.133 263.021 273.806 265.504 276.368 266.864C278.982 268.171 282.956 268.824 288.289 268.824H310.876C317.621 268.824 322.196 267.622 324.601 265.217C327.058 262.759 328.287 258.211 328.287 251.57C328.287 244.826 327.032 240.225 324.522 237.767C322.013 235.258 317.464 234.003 310.876 234.003H291.426C281.544 234.003 274.198 231.598 269.388 226.788C264.63 221.925 262.251 214.553 262.251 204.671C262.251 194.842 264.604 187.548 269.31 182.79C274.068 178.032 281.388 175.653 291.269 175.653H309.935C318.248 175.653 324.757 177.353 329.463 180.751C334.221 184.15 337.227 189.352 338.482 196.358C338.796 198.606 338.378 200.332 337.227 201.534C336.077 202.684 334.352 203.26 332.051 203.26C329.96 203.26 328.391 202.711 327.346 201.613C326.3 200.515 325.62 198.92 325.306 196.829C324.47 193.744 322.875 191.652 320.522 190.555C318.17 189.404 314.64 188.829 309.935 188.829H291.269C284.995 188.829 280.786 189.953 278.643 192.201C276.499 194.397 275.427 198.554 275.427 204.671C275.427 210.841 276.525 215.076 278.721 217.376C280.917 219.677 285.152 220.827 291.426 220.827H310.876C321.176 220.827 328.836 223.337 333.855 228.356C338.927 233.375 341.462 241.114 341.462 251.57C341.462 261.975 338.953 269.661 333.933 274.628C328.914 279.543 321.228 282 310.876 282H288.289ZM394.334 282C392.138 282 390.491 281.451 389.393 280.353C388.295 279.255 387.746 277.608 387.746 275.412V188.986H357.317C355.121 188.986 353.474 188.437 352.376 187.339C351.278 186.241 350.729 184.594 350.729 182.398C350.729 180.202 351.278 178.555 352.376 177.457C353.474 176.359 355.121 175.81 357.317 175.81H431.352C433.548 175.81 435.194 176.359 436.292 177.457C437.39 178.555 437.939 180.202 437.939 182.398C437.939 184.594 437.39 186.241 436.292 187.339C435.194 188.437 433.548 188.986 431.352 188.986H400.922V275.412C400.922 277.504 400.347 279.124 399.197 280.275C398.099 281.425 396.478 282 394.334 282ZM527.229 282.314C525.504 283.412 523.857 283.752 522.289 283.333C520.72 282.915 519.387 281.843 518.289 280.118L493.976 239.65H472.017V275.412C472.017 279.804 469.821 282 465.429 282C461.037 282 458.841 279.804 458.841 275.412V182.241C458.841 177.849 461.037 175.653 465.429 175.653H502.133C511.701 175.653 519.021 178.215 524.092 183.339C529.216 188.411 531.778 195.731 531.778 205.299V210.004C531.778 218.318 529.844 224.958 525.975 229.925C522.106 234.839 516.511 237.898 509.191 239.101L529.739 273.373C531.726 277.033 530.889 280.013 527.229 282.314ZM472.017 226.474H502.133C508.093 226.474 512.328 225.219 514.838 222.709C517.348 220.2 518.602 215.965 518.602 210.004V205.299C518.602 199.391 517.348 195.182 514.838 192.672C512.328 190.11 508.093 188.829 502.133 188.829H472.017V226.474ZM551.855 281.373C547.673 279.752 546.418 276.876 548.091 272.746L585.422 180.83C586.991 177.379 589.448 175.653 592.794 175.653H593.108C596.506 175.81 598.807 177.536 600.009 180.83L637.968 272.746C639.641 276.876 638.438 279.752 634.36 281.373C630.23 282.993 627.354 281.791 625.733 277.765L617.263 257.217H568.403L560.325 277.765C558.705 281.843 555.881 283.046 551.855 281.373ZM573.58 244.041H611.852L592.324 196.515L573.58 244.041ZM717.252 282C712.86 282 710.664 279.804 710.664 275.412V182.241C710.664 177.849 712.86 175.653 717.252 175.653H755.054C768.7 175.653 778.739 178.895 785.17 185.378C791.653 191.809 794.895 201.848 794.895 215.494V242.159C794.895 255.805 791.679 265.87 785.248 272.354C778.87 278.785 768.805 282 755.054 282H717.252ZM723.84 268.824H755.054C761.746 268.824 767.027 268.014 770.896 266.393C774.818 264.72 777.589 261.949 779.209 258.08C780.883 254.159 781.719 248.852 781.719 242.159V215.494C781.719 208.854 780.883 203.599 779.209 199.73C777.589 195.809 774.818 193.012 770.896 191.339C767.027 189.666 761.746 188.829 755.054 188.829H723.84V268.824ZM830.297 282C825.905 282 823.709 279.804 823.709 275.412V182.241C823.709 177.849 825.905 175.653 830.297 175.653H886.607C890.999 175.653 893.195 177.849 893.195 182.241C893.195 186.633 890.999 188.829 886.607 188.829H836.885V221.768H868.099C872.491 221.768 874.687 223.964 874.687 228.356C874.687 232.748 872.491 234.944 868.099 234.944H836.885V268.824H886.607C890.999 268.824 893.195 271.02 893.195 275.412C893.195 279.804 890.999 282 886.607 282H830.297ZM22.9006 428C18.5087 428 16.3127 425.804 16.3127 421.412V328.241C16.3127 323.849 18.5087 321.653 22.9006 321.653H59.6043C69.1723 321.653 76.4921 324.215 81.5637 329.339C86.6876 334.411 89.2495 341.731 89.2495 351.299V356.004C89.2495 365.572 86.6876 372.918 81.5637 378.042C76.4921 383.114 69.1723 385.65 59.6043 385.65H29.4884V421.412C29.4884 425.804 27.2925 428 22.9006 428ZM29.4884 372.474H59.6043C65.5647 372.474 69.7997 371.219 72.3094 368.709C74.819 366.2 76.0739 361.965 76.0739 356.004V351.299C76.0739 345.391 74.819 341.182 72.3094 338.672C69.7997 336.11 65.5647 334.829 59.6043 334.829H29.4884V372.474ZM180.896 428.314C179.171 429.412 177.524 429.752 175.955 429.333C174.387 428.915 173.053 427.843 171.955 426.118L147.643 385.65H125.684V421.412C125.684 425.804 123.488 428 119.096 428C114.704 428 112.508 425.804 112.508 421.412V328.241C112.508 323.849 114.704 321.653 119.096 321.653H155.799C165.368 321.653 172.687 324.215 177.759 329.339C182.883 334.411 185.445 341.731 185.445 351.299V356.004C185.445 364.318 183.51 370.958 179.641 375.925C175.772 380.839 170.178 383.898 162.858 385.101L183.406 419.373C185.392 423.033 184.556 426.013 180.896 428.314ZM125.684 372.474H155.799C161.76 372.474 165.995 371.219 168.505 368.709C171.014 366.2 172.269 361.965 172.269 356.004V351.299C172.269 345.391 171.014 341.182 168.505 338.672C165.995 336.11 161.76 334.829 155.799 334.829H125.684V372.474ZM241.912 428C229.939 428 221.077 425.15 215.325 419.451C209.626 413.7 206.777 404.838 206.777 392.865V356.632C206.777 344.554 209.652 335.692 215.404 330.045C221.155 324.346 229.991 321.549 241.912 321.653H260.734C272.76 321.653 281.622 324.503 287.321 330.202C293.02 335.901 295.87 344.763 295.87 356.789V392.865C295.87 404.838 293.02 413.7 287.321 419.451C281.622 425.15 272.76 428 260.734 428H241.912ZM241.912 414.824H260.734C266.329 414.824 270.721 414.171 273.91 412.864C277.099 411.504 279.348 409.23 280.655 406.041C282.014 402.851 282.694 398.459 282.694 392.865V356.789C282.694 351.246 282.014 346.881 280.655 343.691C279.348 340.502 277.099 338.228 273.91 336.868C270.721 335.509 266.329 334.829 260.734 334.829H241.912C236.37 334.777 232.004 335.404 228.815 336.711C225.625 338.018 223.351 340.267 221.992 343.456C220.632 346.645 219.952 351.037 219.952 356.632V392.865C219.952 398.459 220.606 402.851 221.913 406.041C223.273 409.23 225.547 411.504 228.736 412.864C231.926 414.171 236.318 414.824 241.912 414.824ZM331.246 428C326.854 428 324.658 425.804 324.658 421.412V328.241C324.658 323.849 326.854 321.653 331.246 321.653H388.968C391.007 321.653 392.602 322.255 393.752 323.457C394.955 324.608 395.556 326.202 395.556 328.241C395.556 332.633 393.36 334.829 388.968 334.829H337.834V367.768H369.361C373.753 367.768 375.949 369.964 375.949 374.356C375.949 378.748 373.753 380.944 369.361 380.944H337.834V421.412C337.834 425.804 335.638 428 331.246 428ZM418.404 428C416.156 428 414.482 427.477 413.385 426.431C412.339 425.333 411.816 423.66 411.816 421.412V328.398C411.816 326.098 412.339 324.425 413.385 323.379C414.482 322.333 416.156 321.81 418.404 321.81C420.704 321.81 422.377 322.333 423.423 323.379C424.469 324.425 424.992 326.098 424.992 328.398V421.412C424.992 423.66 424.469 425.333 423.423 426.431C422.377 427.477 420.704 428 418.404 428ZM484.203 428C475.262 428 468.282 426.196 463.263 422.589C458.296 418.981 455.185 413.413 453.93 405.884C453.721 403.583 454.191 401.858 455.342 400.708C456.492 399.557 458.165 398.982 460.361 398.982C462.557 398.982 464.151 399.505 465.145 400.551C466.191 401.596 466.896 403.217 467.262 405.413C468.047 409.021 469.72 411.504 472.282 412.864C474.896 414.171 478.87 414.824 484.203 414.824H506.789C513.534 414.824 518.109 413.622 520.514 411.217C522.971 408.759 524.2 404.211 524.2 397.57C524.2 390.826 522.945 386.225 520.436 383.767C517.926 381.258 513.377 380.003 506.789 380.003H487.34C477.458 380.003 470.112 377.598 465.302 372.788C460.544 367.925 458.165 360.553 458.165 350.671C458.165 340.842 460.518 333.548 465.223 328.79C469.981 324.032 477.301 321.653 487.183 321.653H505.848C514.162 321.653 520.671 323.353 525.377 326.751C530.134 330.15 533.141 335.352 534.396 342.358C534.709 344.606 534.291 346.332 533.141 347.534C531.991 348.684 530.265 349.26 527.965 349.26C525.873 349.26 524.305 348.711 523.259 347.613C522.213 346.515 521.534 344.92 521.22 342.829C520.383 339.744 518.789 337.652 516.436 336.555C514.083 335.404 510.554 334.829 505.848 334.829H487.183C480.909 334.829 476.7 335.953 474.556 338.201C472.412 340.397 471.341 344.554 471.341 350.671C471.341 356.841 472.439 361.076 474.634 363.376C476.83 365.677 481.065 366.827 487.34 366.827H506.789C517.089 366.827 524.749 369.337 529.768 374.356C534.84 379.375 537.376 387.114 537.376 397.57C537.376 407.975 534.866 415.661 529.847 420.628C524.828 425.543 517.142 428 506.789 428H484.203ZM592.805 428C583.864 428 576.884 426.196 571.865 422.589C566.898 418.981 563.787 413.413 562.532 405.884C562.323 403.583 562.794 401.858 563.944 400.708C565.094 399.557 566.767 398.982 568.963 398.982C571.159 398.982 572.754 399.505 573.747 400.551C574.793 401.596 575.499 403.217 575.865 405.413C576.649 409.021 578.322 411.504 580.884 412.864C583.498 414.171 587.472 414.824 592.805 414.824H615.392C622.137 414.824 626.712 413.622 629.117 411.217C631.574 408.759 632.803 404.211 632.803 397.57C632.803 390.826 631.548 386.225 629.038 383.767C626.529 381.258 621.98 380.003 615.392 380.003H595.942C586.06 380.003 578.714 377.598 573.904 372.788C569.146 367.925 566.767 360.553 566.767 350.671C566.767 340.842 569.12 333.548 573.826 328.79C578.584 324.032 585.904 321.653 595.785 321.653H614.451C622.764 321.653 629.273 323.353 633.979 326.751C638.737 330.15 641.743 335.352 642.998 342.358C643.312 344.606 642.894 346.332 641.743 347.534C640.593 348.684 638.868 349.26 636.567 349.26C634.476 349.26 632.907 348.711 631.862 347.613C630.816 346.515 630.136 344.92 629.822 342.829C628.986 339.744 627.391 337.652 625.038 336.555C622.686 335.404 619.156 334.829 614.451 334.829H595.785C589.511 334.829 585.302 335.953 583.159 338.201C581.015 340.397 579.943 344.554 579.943 350.671C579.943 356.841 581.041 361.076 583.237 363.376C585.433 365.677 589.668 366.827 595.942 366.827H615.392C625.692 366.827 633.352 369.337 638.371 374.356C643.443 379.375 645.978 387.114 645.978 397.57C645.978 407.975 643.469 415.661 638.449 420.628C633.43 425.543 625.744 428 615.392 428H592.805ZM706.192 428C694.219 428 685.356 425.15 679.605 419.451C673.906 413.7 671.057 404.838 671.057 392.865V356.632C671.057 344.554 673.932 335.692 679.684 330.045C685.435 324.346 694.271 321.549 706.192 321.653H725.014C737.04 321.653 745.902 324.503 751.601 330.202C757.3 335.901 760.149 344.763 760.149 356.789V392.865C760.149 404.838 757.3 413.7 751.601 419.451C745.902 425.15 737.04 428 725.014 428H706.192ZM706.192 414.824H725.014C730.609 414.824 735 414.171 738.19 412.864C741.379 411.504 743.627 409.23 744.934 406.041C746.294 402.851 746.974 398.459 746.974 392.865V356.789C746.974 351.246 746.294 346.881 744.934 343.691C743.627 340.502 741.379 338.228 738.19 336.868C735 335.509 730.609 334.829 725.014 334.829H706.192C700.65 334.777 696.284 335.404 693.094 336.711C689.905 338.018 687.631 340.267 686.271 343.456C684.912 346.645 684.232 351.037 684.232 356.632V392.865C684.232 398.459 684.886 402.851 686.193 406.041C687.552 409.23 689.827 411.504 693.016 412.864C696.205 414.171 700.597 414.824 706.192 414.824ZM726.896 312.87C723.446 312.87 720.701 312.085 718.662 310.517C716.675 308.948 715.08 307.589 713.878 306.439C712.57 305.079 711.551 304.164 710.819 303.694C710.087 303.223 709.198 302.988 708.152 302.988C705.956 302.988 704.44 303.668 703.604 305.027C702.767 306.386 702.218 307.354 701.957 307.929C701.277 309.393 700.44 310.569 699.447 311.458C698.506 312.295 696.937 312.295 694.741 311.458C692.702 310.726 691.578 309.785 691.369 308.635C691.212 307.432 691.395 306.151 691.918 304.792C693.277 301.08 695.343 298.099 698.114 295.851C700.885 293.603 704.179 292.479 707.996 292.479C711.551 292.479 714.348 293.263 716.387 294.832C718.479 296.4 720.152 297.812 721.406 299.067C722.766 300.374 723.759 301.236 724.387 301.655C725.066 302.021 725.851 302.204 726.74 302.204C728.203 302.204 729.197 301.89 729.72 301.263C730.295 300.583 730.87 299.589 731.445 298.282C732.177 296.609 733.014 295.38 733.955 294.596C734.948 293.76 736.412 293.629 738.347 294.204C740.752 294.884 741.98 295.903 742.033 297.263C742.085 298.622 741.954 299.799 741.641 300.792C740.386 304.609 738.504 307.589 735.994 309.733C733.536 311.824 730.504 312.87 726.896 312.87ZM795.526 428C791.134 428 788.938 425.804 788.938 421.412V328.241C788.938 323.849 791.134 321.653 795.526 321.653H851.836C856.228 321.653 858.424 323.849 858.424 328.241C858.424 332.633 856.228 334.829 851.836 334.829H802.114V367.768H833.327C837.719 367.768 839.915 369.964 839.915 374.356C839.915 378.748 837.719 380.944 833.327 380.944H802.114V414.824H851.836C856.228 414.824 858.424 417.02 858.424 421.412C858.424 425.804 856.228 428 851.836 428H795.526ZM910.035 428C901.094 428 894.114 426.196 889.095 422.589C884.128 418.981 881.017 413.413 879.762 405.884C879.553 403.583 880.024 401.858 881.174 400.708C882.324 399.557 883.997 398.982 886.193 398.982C888.389 398.982 889.984 399.505 890.977 400.551C892.023 401.596 892.729 403.217 893.095 405.413C893.879 409.021 895.552 411.504 898.114 412.864C900.728 414.171 904.702 414.824 910.035 414.824H932.622C939.366 414.824 943.941 413.622 946.346 411.217C948.804 408.759 950.032 404.211 950.032 397.57C950.032 390.826 948.778 386.225 946.268 383.767C943.758 381.258 939.21 380.003 932.622 380.003H913.172C903.29 380.003 895.944 377.598 891.134 372.788C886.376 367.925 883.997 360.553 883.997 350.671C883.997 340.842 886.35 333.548 891.056 328.79C895.814 324.032 903.133 321.653 913.015 321.653H931.681C939.994 321.653 946.503 323.353 951.209 326.751C955.967 330.15 958.973 335.352 960.228 342.358C960.542 344.606 960.123 346.332 958.973 347.534C957.823 348.684 956.097 349.26 953.797 349.26C951.706 349.26 950.137 348.711 949.091 347.613C948.046 346.515 947.366 344.92 947.052 342.829C946.216 339.744 944.621 337.652 942.268 336.555C939.915 335.404 936.386 334.829 931.681 334.829H913.015C906.741 334.829 902.532 335.953 900.388 338.201C898.245 340.397 897.173 344.554 897.173 350.671C897.173 356.841 898.271 361.076 900.467 363.376C902.663 365.677 906.898 366.827 913.172 366.827H932.622C942.922 366.827 950.581 369.337 955.601 374.356C960.672 379.375 963.208 387.114 963.208 397.57C963.208 407.975 960.699 415.661 955.679 420.628C950.66 425.543 942.974 428 932.622 428H910.035Z" fill="white"/>
<path d="M64.4344 557.647C64.4344 566.735 65.9406 573.194 68.9531 577.023C71.9656 580.853 77.3013 582.768 84.9601 582.768C90.3724 582.768 94.5337 581.797 97.4441 579.857C100.405 577.917 102.422 574.981 103.495 571.05C104.618 567.118 105.18 561.859 105.18 555.272V508.247L92.9253 503.498V490.172L141.253 489.406V503.498L129.535 508.247V555.272C129.535 570.947 126.037 582.64 119.042 590.35C112.098 598.06 100.482 601.915 84.1942 601.915C68.6212 601.915 57.3627 598.366 50.4187 591.269C43.5257 584.121 40.0792 572.913 40.0792 557.647V508.247L28.5144 503.498V490.172L76.612 489.406V503.498L64.4344 508.247V557.647ZM148.323 586.674L160.118 581.925V508.247L148.323 503.498V490.172L184.397 489.406H228.358V519.199H213.73L209.824 508.247H184.397V535.666H216.87V552.975H184.397V581.925L198.872 586.674V600H148.323V586.674ZM301.602 551.366H269.894V581.159H298.002L301.602 568.292H315.694V600H233.821V586.674L245.615 581.925V508.247L233.821 503.498V490.172L269.894 489.406H313.856V519.659H299.687L295.781 508.247H269.894V534.134H301.602V551.366ZM346.966 579.168C347.273 579.372 348.09 579.73 349.417 580.24C350.796 580.751 352.608 581.261 354.855 581.772C357.102 582.231 359.578 582.461 362.284 582.461C367.594 582.461 372.087 581.338 375.764 579.091C379.44 576.845 381.278 573.73 381.278 569.748C381.278 567.348 380.461 565.331 378.827 563.697C377.244 562.063 375.202 560.71 372.7 559.638C370.249 558.515 366.675 557.11 361.978 555.425C355.085 553.026 349.392 550.651 344.899 548.303C340.405 545.954 336.499 542.559 333.181 538.116C329.913 533.674 328.279 527.905 328.279 520.807C328.279 513.812 329.989 507.813 333.41 502.809C336.882 497.754 341.631 493.95 347.656 491.397C353.681 488.844 360.497 487.568 368.105 487.568C373.313 487.568 378.47 488.028 383.576 488.947C388.733 489.866 392.971 490.836 396.289 491.857C399.659 492.827 401.778 493.491 402.646 493.848L401.804 522.339H387.405L383.499 509.013C383.091 508.911 382.197 508.681 380.819 508.324C379.44 507.966 377.73 507.609 375.687 507.251C373.645 506.843 371.653 506.639 369.713 506.639C364.403 506.639 360.293 507.685 357.382 509.779C354.472 511.872 353.017 514.553 353.017 517.82C353.017 521.19 354.574 523.845 357.689 525.786C360.855 527.675 365.833 529.819 372.624 532.219C379.517 534.619 385.184 536.968 389.626 539.265C394.119 541.563 397.949 544.856 401.115 549.145C404.331 553.434 405.94 558.923 405.94 565.612C405.94 573.271 404.102 579.857 400.425 585.372C396.749 590.835 391.72 594.996 385.337 597.856C378.955 600.664 371.705 602.068 363.586 602.068C358.378 602.068 353.17 601.608 347.962 600.689C342.805 599.821 338.516 598.928 335.095 598.009C331.674 597.039 329.504 596.4 328.585 596.094V565.995H344.592L346.966 579.168ZM446.044 580.853C459.524 569.977 469.736 561.45 476.68 555.272C483.624 549.094 489.062 543.299 492.993 537.887C496.925 532.423 498.891 527.241 498.891 522.339C498.891 517.54 497.206 513.736 493.836 510.928C490.517 508.068 486.075 506.639 480.509 506.639C478.007 506.639 475.684 506.868 473.54 507.328C471.395 507.736 469.659 508.17 468.332 508.63C467.055 509.089 466.264 509.37 465.957 509.472L464.426 522.799H447.883L447.117 493.848C448.036 493.542 450.231 492.878 453.703 491.857C457.175 490.836 461.439 489.866 466.494 488.947C471.599 488.028 476.654 487.568 481.658 487.568C495.24 487.568 505.758 489.942 513.213 494.691C520.718 499.439 524.471 507.353 524.471 518.433C524.471 525.428 522.761 532.143 519.34 538.576C515.97 545.009 511.221 551.392 505.094 557.723C498.967 564.054 490.619 571.764 480.05 580.853H527.152V600H446.044V580.853ZM581.631 487.568C591.791 487.568 599.808 489.687 605.679 493.925C611.602 498.112 615.815 504.264 618.317 512.383C620.818 520.501 622.069 530.789 622.069 543.248C622.069 562.497 618.674 577.126 611.883 587.133C605.092 597.09 594.472 602.068 580.022 602.068C565.675 602.068 555.233 597.345 548.698 587.899C542.213 578.402 538.971 564.284 538.971 545.546C538.971 526.501 542.341 512.076 549.081 502.273C555.82 492.47 566.67 487.568 581.631 487.568ZM580.712 507.175C576.627 507.175 573.41 508.349 571.061 510.698C568.713 513.046 567.002 516.952 565.93 522.416C564.909 527.828 564.398 535.283 564.398 544.78C564.398 558.361 565.649 568.037 568.151 573.807C570.653 579.576 574.84 582.461 580.712 582.461C584.592 582.461 587.681 581.21 589.979 578.708C592.276 576.155 593.936 572.122 594.957 566.607C595.978 561.042 596.489 553.511 596.489 544.014C596.489 534.721 596.004 527.445 595.034 522.186C594.064 516.876 592.455 513.046 590.209 510.698C587.962 508.349 584.796 507.175 580.712 507.175ZM631.438 580.853C644.917 569.977 655.129 561.45 662.073 555.272C669.017 549.094 674.455 543.299 678.387 537.887C682.318 532.423 684.284 527.241 684.284 522.339C684.284 517.54 682.599 513.736 679.229 510.928C675.91 508.068 671.468 506.639 665.903 506.639C663.401 506.639 661.077 506.868 658.933 507.328C656.789 507.736 655.053 508.17 653.725 508.63C652.449 509.089 651.657 509.37 651.351 509.472L649.819 522.799H633.276L632.51 493.848C633.429 493.542 635.625 492.878 639.097 491.857C642.569 490.836 646.832 489.866 651.887 488.947C656.993 488.028 662.048 487.568 667.051 487.568C680.633 487.568 691.151 489.942 698.606 494.691C706.112 499.439 709.864 507.353 709.864 518.433C709.864 525.428 708.154 532.143 704.733 538.576C701.363 545.009 696.615 551.392 690.487 557.723C684.36 564.054 676.012 571.764 665.443 580.853H712.545V600H631.438V580.853ZM721.224 580.853C734.704 569.977 744.915 561.45 751.859 555.272C758.803 549.094 764.241 543.299 768.173 537.887C772.104 532.423 774.07 527.241 774.07 522.339C774.07 517.54 772.385 513.736 769.015 510.928C765.696 508.068 761.254 506.639 755.689 506.639C753.187 506.639 750.864 506.868 748.719 507.328C746.575 507.736 744.839 508.17 743.511 508.63C742.235 509.089 741.443 509.37 741.137 509.472L739.605 522.799H723.062L722.296 493.848C723.215 493.542 725.411 492.878 728.883 491.857C732.355 490.836 736.618 489.866 741.673 488.947C746.779 488.028 751.834 487.568 756.838 487.568C770.419 487.568 780.938 489.942 788.392 494.691C795.898 499.439 799.651 507.353 799.651 518.433C799.651 525.428 797.94 532.143 794.519 538.576C791.149 545.009 786.401 551.392 780.274 557.723C774.147 564.054 765.799 571.764 755.229 580.853H802.331V600H721.224V580.853Z" fill="white"/>
</svg>
