<svg width="1970" height="888" viewBox="0 0 1970 888" fill="none" xmlns="http://www.w3.org/2000/svg">
<circle cx="1486.51" cy="242.981" r="59.1677" fill="#FEFEFE"/>
<path d="M1525.95 269.277L1726.47 371.177V637.432" stroke="#FEFEFE" stroke-width="19.7226"/>
<mask id="mask0_715_2" style="mask-type:alpha" maskUnits="userSpaceOnUse" x="958" y="0" width="1012" height="503">
<path fill-rule="evenodd" clip-rule="evenodd" d="M1464 0L958 254.632L1464 502.735L1970 254.632L1464 0Z" fill="white"/>
</mask>
<g mask="url(#mask0_715_2)">
<path fill-rule="evenodd" clip-rule="evenodd" d="M1464 0L958 254.632L1464 502.735L1970 254.632L1464 0ZM1561.6 260.196C1563.05 254.31 1563.81 248.158 1563.81 241.827C1563.81 199.319 1529.35 164.859 1486.84 164.859C1444.33 164.859 1409.87 199.319 1409.87 241.827C1409.87 284.335 1444.33 318.795 1486.84 318.795C1504.35 318.795 1520.5 312.947 1533.43 303.097L1752.48 413.986L1775.52 368.484L1561.6 260.196Z" fill="#FEFEFE"/>
</g>
<path d="M1134 542.468V356.735L1464 518.735L1702.5 403.789V588.366L1464 710.235L1134 542.468Z" fill="white"/>
<path d="M1750.5 568.317V382.24L1794.71 360.178V545.755L1750.5 568.317Z" fill="white"/>
<circle cx="1729.75" cy="644.006" r="26.2968" fill="#F9FAFC"/>
<path d="M1729.75 611.135L1775.3 818.222H1684.21L1729.75 611.135Z" fill="#FFFDFA"/>
<path d="M22.9006 281.735C18.5087 281.735 16.3127 279.539 16.3127 275.148V181.977C16.3127 177.585 18.5087 175.389 22.9006 175.389C25.7762 175.389 28.1813 176.8 30.1158 179.624L67.1332 235.307L64.3099 235.777L101.641 179.624C103.419 176.8 106.085 175.389 109.64 175.389C113.196 175.389 114.973 177.585 114.973 181.977V275.148C114.973 279.539 112.778 281.735 108.386 281.735C103.994 281.735 101.798 279.539 101.798 275.148V195.152L105.876 196.564L72.9368 245.032C71.0023 247.855 68.3358 249.267 64.9373 249.267C62.5845 249.267 60.4408 247.855 58.5063 245.032L25.5671 196.564L29.4884 197.662V275.148C29.4884 279.539 27.2925 281.735 22.9006 281.735ZM178.956 281.735C166.983 281.735 158.121 278.886 152.37 273.187C146.671 267.436 143.821 258.573 143.821 246.6V210.367C143.821 198.289 146.697 189.427 152.448 183.78C158.199 178.081 167.035 175.284 178.956 175.389H197.779C209.804 175.389 218.666 178.238 224.365 183.937C230.064 189.636 232.914 198.499 232.914 210.524V246.6C232.914 258.573 230.064 267.436 224.365 273.187C218.666 278.886 209.804 281.735 197.779 281.735H178.956ZM178.956 268.56H197.779C203.373 268.56 207.765 267.906 210.954 266.599C214.144 265.24 216.392 262.965 217.699 259.776C219.058 256.587 219.738 252.195 219.738 246.6V210.524C219.738 204.982 219.058 200.616 217.699 197.427C216.392 194.237 214.144 191.963 210.954 190.604C207.765 189.244 203.373 188.564 197.779 188.564H178.956C173.414 188.512 169.048 189.14 165.859 190.447C162.67 191.754 160.395 194.002 159.036 197.191C157.676 200.381 156.997 204.773 156.997 210.367V246.6C156.997 252.195 157.65 256.587 158.957 259.776C160.317 262.965 162.591 265.24 165.781 266.599C168.97 267.906 173.362 268.56 178.956 268.56ZM288.289 281.735C279.348 281.735 272.368 279.932 267.349 276.324C262.382 272.716 259.271 267.148 258.016 259.619C257.807 257.319 258.278 255.593 259.428 254.443C260.578 253.293 262.251 252.717 264.447 252.717C266.643 252.717 268.238 253.24 269.231 254.286C270.277 255.332 270.983 256.953 271.349 259.148C272.133 262.756 273.806 265.24 276.368 266.599C278.982 267.906 282.956 268.56 288.289 268.56H310.876C317.621 268.56 322.196 267.357 324.601 264.952C327.058 262.495 328.287 257.946 328.287 251.306C328.287 244.561 327.032 239.96 324.522 237.503C322.013 234.993 317.464 233.738 310.876 233.738H291.426C281.544 233.738 274.198 231.333 269.388 226.523C264.63 221.661 262.251 214.288 262.251 204.407C262.251 194.577 264.604 187.283 269.31 182.526C274.068 177.768 281.388 175.389 291.269 175.389H309.935C318.248 175.389 324.757 177.088 329.463 180.487C334.221 183.885 337.227 189.087 338.482 196.093C338.796 198.342 338.378 200.067 337.227 201.27C336.077 202.42 334.352 202.995 332.051 202.995C329.96 202.995 328.391 202.446 327.346 201.348C326.3 200.25 325.62 198.655 325.306 196.564C324.47 193.479 322.875 191.388 320.522 190.29C318.17 189.14 314.64 188.564 309.935 188.564H291.269C284.995 188.564 280.786 189.689 278.643 191.937C276.499 194.133 275.427 198.289 275.427 204.407C275.427 210.576 276.525 214.811 278.721 217.112C280.917 219.412 285.152 220.563 291.426 220.563H310.876C321.176 220.563 328.836 223.072 333.855 228.092C338.927 233.111 341.462 240.849 341.462 251.306C341.462 261.71 338.953 269.396 333.933 274.363C328.914 279.278 321.228 281.735 310.876 281.735H288.289ZM394.334 281.735C392.138 281.735 390.491 281.186 389.393 280.088C388.295 278.99 387.746 277.343 387.746 275.148V188.721H357.317C355.121 188.721 353.474 188.172 352.376 187.074C351.278 185.976 350.729 184.329 350.729 182.133C350.729 179.938 351.278 178.291 352.376 177.193C353.474 176.095 355.121 175.546 357.317 175.546H431.352C433.548 175.546 435.194 176.095 436.292 177.193C437.39 178.291 437.939 179.938 437.939 182.133C437.939 184.329 437.39 185.976 436.292 187.074C435.194 188.172 433.548 188.721 431.352 188.721H400.922V275.148C400.922 277.239 400.347 278.86 399.197 280.01C398.099 281.16 396.478 281.735 394.334 281.735ZM527.229 282.049C525.504 283.147 523.857 283.487 522.289 283.069C520.72 282.65 519.387 281.578 518.289 279.853L493.976 239.385H472.017V275.148C472.017 279.539 469.821 281.735 465.429 281.735C461.037 281.735 458.841 279.539 458.841 275.148V181.977C458.841 177.585 461.037 175.389 465.429 175.389H502.133C511.701 175.389 519.021 177.951 524.092 183.075C529.216 188.146 531.778 195.466 531.778 205.034V209.74C531.778 218.053 529.844 224.693 525.975 229.66C522.106 234.575 516.511 237.633 509.191 238.836L529.739 273.108C531.726 276.768 530.889 279.749 527.229 282.049ZM472.017 226.209H502.133C508.093 226.209 512.328 224.954 514.838 222.445C517.348 219.935 518.602 215.7 518.602 209.74V205.034C518.602 199.126 517.348 194.917 514.838 192.407C512.328 189.845 508.093 188.564 502.133 188.564H472.017V226.209ZM551.855 281.108C547.673 279.487 546.418 276.611 548.091 272.481L585.422 180.565C586.991 177.114 589.448 175.389 592.794 175.389H593.108C596.506 175.546 598.807 177.271 600.009 180.565L637.968 272.481C639.641 276.611 638.438 279.487 634.36 281.108C630.23 282.729 627.354 281.526 625.733 277.5L617.263 256.953H568.403L560.325 277.5C558.705 281.578 555.881 282.781 551.855 281.108ZM573.58 243.777H611.852L592.324 196.25L573.58 243.777ZM717.252 281.735C712.86 281.735 710.664 279.539 710.664 275.148V181.977C710.664 177.585 712.86 175.389 717.252 175.389H755.054C768.7 175.389 778.739 178.63 785.17 185.114C791.653 191.545 794.895 201.583 794.895 215.23V241.895C794.895 255.541 791.679 265.606 785.248 272.089C778.87 278.52 768.805 281.735 755.054 281.735H717.252ZM723.84 268.56H755.054C761.746 268.56 767.027 267.749 770.896 266.128C774.818 264.455 777.589 261.684 779.209 257.815C780.883 253.894 781.719 248.587 781.719 241.895V215.23C781.719 208.589 780.883 203.335 779.209 199.466C777.589 195.544 774.818 192.747 770.896 191.074C767.027 189.401 761.746 188.564 755.054 188.564H723.84V268.56ZM830.297 281.735C825.905 281.735 823.709 279.539 823.709 275.148V181.977C823.709 177.585 825.905 175.389 830.297 175.389H886.607C890.999 175.389 893.195 177.585 893.195 181.977C893.195 186.369 890.999 188.564 886.607 188.564H836.885V221.504H868.099C872.491 221.504 874.687 223.7 874.687 228.092C874.687 232.483 872.491 234.679 868.099 234.679H836.885V268.56H886.607C890.999 268.56 893.195 270.756 893.195 275.148C893.195 279.539 890.999 281.735 886.607 281.735H830.297ZM22.9006 427.735C18.5087 427.735 16.3127 425.539 16.3127 421.148V327.977C16.3127 323.585 18.5087 321.389 22.9006 321.389H59.6043C69.1723 321.389 76.4921 323.951 81.5637 329.075C86.6876 334.146 89.2495 341.466 89.2495 351.034V355.74C89.2495 365.308 86.6876 372.654 81.5637 377.778C76.4921 382.849 69.1723 385.385 59.6043 385.385H29.4884V421.148C29.4884 425.539 27.2925 427.735 22.9006 427.735ZM29.4884 372.209H59.6043C65.5647 372.209 69.7997 370.954 72.3094 368.445C74.819 365.935 76.0739 361.7 76.0739 355.74V351.034C76.0739 345.126 74.819 340.917 72.3094 338.407C69.7997 335.845 65.5647 334.564 59.6043 334.564H29.4884V372.209ZM180.896 428.049C179.171 429.147 177.524 429.487 175.955 429.069C174.387 428.65 173.053 427.578 171.955 425.853L147.643 385.385H125.684V421.148C125.684 425.539 123.488 427.735 119.096 427.735C114.704 427.735 112.508 425.539 112.508 421.148V327.977C112.508 323.585 114.704 321.389 119.096 321.389H155.799C165.368 321.389 172.687 323.951 177.759 329.075C182.883 334.146 185.445 341.466 185.445 351.034V355.74C185.445 364.053 183.51 370.693 179.641 375.66C175.772 380.575 170.178 383.633 162.858 384.836L183.406 419.108C185.392 422.768 184.556 425.749 180.896 428.049ZM125.684 372.209H155.799C161.76 372.209 165.995 370.954 168.505 368.445C171.014 365.935 172.269 361.7 172.269 355.74V351.034C172.269 345.126 171.014 340.917 168.505 338.407C165.995 335.845 161.76 334.564 155.799 334.564H125.684V372.209ZM241.912 427.735C229.939 427.735 221.077 424.886 215.325 419.187C209.626 413.436 206.777 404.573 206.777 392.6V356.367C206.777 344.289 209.652 335.427 215.404 329.78C221.155 324.081 229.991 321.284 241.912 321.389H260.734C272.76 321.389 281.622 324.238 287.321 329.937C293.02 335.636 295.87 344.499 295.87 356.524V392.6C295.87 404.573 293.02 413.436 287.321 419.187C281.622 424.886 272.76 427.735 260.734 427.735H241.912ZM241.912 414.56H260.734C266.329 414.56 270.721 413.906 273.91 412.599C277.099 411.24 279.348 408.965 280.655 405.776C282.014 402.587 282.694 398.195 282.694 392.6V356.524C282.694 350.982 282.014 346.616 280.655 343.427C279.348 340.237 277.099 337.963 273.91 336.604C270.721 335.244 266.329 334.564 260.734 334.564H241.912C236.37 334.512 232.004 335.14 228.815 336.447C225.625 337.754 223.351 340.002 221.992 343.191C220.632 346.381 219.952 350.773 219.952 356.367V392.6C219.952 398.195 220.606 402.587 221.913 405.776C223.273 408.965 225.547 411.24 228.736 412.599C231.926 413.906 236.318 414.56 241.912 414.56ZM331.246 427.735C326.854 427.735 324.658 425.539 324.658 421.148V327.977C324.658 323.585 326.854 321.389 331.246 321.389H388.968C391.007 321.389 392.602 321.99 393.752 323.193C394.955 324.343 395.556 325.938 395.556 327.977C395.556 332.369 393.36 334.564 388.968 334.564H337.834V367.504H369.361C373.753 367.504 375.949 369.7 375.949 374.092C375.949 378.483 373.753 380.679 369.361 380.679H337.834V421.148C337.834 425.539 335.638 427.735 331.246 427.735ZM418.404 427.735C416.156 427.735 414.482 427.213 413.385 426.167C412.339 425.069 411.816 423.396 411.816 421.148V328.133C411.816 325.833 412.339 324.16 413.385 323.114C414.482 322.068 416.156 321.546 418.404 321.546C420.704 321.546 422.377 322.068 423.423 323.114C424.469 324.16 424.992 325.833 424.992 328.133V421.148C424.992 423.396 424.469 425.069 423.423 426.167C422.377 427.213 420.704 427.735 418.404 427.735ZM484.203 427.735C475.262 427.735 468.282 425.932 463.263 422.324C458.296 418.716 455.185 413.148 453.93 405.619C453.721 403.319 454.191 401.593 455.342 400.443C456.492 399.293 458.165 398.717 460.361 398.717C462.557 398.717 464.151 399.24 465.145 400.286C466.191 401.332 466.896 402.953 467.262 405.148C468.047 408.756 469.72 411.24 472.282 412.599C474.896 413.906 478.87 414.56 484.203 414.56H506.789C513.534 414.56 518.109 413.357 520.514 410.952C522.971 408.495 524.2 403.946 524.2 397.306C524.2 390.561 522.945 385.96 520.436 383.503C517.926 380.993 513.377 379.738 506.789 379.738H487.34C477.458 379.738 470.112 377.333 465.302 372.523C460.544 367.661 458.165 360.288 458.165 350.407C458.165 340.577 460.518 333.283 465.223 328.526C469.981 323.768 477.301 321.389 487.183 321.389H505.848C514.162 321.389 520.671 323.088 525.377 326.487C530.134 329.885 533.141 335.087 534.396 342.093C534.709 344.342 534.291 346.067 533.141 347.27C531.991 348.42 530.265 348.995 527.965 348.995C525.873 348.995 524.305 348.446 523.259 347.348C522.213 346.25 521.534 344.655 521.22 342.564C520.383 339.479 518.789 337.388 516.436 336.29C514.083 335.14 510.554 334.564 505.848 334.564H487.183C480.909 334.564 476.7 335.689 474.556 337.937C472.412 340.133 471.341 344.289 471.341 350.407C471.341 356.576 472.439 360.811 474.634 363.112C476.83 365.412 481.065 366.563 487.34 366.563H506.789C517.089 366.563 524.749 369.072 529.768 374.092C534.84 379.111 537.376 386.849 537.376 397.306C537.376 407.71 534.866 415.396 529.847 420.363C524.828 425.278 517.142 427.735 506.789 427.735H484.203ZM592.805 427.735C583.864 427.735 576.884 425.932 571.865 422.324C566.898 418.716 563.787 413.148 562.532 405.619C562.323 403.319 562.794 401.593 563.944 400.443C565.094 399.293 566.767 398.717 568.963 398.717C571.159 398.717 572.754 399.24 573.747 400.286C574.793 401.332 575.499 402.953 575.865 405.148C576.649 408.756 578.322 411.24 580.884 412.599C583.498 413.906 587.472 414.56 592.805 414.56H615.392C622.137 414.56 626.712 413.357 629.117 410.952C631.574 408.495 632.803 403.946 632.803 397.306C632.803 390.561 631.548 385.96 629.038 383.503C626.529 380.993 621.98 379.738 615.392 379.738H595.942C586.06 379.738 578.714 377.333 573.904 372.523C569.146 367.661 566.767 360.288 566.767 350.407C566.767 340.577 569.12 333.283 573.826 328.526C578.584 323.768 585.904 321.389 595.785 321.389H614.451C622.764 321.389 629.273 323.088 633.979 326.487C638.737 329.885 641.743 335.087 642.998 342.093C643.312 344.342 642.894 346.067 641.743 347.27C640.593 348.42 638.868 348.995 636.567 348.995C634.476 348.995 632.907 348.446 631.862 347.348C630.816 346.25 630.136 344.655 629.822 342.564C628.986 339.479 627.391 337.388 625.038 336.29C622.686 335.14 619.156 334.564 614.451 334.564H595.785C589.511 334.564 585.302 335.689 583.159 337.937C581.015 340.133 579.943 344.289 579.943 350.407C579.943 356.576 581.041 360.811 583.237 363.112C585.433 365.412 589.668 366.563 595.942 366.563H615.392C625.692 366.563 633.352 369.072 638.371 374.092C643.443 379.111 645.978 386.849 645.978 397.306C645.978 407.71 643.469 415.396 638.449 420.363C633.43 425.278 625.744 427.735 615.392 427.735H592.805ZM706.192 427.735C694.219 427.735 685.356 424.886 679.605 419.187C673.906 413.436 671.057 404.573 671.057 392.6V356.367C671.057 344.289 673.932 335.427 679.684 329.78C685.435 324.081 694.271 321.284 706.192 321.389H725.014C737.04 321.389 745.902 324.238 751.601 329.937C757.3 335.636 760.149 344.499 760.149 356.524V392.6C760.149 404.573 757.3 413.436 751.601 419.187C745.902 424.886 737.04 427.735 725.014 427.735H706.192ZM706.192 414.56H725.014C730.609 414.56 735 413.906 738.19 412.599C741.379 411.24 743.627 408.965 744.934 405.776C746.294 402.587 746.974 398.195 746.974 392.6V356.524C746.974 350.982 746.294 346.616 744.934 343.427C743.627 340.237 741.379 337.963 738.19 336.604C735 335.244 730.609 334.564 725.014 334.564H706.192C700.65 334.512 696.284 335.14 693.094 336.447C689.905 337.754 687.631 340.002 686.271 343.191C684.912 346.381 684.232 350.773 684.232 356.367V392.6C684.232 398.195 684.886 402.587 686.193 405.776C687.552 408.965 689.827 411.24 693.016 412.599C696.205 413.906 700.597 414.56 706.192 414.56ZM726.896 312.605C723.446 312.605 720.701 311.821 718.662 310.252C716.675 308.684 715.08 307.324 713.878 306.174C712.57 304.815 711.551 303.9 710.819 303.429C710.087 302.959 709.198 302.723 708.152 302.723C705.956 302.723 704.44 303.403 703.604 304.762C702.767 306.122 702.218 307.089 701.957 307.664C701.277 309.128 700.44 310.304 699.447 311.193C698.506 312.03 696.937 312.03 694.741 311.193C692.702 310.461 691.578 309.52 691.369 308.37C691.212 307.167 691.395 305.886 691.918 304.527C693.277 300.815 695.343 297.835 698.114 295.586C700.885 293.338 704.179 292.214 707.996 292.214C711.551 292.214 714.348 292.998 716.387 294.567C718.479 296.135 720.152 297.547 721.406 298.802C722.766 300.109 723.759 300.972 724.387 301.39C725.066 301.756 725.851 301.939 726.74 301.939C728.203 301.939 729.197 301.625 729.72 300.998C730.295 300.318 730.87 299.325 731.445 298.018C732.177 296.345 733.014 295.116 733.955 294.332C734.948 293.495 736.412 293.364 738.347 293.939C740.752 294.619 741.98 295.639 742.033 296.998C742.085 298.357 741.954 299.534 741.641 300.527C740.386 304.344 738.504 307.324 735.994 309.468C733.536 311.559 730.504 312.605 726.896 312.605ZM795.526 427.735C791.134 427.735 788.938 425.539 788.938 421.148V327.977C788.938 323.585 791.134 321.389 795.526 321.389H851.836C856.228 321.389 858.424 323.585 858.424 327.977C858.424 332.369 856.228 334.564 851.836 334.564H802.114V367.504H833.327C837.719 367.504 839.915 369.7 839.915 374.092C839.915 378.483 837.719 380.679 833.327 380.679H802.114V414.56H851.836C856.228 414.56 858.424 416.756 858.424 421.148C858.424 425.539 856.228 427.735 851.836 427.735H795.526ZM910.035 427.735C901.094 427.735 894.114 425.932 889.095 422.324C884.128 418.716 881.017 413.148 879.762 405.619C879.553 403.319 880.024 401.593 881.174 400.443C882.324 399.293 883.997 398.717 886.193 398.717C888.389 398.717 889.984 399.24 890.977 400.286C892.023 401.332 892.729 402.953 893.095 405.148C893.879 408.756 895.552 411.24 898.114 412.599C900.728 413.906 904.702 414.56 910.035 414.56H932.622C939.366 414.56 943.941 413.357 946.346 410.952C948.804 408.495 950.032 403.946 950.032 397.306C950.032 390.561 948.778 385.96 946.268 383.503C943.758 380.993 939.21 379.738 932.622 379.738H913.172C903.29 379.738 895.944 377.333 891.134 372.523C886.376 367.661 883.997 360.288 883.997 350.407C883.997 340.577 886.35 333.283 891.056 328.526C895.814 323.768 903.133 321.389 913.015 321.389H931.681C939.994 321.389 946.503 323.088 951.209 326.487C955.967 329.885 958.973 335.087 960.228 342.093C960.542 344.342 960.123 346.067 958.973 347.27C957.823 348.42 956.097 348.995 953.797 348.995C951.706 348.995 950.137 348.446 949.091 347.348C948.046 346.25 947.366 344.655 947.052 342.564C946.216 339.479 944.621 337.388 942.268 336.29C939.915 335.14 936.386 334.564 931.681 334.564H913.015C906.741 334.564 902.532 335.689 900.388 337.937C898.245 340.133 897.173 344.289 897.173 350.407C897.173 356.576 898.271 360.811 900.467 363.112C902.663 365.412 906.898 366.563 913.172 366.563H932.622C942.922 366.563 950.581 369.072 955.601 374.092C960.672 379.111 963.208 386.849 963.208 397.306C963.208 407.71 960.699 415.396 955.679 420.363C950.66 425.278 942.974 427.735 932.622 427.735H910.035Z" fill="white"/>
<path d="M64.4344 557.382C64.4344 566.47 65.9406 572.929 68.9531 576.759C71.9656 580.588 77.3013 582.503 84.9601 582.503C90.3724 582.503 94.5337 581.533 97.4441 579.593C100.405 577.652 102.422 574.716 103.495 570.785C104.618 566.853 105.18 561.594 105.18 555.008V507.982L92.9253 503.234V489.907L141.253 489.141V503.234L129.535 507.982V555.008C129.535 570.683 126.037 582.375 119.042 590.085C112.098 597.795 100.482 601.65 84.1942 601.65C68.6212 601.65 57.3627 598.101 50.4187 591.004C43.5257 583.856 40.0792 572.649 40.0792 557.382V507.982L28.5144 503.234V489.907L76.612 489.141V503.234L64.4344 507.982V557.382ZM148.323 586.409L160.118 581.66V507.982L148.323 503.234V489.907L184.397 489.141H228.358V518.934H213.73L209.824 507.982H184.397V535.401H216.87V552.71H184.397V581.66L198.872 586.409V599.735H148.323V586.409ZM301.602 551.102H269.894V580.895H298.002L301.602 568.028H315.694V599.735H233.821V586.409L245.615 581.66V507.982L233.821 503.234V489.907L269.894 489.141H313.856V519.394H299.687L295.781 507.982H269.894V533.869H301.602V551.102ZM346.966 578.903C347.273 579.108 348.09 579.465 349.417 579.976C350.796 580.486 352.608 580.997 354.855 581.507C357.102 581.967 359.578 582.197 362.284 582.197C367.594 582.197 372.087 581.073 375.764 578.827C379.44 576.58 381.278 573.465 381.278 569.483C381.278 567.083 380.461 565.066 378.827 563.432C377.244 561.798 375.202 560.445 372.7 559.373C370.249 558.25 366.675 556.846 361.978 555.161C355.085 552.761 349.392 550.387 344.899 548.038C340.405 545.689 336.499 542.294 333.181 537.852C329.913 533.41 328.279 527.64 328.279 520.543C328.279 513.548 329.989 507.548 333.41 502.544C336.882 497.49 341.631 493.686 347.656 491.133C353.681 488.58 360.497 487.303 368.105 487.303C373.313 487.303 378.47 487.763 383.576 488.682C388.733 489.601 392.971 490.571 396.289 491.592C399.659 492.562 401.778 493.226 402.646 493.584L401.804 522.075H387.405L383.499 508.748C383.091 508.646 382.197 508.416 380.819 508.059C379.44 507.701 377.73 507.344 375.687 506.987C373.645 506.578 371.653 506.374 369.713 506.374C364.403 506.374 360.293 507.421 357.382 509.514C354.472 511.607 353.017 514.288 353.017 517.556C353.017 520.926 354.574 523.581 357.689 525.521C360.855 527.41 365.833 529.555 372.624 531.954C379.517 534.354 385.184 536.703 389.626 539.001C394.119 541.298 397.949 544.592 401.115 548.881C404.331 553.17 405.94 558.658 405.94 565.347C405.94 573.006 404.102 579.593 400.425 585.107C396.749 590.57 391.72 594.732 385.337 597.591C378.955 600.399 371.705 601.803 363.586 601.803C358.378 601.803 353.17 601.344 347.962 600.425C342.805 599.557 338.516 598.663 335.095 597.744C331.674 596.774 329.504 596.136 328.585 595.829V565.73H344.592L346.966 578.903ZM446.044 580.588C459.524 569.713 469.736 561.186 476.68 555.008C483.624 548.83 489.062 543.034 492.993 537.622C496.925 532.159 498.891 526.976 498.891 522.075C498.891 517.275 497.206 513.471 493.836 510.663C490.517 507.804 486.075 506.374 480.509 506.374C478.007 506.374 475.684 506.604 473.54 507.063C471.395 507.472 469.659 507.906 468.332 508.365C467.055 508.825 466.264 509.106 465.957 509.208L464.426 522.534H447.883L447.117 493.584C448.036 493.277 450.231 492.614 453.703 491.592C457.175 490.571 461.439 489.601 466.494 488.682C471.599 487.763 476.654 487.303 481.658 487.303C495.24 487.303 505.758 489.678 513.213 494.426C520.718 499.175 524.471 507.089 524.471 518.169C524.471 525.164 522.761 531.878 519.34 538.311C515.97 544.745 511.221 551.127 505.094 557.458C498.967 563.79 490.619 571.5 480.05 580.588H527.152V599.735H446.044V580.588ZM581.631 487.303C591.791 487.303 599.808 489.422 605.679 493.66C611.602 497.847 615.815 504 618.317 512.118C620.818 520.236 622.069 530.525 622.069 542.983C622.069 562.232 618.674 576.861 611.883 586.868C605.092 596.825 594.472 601.803 580.022 601.803C565.675 601.803 555.233 597.08 548.698 587.634C542.213 578.137 538.971 564.02 538.971 545.281C538.971 526.236 542.341 511.812 549.081 502.008C555.82 492.205 566.67 487.303 581.631 487.303ZM580.712 506.91C576.627 506.91 573.41 508.084 571.061 510.433C568.713 512.782 567.002 516.688 565.93 522.151C564.909 527.563 564.398 535.018 564.398 544.515C564.398 558.097 565.649 567.772 568.151 573.542C570.653 579.312 574.84 582.197 580.712 582.197C584.592 582.197 587.681 580.946 589.979 578.444C592.276 575.891 593.936 571.857 594.957 566.343C595.978 560.777 596.489 553.246 596.489 543.749C596.489 534.456 596.004 527.18 595.034 521.921C594.064 516.611 592.455 512.782 590.209 510.433C587.962 508.084 584.796 506.91 580.712 506.91ZM631.438 580.588C644.917 569.713 655.129 561.186 662.073 555.008C669.017 548.83 674.455 543.034 678.387 537.622C682.318 532.159 684.284 526.976 684.284 522.075C684.284 517.275 682.599 513.471 679.229 510.663C675.91 507.804 671.468 506.374 665.903 506.374C663.401 506.374 661.077 506.604 658.933 507.063C656.789 507.472 655.053 507.906 653.725 508.365C652.449 508.825 651.657 509.106 651.351 509.208L649.819 522.534H633.276L632.51 493.584C633.429 493.277 635.625 492.614 639.097 491.592C642.569 490.571 646.832 489.601 651.887 488.682C656.993 487.763 662.048 487.303 667.051 487.303C680.633 487.303 691.151 489.678 698.606 494.426C706.112 499.175 709.864 507.089 709.864 518.169C709.864 525.164 708.154 531.878 704.733 538.311C701.363 544.745 696.615 551.127 690.487 557.458C684.36 563.79 676.012 571.5 665.443 580.588H712.545V599.735H631.438V580.588ZM796.051 515.488C796.051 522.177 794.366 527.87 790.996 532.567C787.677 537.214 782.827 540.354 776.444 541.988C783.031 543.468 788.341 546.481 792.375 551.025C796.408 555.569 798.425 560.828 798.425 566.802C798.425 574.87 796.306 581.507 792.068 586.715C787.831 591.923 782.291 595.727 775.449 598.127C768.658 600.476 761.305 601.65 753.391 601.65C747.417 601.65 741.852 601.012 736.695 599.735C731.589 598.459 727.326 597.106 723.905 595.676C720.535 594.195 718.85 593.353 718.85 593.149L725.436 575.916C726.151 576.223 727.887 576.912 730.644 577.984C733.453 579.005 736.925 580.027 741.06 581.048C745.196 582.018 749.307 582.503 753.391 582.503C759.774 582.503 764.675 581.15 768.096 578.444C771.568 575.687 773.304 571.704 773.304 566.496C773.304 561.696 771.364 557.944 767.484 555.237C763.603 552.48 758.114 551.102 751.017 551.102H738.763V534.635H751.783C758.267 534.635 763.297 533.359 766.871 530.806C770.445 528.253 772.232 524.449 772.232 519.394C772.232 515.411 770.7 512.246 767.637 509.897C764.624 507.548 760.386 506.374 754.923 506.374C752.625 506.374 750.328 506.578 748.03 506.987C745.732 507.344 743.843 507.701 742.362 508.059C740.933 508.416 740.014 508.646 739.605 508.748L737.997 521.309H721.53L720.765 493.89C721.786 493.584 724.109 492.894 727.734 491.822C731.359 490.75 735.776 489.729 740.984 488.759C746.192 487.788 751.094 487.303 755.689 487.303C782.546 487.303 796 496.698 796.051 515.488Z" fill="white"/>
</svg>
