<svg width="300" height="126" viewBox="0 0 300 126" fill="none" xmlns="http://www.w3.org/2000/svg">
<path d="M73.744 37.896H84.7451C85.7352 41.5223 89.2189 44.2071 93.326 44.2071C98.2398 44.2071 102.237 40.4065 102.237 35.7342C102.237 31.7941 99.4133 28.5165 95.5996 27.575V17.1843C99.4133 16.2429 102.237 12.9304 102.237 9.02519C102.237 4.35287 98.2398 0.552246 93.326 0.552246C88.4122 0.552246 84.4151 4.35287 84.4151 9.02519C84.4151 12.9653 87.2387 16.2429 91.0524 17.1843V27.575C87.9721 28.3421 85.5519 30.6434 84.7451 33.5723H73.744C72.754 29.9461 69.2703 27.2612 65.1632 27.2612C60.2494 27.2612 56.2523 31.0618 56.2523 35.7342C56.2523 39.6743 59.0759 42.9519 62.8896 43.8933V54.284C59.0759 55.2254 56.2523 58.5379 56.2523 62.4431C56.2523 66.3832 59.0759 69.6608 62.8896 70.6023V80.993C59.8093 81.7601 57.3891 84.0613 56.5823 86.9903H45.6546C44.8478 84.0613 42.4276 81.7601 39.3473 80.993V70.6023C43.161 69.6608 45.9846 66.3484 45.9846 62.4431C45.9846 57.7708 41.9875 53.9702 37.0737 53.9702C32.93 53.9702 29.4829 56.655 28.4928 60.2813H17.4917C16.5016 56.655 13.018 53.9702 8.91089 53.9702C3.99707 53.9702 0 57.7708 0 62.4431C0 67.1155 3.99707 70.9161 8.91089 70.9161C13.0546 70.9161 16.5016 68.2312 17.4917 64.6049H28.4928C29.2996 67.5339 31.7198 69.8352 34.8001 70.6023V80.993C30.9864 81.9344 28.1628 85.2469 28.1628 89.1521C28.1628 93.0922 30.9864 96.3698 34.8001 97.3112V107.702C30.9864 108.643 28.1628 111.956 28.1628 115.861C28.1628 120.533 32.1599 124.334 37.0737 124.334C41.9875 124.334 45.9846 120.533 45.9846 115.861C45.9846 111.921 43.161 108.643 39.3473 107.702V97.3112C42.4276 96.5441 44.8478 94.2428 45.6546 91.3139H56.5823C57.5724 94.9402 61.0561 97.625 65.1632 97.625C70.077 97.625 74.0741 93.8244 74.0741 89.1521C74.0741 85.212 71.2505 81.9344 67.4367 80.993V70.6023C70.5171 69.8352 72.9373 67.5339 73.744 64.6049H84.7451C85.7352 68.2312 89.2189 70.9161 93.326 70.9161C98.2398 70.9161 102.237 67.1155 102.237 62.4431C102.237 57.7708 98.2398 53.9702 93.326 53.9702C89.1823 53.9702 85.7352 56.655 84.7451 60.2813H73.744C72.9373 57.3524 70.5171 55.0511 67.4367 54.284V43.8933C70.5171 43.1262 72.9373 40.8249 73.744 37.896Z" fill="white"/>
<path d="M117.418 2.1908H146.095C154.345 2.1908 161.129 4.17828 166.447 8.18811C172.277 12.5815 175.211 18.5788 175.211 26.2149V33.6418C175.211 41.2779 172.314 47.3799 166.557 51.9825C161.24 56.2712 154.419 58.4331 146.095 58.4331H140.374V86.7808H117.455V2.1908H117.418ZM140.337 22.6584V38.1049H145.838C151.155 38.1049 153.795 35.5247 153.795 30.3294C153.795 25.2037 151.155 22.6584 145.838 22.6584H140.337Z" fill="white"/>
<path d="M236.377 2.1908V22.6584H203.264V33.4326H221.379V53.691H203.264V65.9297H236.377V86.8505H180.345V2.1908H236.377Z" fill="white"/>
<path d="M300 2.1908V22.6584H282.472V86.8505H259.626V22.6584H242.098V2.1908H300Z" fill="white"/>
<path d="M130.767 100.345V96.1604H122.002V104.494H130.767V108.678H122.002V117.011H130.767V112.827H135.167V121.161H117.639V91.9762H135.167V100.31L130.767 100.345Z" fill="white"/>
<path d="M152.695 121.196V104.529H143.931V121.196H139.531V100.344H157.059V121.196H152.695Z" fill="white"/>
<path d="M161.46 117.011V100.344H178.988V125.345H161.46V121.23H174.625V117.046H161.46V117.011ZM165.86 104.494V112.827H174.625V104.494H165.86Z" fill="white"/>
<path d="M196.553 100.345V96.1604H187.789V117.011H196.553V112.827H200.954V121.161H183.425V91.9762H200.954V100.31L196.553 100.345Z" fill="white"/>
<path d="M205.317 121.196V100.344H222.846V121.196H205.317ZM209.718 117.011H218.482V104.494H209.718V117.011Z" fill="white"/>
<path d="M240.411 121.196V104.529H231.647V121.196H227.246V100.344H257.939V121.196H253.539V104.529H244.775V121.196H240.411Z" fill="white"/>
<path d="M266.74 121.196V125.31H262.34V100.31H279.868V121.161H266.74V121.196ZM266.74 117.012H275.504V104.494H266.74V117.012Z" fill="white"/>
<path d="M297.47 86.5368H285.186V84.8632H295.71V81.5158H285.186V79.8422H297.47V86.5368Z" fill="white"/>
<path d="M288.669 73.1823H286.909V76.5296H290.429V73.1823H292.19V76.5296H297.47V78.2033H285.186V71.5435H288.706L288.669 73.1823Z" fill="white"/>
<path d="M288.669 64.8488H286.909V68.1962H290.429V64.8488H292.19V68.1962H295.71V64.8488H293.95V63.1752H297.47V69.835H285.186V63.1752H288.706L288.669 64.8488Z" fill="white"/>
<path d="M292.19 61.5015H285.186V54.8417H288.706V56.5154H286.946V59.8627H290.466V54.8417H297.47V61.5015H293.95V59.8278H295.71V56.4805H292.19V61.5015Z" fill="white"/>
</svg>
