<svg width="482" height="266" viewBox="0 0 482 266" fill="none" xmlns="http://www.w3.org/2000/svg">
<path d="M98.744 82.3376V157.402C98.744 196.388 93.5469 217.045 70.023 220.828C46.4992 224.61 40.4814 206.862 40.4814 167.294V93.1026L98.744 82.3376ZM289.123 178.35V147.509L335.077 139.945V104.74L289.123 112.305V84.3742L358.327 72.1545C357.507 76.8096 357.233 81.1738 357.233 85.8289C357.233 151.292 446.678 112.014 446.678 141.69C446.678 165.548 403.734 170.785 394.16 159.729L289.123 178.35ZM178.342 167.585L224.569 159.729V124.525L178.342 132.38V104.449L250.555 91.6478V220.246L178.342 233.92V167.585V167.585ZM395.801 73.3182C395.801 52.0792 444.49 42.769 446.678 65.4627L480.049 59.9347H481.691V107.068H480.049C460.082 74.1911 395.801 98.6305 395.801 73.3182ZM139.227 155.074V240.903L96.5558 248.758V247.013C123.089 234.211 136.218 207.444 137.039 155.074H139.227V155.074Z" fill="white"/>
<path d="M366.532 190.278C380.756 199.589 402.638 201.625 423.427 198.134C448.045 194.061 470.201 183.005 480.322 161.475H481.689V265.633H364.891V189.987H366.532V190.278Z" fill="white"/>
<path d="M0 0V100.667L364.073 35.2044V52.6612H365.714C376.108 35.2044 395.529 24.4394 422.609 19.7843C449.962 14.8382 472.939 23.2757 480.051 46.2604H481.419V0H0Z" fill="white"/>
</svg>
