<?xml version="1.0" encoding="utf-8"?>
<!-- Generator: Adobe Illustrator 25.2.1, SVG Export Plug-In . SVG Version: 6.00 Build 0)  -->
<svg version="1.1" id="Camada_1" xmlns="http://www.w3.org/2000/svg" xmlns:xlink="http://www.w3.org/1999/xlink" x="0px" y="0px"
	 viewBox="0 0 340 240" style="enable-background:new 0 0 340 240;" xml:space="preserve">
<style type="text/css">
	.st0{fill:#FFFFFF;}
</style>
<g>
	<polygon class="st0" points="37.49,68.75 27.27,85.15 60.53,85.15 90.24,129.35 108.77,129.35 71.94,68.75 	"/>
	<polygon class="st0" points="72.89,114.61 81.21,127.21 69.56,149.07 50.08,149.07 41.52,134.34 59.35,135.05 	"/>
	<polygon class="st0" points="95.23,51.17 96.89,83.49 91.66,90.61 100.93,103.92 114.48,83.49 	"/>
	<polygon class="st0" points="128.02,68.75 134.44,109.15 119.7,133.62 83.58,135.05 75.98,149.07 128.5,149.07 152.97,108.91 	"/>
</g>
<g>
	<g>
		<polygon class="st0" points="164.14,85.86 170,85.86 170,99.05 173.88,103.92 177.92,103.92 181.96,99.05 181.96,85.86 
			187.66,85.86 187.66,101.54 180.06,107.49 171.74,107.49 164.14,101.54 		"/>
		<rect x="190.51" y="85.86" class="st0" width="5.94" height="21.62"/>
		<polygon class="st0" points="198.12,85.86 220.69,85.86 220.69,90.61 212.38,90.61 211.9,107.49 206.91,107.49 206.44,90.61 
			198.12,90.61 		"/>
		<polygon class="st0" points="225.92,85.86 243.74,85.86 247.07,88 247.07,105.82 240.65,103.92 240.65,90.85 228.77,90.61 
			228.53,103.92 223.54,103.92 223.54,88.95 		"/>
		<polyline class="st0" points="239.99,105.57 241.67,101.43 246.89,103.73 247.07,105.82 243.98,107.49 226.4,107.49 
			223.54,105.82 223.54,103.92 228.53,103.92 240.65,103.92 		"/>
		<polygon class="st0" points="239.47,75.41 244.22,75.41 238.28,82.77 234.48,82.77 		"/>
		<polygon class="st0" points="249.68,85.86 270.59,85.86 272.97,88.24 272.97,99.29 269.76,100.89 272.97,103.92 272.97,107.49 
			267.45,107.49 267.09,105.7 262.63,101.43 262.63,98.04 266.91,96.67 267.27,90.55 255.15,90.73 255.15,96.67 254.61,107.49 
			249.68,107.49 		"/>
		<polygon class="st0" points="250.87,96.67 270.83,96.67 266.02,101.25 250.87,101.25 		"/>
		<rect x="276.18" y="85.86" class="st0" width="4.81" height="21.62"/>
		<polygon class="st0" points="291.86,85.86 284.2,93.23 284.2,107.49 289.37,107.49 291.15,93.05 293.29,91.09 301.66,90.91 
			301.66,107.49 307.37,107.49 307.37,85.86 		"/>
		<rect x="287.58" y="96.67" class="st0" width="18.18" height="4.57"/>
		<polygon class="st0" points="165.86,150.61 165.86,116.49 172.63,116.49 172.28,149.07 172.63,150.61 		"/>
		<polyline class="st0" points="165.86,129.85 197.67,129.85 194.55,132.79 198.12,137.6 198.12,147.76 194.55,150.61 
			165.86,150.61 190.51,143.84 191.26,141.7 191.35,136.53 172.46,136.53 165.86,136.18 		"/>
		<polygon class="st0" points="195.62,143.84 168.09,143.84 168.09,149.07 193.49,148.65 		"/>
		<polygon class="st0" points="198.12,129.85 198.12,119.5 194.47,116.49 170.76,116.49 170.76,123.17 190.51,123.17 191.52,123.97 
			191.52,129.85 		"/>
		<polygon class="st0" points="213.27,116.49 234.92,116.49 234.92,150.61 227.7,150.61 228.15,123.17 216.83,123.17 209.79,129.85 
			209.79,150.61 202.4,150.61 202.4,126.55 		"/>
		<polygon class="st0" points="231.71,133.55 207.56,133.55 209.41,140.23 229.22,140.23 		"/>
		<polygon class="st0" points="238.57,133.55 245.52,133.55 245.52,137.87 252.21,143.84 256.57,143.84 263.35,137.78 
			263.35,123.17 253.01,123.17 253.01,116.49 270.83,116.49 270.83,140.23 260.41,150.61 249,150.61 238.57,140.23 		"/>
		<polygon class="st0" points="275.2,150.61 282.59,150.61 282.59,130.21 289.72,123.17 300.59,123.17 300.59,150.61 308.08,150.61 
			308.08,116.49 285.89,116.49 275.2,127 		"/>
		<polygon class="st0" points="304.16,133.55 279.39,133.55 279.39,140.23 303.45,140.23 		"/>
	</g>
	<polygon class="st0" points="223.54,102.65 223.54,104.96 228.74,104.96 228.53,103.92 228.45,101.67 	"/>
	<polygon class="st0" points="242.72,106.83 238.12,104.58 241.31,103.73 	"/>
</g>
</svg>
